<svg width="40" height="40" viewBox="0 0 40 40" fill="none" xmlns="http://www.w3.org/2000/svg">
<path d="M27 22H25V30H27V22Z" fill="colorPrimary"/>
<path d="M22 25V27H30V25H22Z" fill="colorPrimary"/>
<path fill-rule="evenodd" clip-rule="evenodd" d="M30 12.4546C30 11.0989 25.5228 10 20 10C14.4772 10 10 11.0989 10 12.4546V27.9091C10 29.2727 14.4545 30.3636 20 30.3636V28.5455C17.3276 28.5455 14.9803 28.2809 13.3536 27.8819C12.6292 27.7042 12.1258 27.5185 11.8182 27.3622V24.4962C12.2743 24.6548 12.806 24.7907 13.3859 24.9066C15.1034 25.2499 17.4388 25.4545 20 25.4545V23.6364C17.5199 23.6364 15.3098 23.437 13.7422 23.1237C12.9509 22.9655 12.3709 22.7875 12.0107 22.6164C11.9251 22.5757 11.8625 22.5403 11.8182 22.5122V19.0417C12.2743 19.2002 12.806 19.3362 13.3859 19.4521C15.1034 19.7953 17.4388 20 20 20C22.5612 20 24.8966 19.7953 26.6141 19.4521C27.194 19.3362 27.7257 19.2002 28.1818 19.0417V21H30V12.4546ZM28.4626 11.7269C28.4646 11.7271 28.4534 11.7385 28.4229 11.7604C28.4454 11.7376 28.4606 11.7266 28.4626 11.7269ZM20 11.8182C22.5922 11.8182 24.888 12.0712 26.5124 12.4545C24.888 12.8379 22.5922 13.0909 20 13.0909C17.4078 13.0909 15.112 12.8379 13.4876 12.4545C15.112 12.0712 17.4078 11.8182 20 11.8182ZM11.5374 11.7269C11.5394 11.7266 11.5546 11.7376 11.5771 11.7604C11.5466 11.7385 11.5354 11.7271 11.5374 11.7269ZM11.8182 13.8662V17.0577C11.8625 17.0858 11.9251 17.1211 12.0107 17.1618C12.3709 17.3329 12.9509 17.511 13.7422 17.6691C15.3098 17.9824 17.5199 18.1818 20 18.1818C22.4801 18.1818 24.6902 17.9824 26.2578 17.6691C27.0491 17.511 27.6291 17.3329 27.9893 17.1618C28.0749 17.1211 28.1375 17.0858 28.1818 17.0577V13.8662C26.3721 14.497 23.3821 14.9091 20 14.9091C16.6179 14.9091 13.6279 14.497 11.8182 13.8662ZM11.5414 27.1891C11.5414 27.1891 11.558 27.1994 11.5796 27.2214C11.5503 27.2003 11.5414 27.1891 11.5414 27.1891Z" fill="colorPrimary"/>
</svg>
