<svg width="40" height="40" viewBox="0 0 40 40" fill="none" xmlns="http://www.w3.org/2000/svg">
<path fill-rule="evenodd" clip-rule="evenodd" d="M25.6991 11.715L16.8182 20.3986L12.3009 15.9817L13.6991 14.5517L16.8182 17.6014L24.3009 10.285L25.6991 11.715Z" fill="#0B4566"/>
<path fill-rule="evenodd" clip-rule="evenodd" d="M10 10V22H24V10H10ZM9 8C8.44772 8 8 8.44772 8 9V23C8 23.5523 8.44772 24 9 24H25C25.5523 24 26 23.5523 26 23V9C26 8.44772 25.5523 8 25 8H9Z" fill="#0B4566"/>
<path d="M24 29H27V32H29V29H32V27H29V24H27V27H24V29Z" fill="#0B4566"/>
</svg>
