<svg width="22" height="22" viewBox="0 0 22 22" fill="none" xmlns="http://www.w3.org/2000/svg">
<mask id="path-1-inside-1" fill="white">
<rect width="10" height="10" rx="1"/>
</mask>
<rect width="10" height="10" rx="1" fill="#C4C4C4" stroke="#0B4566" stroke-width="4" mask="url(#path-1-inside-1)"/>
<mask id="path-2-inside-2" fill="white">
<rect y="12" width="10" height="10" rx="1"/>
</mask>
<rect y="12" width="10" height="10" rx="1" fill="#C4C4C4" stroke="#0B4566" stroke-width="4" mask="url(#path-2-inside-2)"/>
<mask id="path-3-inside-3" fill="white">
<rect x="12" y="12" width="10" height="10" rx="1"/>
</mask>
<rect x="12" y="12" width="10" height="10" rx="1" fill="#C4C4C4" stroke="#0B4566" stroke-width="4" mask="url(#path-3-inside-3)"/>
<path d="M20.8204 5.49C20.8409 5.33 20.8563 5.17 20.8563 5C20.8563 4.83 20.8409 4.67 20.8204 4.51L21.9049 3.685C22.0026 3.61 22.0283 3.475 21.9666 3.365L20.9386 1.635C20.8923 1.555 20.8049 1.51 20.7124 1.51C20.6816 1.51 20.6507 1.515 20.625 1.525L19.3451 2.025C19.0778 1.825 18.7899 1.66 18.4764 1.535L18.2811 0.21C18.2656 0.09 18.1577 0 18.0292 0H15.9731C15.8446 0 15.7366 0.09 15.7212 0.21L15.5259 1.535C15.2123 1.66 14.9245 1.83 14.6572 2.025L13.3772 1.525C13.3464 1.515 13.3156 1.51 13.2847 1.51C13.1973 1.51 13.11 1.555 13.0637 1.635L12.0356 3.365C11.9688 3.475 11.9997 3.61 12.0973 3.685L13.1819 4.51C13.1614 4.67 13.1459 4.835 13.1459 5C13.1459 5.165 13.1614 5.33 13.1819 5.49L12.0973 6.315C11.9997 6.39 11.974 6.525 12.0356 6.635L13.0637 8.365C13.11 8.445 13.1973 8.49 13.2899 8.49C13.3207 8.49 13.3515 8.485 13.3772 8.475L14.6572 7.975C14.9245 8.175 15.2123 8.34 15.5259 8.465L15.7212 9.79C15.7366 9.91 15.8446 10 15.9731 10H18.0292C18.1577 10 18.2656 9.91 18.2811 9.79L18.4764 8.465C18.7899 8.34 19.0778 8.17 19.3451 7.975L20.625 8.475C20.6559 8.485 20.6867 8.49 20.7175 8.49C20.8049 8.49 20.8923 8.445 20.9386 8.365L21.9666 6.635C22.0283 6.525 22.0026 6.39 21.9049 6.315L20.8204 5.49ZM19.8026 4.635C19.8231 4.79 19.8283 4.895 19.8283 5C19.8283 5.105 19.818 5.215 19.8026 5.365L19.7306 5.93L20.1881 6.28L20.7432 6.7L20.3834 7.305L19.7306 7.05L19.196 6.84L18.7334 7.18C18.5124 7.34 18.3016 7.46 18.0909 7.545L17.546 7.76L17.4638 8.325L17.361 9H16.6413L16.4614 7.76L15.9165 7.545C15.6955 7.455 15.4899 7.34 15.2843 7.19L14.8165 6.84L14.2717 7.055L13.6188 7.31L13.259 6.705L13.8142 6.285L14.2717 5.935L14.1997 5.37C14.1843 5.215 14.174 5.1 14.174 5C14.174 4.9 14.1843 4.785 14.1997 4.635L14.2717 4.07L13.8142 3.72L13.259 3.3L13.6188 2.695L14.2717 2.95L14.8062 3.16L15.2689 2.82C15.4899 2.66 15.7006 2.54 15.9114 2.455L16.4563 2.24L16.5385 1.675L16.6413 1H17.3558L17.5357 2.24L18.0806 2.455C18.3016 2.545 18.5072 2.66 18.7128 2.81L19.1806 3.16L19.7255 2.945L20.3783 2.69L20.7381 3.295L20.1881 3.72L19.7306 4.07L19.8026 4.635Z" fill="#0B4566"/>
<path d="M17.0011 3C15.8651 3 14.945 3.895 14.945 5C14.945 6.105 15.8651 7 17.0011 7C18.1371 7 19.0572 6.105 19.0572 5C19.0572 3.895 18.1371 3 17.0011 3ZM17.0011 6C16.4357 6 15.9731 5.55 15.9731 5C15.9731 4.45 16.4357 4 17.0011 4C17.5666 4 18.0292 4.45 18.0292 5C18.0292 5.55 17.5666 6 17.0011 6Z" fill="#0B4566"/>
</svg>
