<svg width="41" height="40" viewBox="0 0 41 40" fill="none" xmlns="http://www.w3.org/2000/svg">
<path d="M20 29.5C21.0784 29.5 21.9608 28.6 21.9608 27.5H18.0392C18.0392 28.6 18.9216 29.5 20 29.5ZM25.8824 23.5V18.5C25.8824 15.43 24.2843 12.86 21.4706 12.18V11.5C21.4706 10.67 20.8137 10 20 10C19.1863 10 18.5294 10.67 18.5294 11.5V12.18C15.7255 12.86 14.1176 15.42 14.1176 18.5V23.5L12.1569 25.5V26.5H27.8431V25.5L25.8824 23.5ZM23.9216 24.5H16.0784V18.5C16.0784 16.02 17.5588 14 20 14C22.4412 14 23.9216 16.02 23.9216 18.5V24.5Z" fill="#0B4566"/>
<path fill-rule="evenodd" clip-rule="evenodd" d="M10.1666 21V15H12.1666V21H10.1666Z" fill="#0B4566"/>
<path fill-rule="evenodd" clip-rule="evenodd" d="M28.1666 21V15H30.1666V21H28.1666Z" fill="#0B4566"/>
</svg>
