<svg width="40" height="40" viewBox="0 0 40 40" fill="none" xmlns="http://www.w3.org/2000/svg">
<path fill-rule="evenodd" clip-rule="evenodd" d="M15 12C15 13.6569 13.6569 15 12 15C10.3431 15 9 13.6569 9 12C9 10.3431 10.3431 9 12 9C13.6569 9 15 10.3431 15 12ZM13.5 12C13.5 12.8284 12.8284 13.5 12 13.5C11.1716 13.5 10.5 12.8284 10.5 12C10.5 11.1716 11.1716 10.5 12 10.5C12.8284 10.5 13.5 11.1716 13.5 12ZM16 11H19V13H16V11ZM21 11H24V13H21V11ZM29 19V16H27V19H29ZM11 19V16H13V19H11ZM11 21V24H13V21H11ZM29 21V24H27V21H29ZM16 29H19V27H16V29ZM24 29H21V27H24V29ZM12 31C13.6569 31 15 29.6569 15 28C15 26.3431 13.6569 25 12 25C10.3431 25 9 26.3431 9 28C9 29.6569 10.3431 31 12 31ZM12 29.5C12.8284 29.5 13.5 28.8284 13.5 28C13.5 27.1716 12.8284 26.5 12 26.5C11.1716 26.5 10.5 27.1716 10.5 28C10.5 28.8284 11.1716 29.5 12 29.5ZM28 15C29.6569 15 31 13.6569 31 12C31 10.3431 29.6569 9 28 9C26.3431 9 25 10.3431 25 12C25 13.6569 26.3431 15 28 15ZM28 13.5C28.8284 13.5 29.5 12.8284 29.5 12C29.5 11.1716 28.8284 10.5 28 10.5C27.1716 10.5 26.5 11.1716 26.5 12C26.5 12.8284 27.1716 13.5 28 13.5ZM31 28C31 29.6569 29.6569 31 28 31C26.3431 31 25 29.6569 25 28C25 26.3431 26.3431 25 28 25C29.6569 25 31 26.3431 31 28ZM29.5 28C29.5 28.8284 28.8284 29.5 28 29.5C27.1716 29.5 26.5 28.8284 26.5 28C26.5 27.1716 27.1716 26.5 28 26.5C28.8284 26.5 29.5 27.1716 29.5 28Z" fill="colorPrimary"/>
</svg>
