<svg width="40" height="40" viewBox="0 0 40 40" fill="none" xmlns="http://www.w3.org/2000/svg">
<path d="M18.1029 23.3364H8.33301C9.87562 30.0211 12.4466 33.1063 14.5035 32.5921C16.1489 32.1807 17.5887 26.2502 18.1029 23.3364Z" fill="#BBE5F9"/>
<path d="M25.042 24.9631C24.8525 24.5447 24.6127 24.0154 24.2734 23.3369H30.4439C30.1011 24.7081 29.0041 27.3477 27.3587 26.9363C25.7542 26.5352 25.7142 26.447 25.042 24.9631Z" fill="#BBE5F9"/>
<path d="M6.99902 12L8.15436 23.3366H18.1015L19.6442 20.2514L21.1868 19.7372L23.2436 20.7656L24.272 23.3366H30.3428L31.999 12H6.99902Z" fill="#DCF2FD"/>
<path fill-rule="evenodd" clip-rule="evenodd" d="M5.67572 9.33571C5.56566 8.92849 5.47461 8.62817 5.40918 8.42466H6.4562C6.51012 8.60404 6.57223 8.82002 6.64109 9.07482C6.8012 9.66727 6.99785 10.4697 7.21289 11.51H31.6003C31.8285 10.6306 32.1609 9.77642 32.6863 9.04782C33.6231 7.7487 35.122 6.91333 37.5002 6.91333V7.91333C35.3923 7.91333 34.2183 8.63307 33.4974 9.6327C32.7467 10.6738 32.4365 12.0846 32.2244 13.5688C32.1022 14.4245 31.9954 15.3995 31.8831 16.4236C31.6698 18.3704 31.437 20.4948 31.0419 22.3156C30.7383 23.7142 30.3268 25.0058 29.7177 25.9581C29.0994 26.9247 28.2368 27.5963 27.0551 27.5963C26.494 27.5963 26.015 27.4624 25.6108 27.2099C25.2102 26.9597 24.9119 26.6111 24.6805 26.2242C24.2589 25.5192 24.0192 24.6094 23.8 23.7771L23.7565 23.6122C23.5132 22.6933 23.2786 21.8761 22.8762 21.2811C22.5031 20.7296 21.9885 20.3722 21.1058 20.3722C20.379 20.3722 19.8061 20.935 19.2976 22.1736C18.8537 23.2549 18.539 24.6606 18.2085 26.1373C18.1686 26.3157 18.1284 26.4952 18.0878 26.6752C17.719 28.3085 17.3082 29.9984 16.6456 31.2248C16.3113 31.8436 15.8929 32.384 15.3465 32.7368C14.7863 33.0986 14.128 33.2393 13.3747 33.1138C11.8636 32.8619 10.772 31.644 9.96896 30.092C9.1586 28.5259 8.57908 26.5019 8.1438 24.4109C7.70727 22.3138 7.40954 20.1169 7.17547 18.1912C7.11031 17.6551 7.05028 17.1421 6.99372 16.6587C6.84552 15.3921 6.7211 14.3288 6.59025 13.5847C6.24115 11.5994 5.91396 10.2172 5.67572 9.33571ZM31.4817 12.01H7.31394C7.39903 12.4405 7.48645 12.9071 7.57514 13.4115C7.71135 14.1861 7.84109 15.295 7.991 16.5764C8.0468 17.0533 8.1054 17.5541 8.16817 18.0705C8.35612 19.6168 8.58333 21.3215 8.88824 23.0002H17.9535C18.0814 22.5724 18.2196 22.1663 18.3725 21.7938C18.8998 20.5093 19.708 19.3722 21.1058 19.3722C22.3479 19.3722 23.1613 19.9179 23.7045 20.7208C24.1504 21.3801 24.4128 22.212 24.6278 23.0002H29.8487C29.9254 22.7134 29.9973 22.4139 30.0646 22.1035C30.4502 20.3271 30.67 18.3131 30.8784 16.4038C30.9922 15.362 31.1025 14.3513 31.2345 13.4274C31.3008 12.9634 31.3786 12.4858 31.4817 12.01ZM8.98158 23.5002C9.02699 23.7369 9.07403 23.9727 9.12282 24.2071C9.55174 26.2676 10.1092 28.1869 10.8571 29.6325C11.6124 31.0922 12.5004 31.9543 13.5391 32.1274C14.0606 32.2143 14.4646 32.116 14.8041 31.8968C15.1574 31.6686 15.476 31.286 15.7658 30.7495C16.3515 29.6653 16.7375 28.115 17.1123 26.455C17.1528 26.2758 17.1931 26.0954 17.2335 25.9144C17.4155 25.1003 17.6002 24.2738 17.811 23.5002H8.98158ZM24.7612 23.5002C24.9916 24.3716 25.197 25.1395 25.5387 25.7109C25.7124 26.0012 25.9087 26.217 26.1406 26.3618C26.3688 26.5044 26.66 26.5963 27.0551 26.5963C27.7856 26.5963 28.3723 26.2055 28.8752 25.4193C29.2011 24.9098 29.474 24.2582 29.7057 23.5002H24.7612Z" fill="#0B4566"/>
</svg>
