<svg width="40" height="40" viewBox="0 0 40 40" fill="none" xmlns="http://www.w3.org/2000/svg">
<path fill-rule="evenodd" clip-rule="evenodd" d="M18 10C18 8.84741 17 8 16 8C15 8 14 8.91577 14 10C14 11.0842 15 12 16 12C16.1516 12 16.3031 11.9807 16.4512 11.9436L21.0427 16.457L16.0427 21.457L21.84 27.8242C21.8137 27.9463 21.7998 28.072 21.7998 28.2C21.7998 29.2842 22.7998 30.2 23.7998 30.2C24.7998 30.2 25.7998 29.3525 25.7998 28.2C25.7998 27.0474 24.7998 26.2 23.7998 26.2C23.6296 26.2 23.4595 26.2266 23.2943 26.2759L18.8711 21.457L23.8711 16.457L17.9468 10.4529C17.9814 10.3086 18 10.157 18 10ZM16.6667 10C16.6667 9.61572 16.3333 9.33325 16 9.33325C15.6667 9.33325 15.3333 9.63867 15.3333 10C15.3333 10.3613 15.6667 10.6667 16 10.6667C16.3333 10.6667 16.6667 10.3843 16.6667 10ZM23.7998 27.5332C24.1331 27.5332 24.4665 27.8157 24.4665 28.2C24.4665 28.5842 24.1331 28.8667 23.7998 28.8667C23.4665 28.8667 23.1331 28.5613 23.1331 28.2C23.1331 27.8386 23.4665 27.5332 23.7998 27.5332Z" fill="#0B4566"/>
</svg>
