<svg width="40" height="40" viewBox="0 0 40 40" fill="none" xmlns="http://www.w3.org/2000/svg">
<path fill-rule="evenodd" clip-rule="evenodd" d="M12 8C13 8 14 8.84732 14 9.99992C14 10.157 13.9814 10.3084 13.9468 10.4528L19.8711 16.4571L14.8711 21.4571L19.2942 26.2758C19.4595 26.2265 19.6296 26.2 19.7998 26.2C20.7998 26.2 21.7998 27.0473 21.7998 28.1999C21.7998 29.3525 20.7998 30.2 19.7998 30.2C18.7998 30.2 17.7998 29.2842 17.7998 28.2C17.7998 28.072 17.8137 27.9463 17.84 27.8242L12.0427 21.4571L17.0427 16.4571L12.4512 11.9435C12.3031 11.9805 12.1515 12 12 12C11 12 10 11.0842 10 10C10 8.91578 11 8 12 8ZM12 9.33333C12.3333 9.33333 12.6667 9.61577 12.6667 9.99997C12.6667 10.3842 12.3333 10.6667 12 10.6667C11.6667 10.6667 11.3333 10.3614 11.3333 10C11.3333 9.63859 11.6667 9.33333 12 9.33333ZM20.4665 28.1999C20.4665 27.8157 20.1331 27.5333 19.7998 27.5333C19.4665 27.5333 19.1331 27.8385 19.1331 28.2C19.1331 28.5614 19.4665 28.8666 19.7998 28.8666C20.1331 28.8666 20.4665 28.5841 20.4665 28.1999Z" fill="colorPrimary"/>
<path d="M26.5 26.8454L28.9643 24L29.5 24.701L26.5 28L24.5 25.6907L25 25.1134L26.5 26.8454Z" fill="colorPrimary"/>
<path fill-rule="evenodd" clip-rule="evenodd" d="M31 29.1111C31 29.6 30.6 30 30.1111 30H23.8889C23.4 30 23 29.6 23 29.1111V22.8889C23 22.4 23.4 22 23.8889 22H30.1111C30.6 22 31 22.4 31 22.8889V29.1111ZM30 23V29H24V23H30Z" fill="colorPrimary"/>
</svg>
