<svg width="40" height="40" viewBox="0 0 40 40" fill="none" xmlns="http://www.w3.org/2000/svg">
<path d="M26 21H24V19H26V21Z" fill="colorPrimary"/>
<path d="M24 25H26V23H24V25Z" fill="colorPrimary"/>
<path fill-rule="evenodd" clip-rule="evenodd" d="M30 29H10V11H20V15H30V29ZM14 13H12V15H14V13ZM12 19V17H14V19H12ZM12 21V23H14V21H12ZM12 27V25H14V27H12ZM16 27V25H18V27H16ZM20 21V23H22V25H20V27H28V17H20V19H22V21H20ZM16 23H18V21H16V23ZM18 19H16V17H18V19ZM16 15H18V13H16V15Z" fill="colorPrimary"/>
</svg>
