<svg width="40" height="40" viewBox="0 0 40 40" fill="none" xmlns="http://www.w3.org/2000/svg">
<path d="M28 11H27V9H25V11H15V9H13V11H12C10.9 11 10 11.9 10 13V29C10 30.1 10.9 31 12 31H28C29.1 31 30 30.1 30 29V13C30 11.9 29.1 11 28 11ZM28 29H12V18H28V29ZM28 16H12V13H28V16Z" fill="#0B4566"/>
<path d="M15 21H17V23H15V21Z" fill="#0B4566"/>
<path d="M18 21H20V23H18V21Z" fill="#0B4566"/>
<path d="M21 21H23V23H21V21Z" fill="#0B4566"/>
<path d="M18 24H20V26H18V24Z" fill="#0B4566"/>
<path d="M21 24H23V26H21V24Z" fill="#0B4566"/>
<path d="M24 24H26V26H24V24Z" fill="#0B4566"/>
</svg>
