<svg width="40" height="40" viewBox="0 0 40 40" fill="none" xmlns="http://www.w3.org/2000/svg">
<path d="M24.55 21C25.3 21 25.96 20.59 26.3 19.97L29.88 13.48C30.25 12.82 29.77 12 29.01 12H14.21L13.27 10H10V12H12L15.6 19.59L14.25 22.03C13.52 23.37 14.48 25 16 25H28V23H16L17.1 21H24.55ZM15.16 14H27.31L24.55 19H17.53L15.16 14Z" fill="#0B4566"/>
<path d="M16 26C14.9 26 14.01 26.9 14.01 28C14.01 29.1 14.9 30 16 30C17.1 30 18 29.1 18 28C18 26.9 17.1 26 16 26Z" fill="#0B4566"/>
<path d="M26 26C24.9 26 24.01 26.9 24.01 28C24.01 29.1 24.9 30 26 30C27.1 30 28 29.1 28 28C28 26.9 27.1 26 26 26Z" fill="#0B4566"/>
</svg>
