<svg width="40" height="40" viewBox="0 0 40 40" fill="none" xmlns="http://www.w3.org/2000/svg">
<path d="M31.15 15.3501L30.65 14.4501C30.35 13.8501 29.65 13.1501 28.75 12.7501C27.75 12.3501 26.55 12.2501 25.15 13.0501L18.05 17.1501L17.25 17.5501C17.35 17.3501 17.45 17.1501 17.55 16.8501C17.65 16.3501 17.75 15.8501 17.75 15.2501C17.65 14.1501 17.05 13.0501 15.75 12.3501L15.25 12.0501C14.55 11.6501 13.65 11.3501 12.55 11.3501C11.35 11.3501 10.15 11.8501 9.35001 13.2501C9.05001 13.8501 8.75001 14.8501 8.95001 15.9501C9.15001 17.0501 9.85001 18.1501 11.25 19.0501L12.95 20.0501L11.25 21.0501C9.75001 21.8501 9.05001 23.0501 8.85001 24.1501C8.65001 25.2501 8.95001 26.2501 9.25001 26.8501C10.05 28.2501 11.25 28.7501 12.45 28.7501C13.55 28.7501 14.55 28.4501 15.15 28.0501L15.55 27.8501C16.85 27.0501 17.45 25.9501 17.55 24.9501C17.65 24.3501 17.55 23.8501 17.35 23.3501C17.25 23.0501 17.15 22.8501 17.05 22.6501L17.85 23.1501L24.95 27.2501C26.25 28.0501 27.55 27.9501 28.55 27.5501C29.45 27.1501 30.15 26.3501 30.45 25.8501L30.95 24.9501L22.85 20.2501L31.15 15.3501ZM15.75 24.5501C15.75 25.0501 15.45 25.5501 14.75 25.9501L14.35 26.1501C13.95 26.3501 13.25 26.6501 12.65 26.6501C12.05 26.6501 11.55 26.4501 11.15 25.7501C10.95 25.4501 10.85 24.9501 10.95 24.4501C11.05 23.9501 11.35 23.3501 12.35 22.7501L14.45 21.5501L15.45 23.2501C15.55 23.5501 15.75 24.0501 15.75 24.5501ZM15.45 16.7501L14.45 18.4501L12.25 17.2501C11.25 16.6501 10.95 16.0501 10.85 15.5501C10.75 15.0501 10.95 14.5501 11.05 14.2501C11.45 13.5501 12.05 13.3501 12.55 13.3501C13.25 13.3501 13.85 13.5501 14.25 13.8501H14.35L14.65 14.0501C15.45 14.4501 15.65 15.0501 15.65 15.4501C15.75 15.9501 15.55 16.4501 15.45 16.7501ZM16.65 21.3501L16.15 20.5501L26.15 14.7501C26.95 14.3501 27.45 14.3501 27.85 14.5501C27.95 14.5501 28.05 14.6501 28.15 14.7501L16.65 21.3501ZM28.15 25.2501C28.05 25.3501 27.95 25.3501 27.85 25.4501C27.45 25.6501 26.85 25.7501 26.15 25.2501L20.05 21.7501L21.05 21.1501L28.15 25.2501Z" fill="#0B4566"/>
</svg>
