<svg width="40" height="40" viewBox="0 0 40 40" fill="none" xmlns="http://www.w3.org/2000/svg">
<path fill-rule="evenodd" clip-rule="evenodd" d="M16 26C19.3137 26 22 23.3137 22 20C22 16.6863 19.3137 14 16 14C12.6863 14 10 16.6863 10 20C10 23.3137 12.6863 26 16 26ZM16 28C20.4183 28 24 24.4183 24 20C24 15.5817 20.4183 12 16 12C11.5817 12 8 15.5817 8 20C8 24.4183 11.5817 28 16 28Z" fill="#0B4566"/>
<path d="M24.0007 26C23.4948 26.6736 22.9057 27.2813 22.2487 27.8077C22.8124 27.9336 23.3984 28 24 28C28.4183 28 32 24.4183 32 20C32 15.5817 28.4183 12 24 12C23.3984 12 22.8124 12.0664 22.2487 12.1923C22.9057 12.7187 23.4948 13.3264 24.0007 14C27.3141 14.0004 30 16.6865 30 20C30 23.3135 27.3141 25.9996 24.0007 26Z" fill="#0B4566"/>
</svg>
