<svg width="40" height="40" viewBox="0 0 40 40" fill="none" xmlns="http://www.w3.org/2000/svg">
<path d="M17.17 12L15.17 10H10V22H18V24H10C8.89999 24 8 23.1 8 22L8.00999 10C8.00999 8.90002 8.89999 8 10 8H16L18 10H26C27.1 10 28 10.9 28 12V15H26V12H17.17Z" fill="#0B4566"/>
<path d="M30 22H22C20.9 22 20 22.9 20 24V30C20 31.1 20.9 32 22 32H30C31.1 32 32 31.1 32 30V24C32 22.9 31.1 22 30 22ZM30 30H22V24H30V30Z" fill="#0B4566"/>
<path d="M26 28C26.5523 28 27 27.5523 27 27C27 26.4477 26.5523 26 26 26C25.4477 26 25 26.4477 25 27C25 27.5523 25.4477 28 26 28Z" fill="#0B4566"/>
<path d="M30 22H28V21C28 19.1 26.3 19 26 19C24.1 19 24 20.7 24 21V22H22V21C22 19.4 23.1 17 26 17C27.6 17 30 18.1 30 21V22Z" fill="#0B4566"/>
</svg>
