<svg width="40" height="40" viewBox="0 0 40 40" fill="none" xmlns="http://www.w3.org/2000/svg">
<path fill-rule="evenodd" clip-rule="evenodd" d="M27.7 10.2858L29.9929 7.99292L31.4071 9.40713L29.1142 11.7L29.5071 12.0929L28.8163 12.7837C29.5071 12.0929 29.5078 12.0936 29.5078 12.0936L29.5086 12.0944L29.5103 12.0961L29.5142 12.1001L29.5244 12.1105C29.5321 12.1185 29.5419 12.1287 29.5533 12.141C29.5763 12.1655 29.6063 12.1985 29.6418 12.2394C29.7126 12.3211 29.8063 12.4359 29.909 12.5797C30.1117 12.8634 30.3644 13.2809 30.5362 13.7963C30.7094 14.3159 30.8064 14.9547 30.6665 15.654C30.5252 16.3606 30.1558 17.0584 29.5071 17.7071L29.5009 17.7133L25.882 21.2074L18.2914 13.4944L21.7929 9.99292L22.5 10.7C21.7929 9.99292 21.7936 9.9922 21.7936 9.9922L21.7944 9.99144L21.7961 9.98976L21.8001 9.98582L21.8105 9.97565C21.8185 9.96788 21.8287 9.95816 21.8409 9.94668C21.8654 9.92375 21.8984 9.8937 21.9394 9.8582C22.0211 9.78743 22.1359 9.6937 22.2797 9.59098C22.5634 9.38833 22.9808 9.13565 23.4963 8.96384C24.0158 8.79065 24.6546 8.69365 25.3539 8.83351C26.0606 8.97484 26.7584 9.34419 27.4071 9.99292L27.7 10.2858ZM23.2027 11.4115L21.1086 13.5057L25.918 18.3926L28.0987 16.2871C28.4957 15.8882 28.6501 15.5381 28.7054 15.2617C28.7624 14.9766 28.7281 14.6967 28.6388 14.4288C28.5481 14.1567 28.407 13.9179 28.2816 13.7422C28.2202 13.6563 28.1663 13.5907 28.1304 13.5493C28.1126 13.5287 28.0996 13.5146 28.0928 13.5073L28.0885 13.5028L25.9929 11.4071C25.5916 11.0059 25.2394 10.8502 24.9617 10.7947C24.6766 10.7377 24.3966 10.7719 24.1287 10.8612C23.8566 10.9519 23.6178 11.093 23.4422 11.2184C23.3563 11.2798 23.2906 11.3337 23.2493 11.3696C23.2287 11.3874 23.2145 11.4004 23.2073 11.4072L23.2027 11.4115ZM14.8905 19.5763L17.8835 16.5024L19.3165 17.8976L16.3048 20.9907L18.4094 23.0952L21.5024 20.0836L22.8976 21.5165L19.8237 24.5095L21.2142 25.9L17.7071 29.4071L17 28.7C17.7071 29.4071 17.7064 29.4079 17.7064 29.4079L17.7056 29.4086L17.7039 29.4103L17.6999 29.4142L17.6895 29.4244C17.6815 29.4322 17.6713 29.4419 17.6591 29.4534C17.6345 29.4763 17.6016 29.5063 17.5606 29.5418C17.4789 29.6126 17.3641 29.7064 17.2203 29.8091C16.9366 30.0117 16.5191 30.2644 16.0037 30.4362C15.4841 30.6094 14.8454 30.7064 14.1461 30.5665C13.4394 30.4252 12.7416 30.0559 12.0929 29.4071L11.75 29.0642L9.4071 31.4071L7.99289 29.9929L10.3358 27.65L9.99289 27.3071L10.7 26.6C9.99289 27.3071 9.99217 27.3064 9.99217 27.3064L9.98973 27.304L9.98579 27.3L9.97562 27.2896C9.96785 27.2815 9.95813 27.2714 9.94665 27.2591C9.92372 27.2346 9.89367 27.2016 9.85817 27.1606C9.7874 27.079 9.69367 26.9641 9.59095 26.8203C9.3883 26.5366 9.13562 26.1192 8.96381 25.6038C8.79062 25.0842 8.69362 24.4454 8.83348 23.7461C8.97481 23.0394 9.34416 22.3417 9.99289 21.6929L13.5 18.1858L14.8905 19.5763ZM13.5 21.0142L11.4071 23.1071C11.0058 23.5084 10.8502 23.8606 10.7946 24.1383C10.7376 24.4234 10.7719 24.7034 10.8612 24.9713C10.9519 25.2434 11.0929 25.4822 11.2184 25.6579C11.2798 25.7437 11.3337 25.8094 11.3696 25.8508C11.3874 25.8713 11.4004 25.8855 11.4072 25.8928L11.4115 25.8973L13.5071 27.9929C13.9084 28.3942 14.2606 28.5498 14.5383 28.6054C14.8234 28.6624 15.1033 28.6282 15.3713 28.5388C15.6433 28.4482 15.8822 28.3071 16.0578 28.1816C16.1437 28.1203 16.2093 28.0663 16.2507 28.0305C16.2713 28.0127 16.2855 27.9996 16.2927 27.9928L16.2972 27.9886L18.3858 25.9L13.5 21.0142Z" fill="#0B4566"/>
</svg>
