<svg width="40" height="40" viewBox="0 0 40 40" fill="none" xmlns="http://www.w3.org/2000/svg">
<path fill-rule="evenodd" clip-rule="evenodd" d="M22.1236 25.7836C19.8609 28.0462 17.4097 26.7265 16.4668 25.7837L10.8206 31.4487L9.40399 30.0369L15.0526 24.3694C12.7899 22.1067 14.1097 19.6553 15.0525 18.7125L19.2951 14.4698C21.5579 12.2071 24.0092 13.527 24.952 14.4698L30.3375 9.10334L31.7492 10.5201L26.3662 15.8841C28.629 18.1468 27.309 20.5981 26.3662 21.5409L22.1236 25.7836ZM22.1236 22.9551L20.7094 24.3693C20.0389 25.0398 19.5087 25.0746 19.1215 25.0116C18.6103 24.9284 18.126 24.6144 17.8809 24.3693L16.4667 22.9551C15.7963 22.2847 15.7614 21.7545 15.8244 21.3673C15.9077 20.8561 16.2216 20.3718 16.4667 20.1267L17.8809 18.7125L22.1236 22.9551ZM19.2951 17.2983L23.5378 21.5409L24.952 20.1267C25.1971 19.8816 25.5111 19.3973 25.5943 18.8861C25.6573 18.4989 25.6224 17.9687 24.952 17.2983L23.5378 15.8841C23.2927 15.639 22.8084 15.325 22.2972 15.2418C21.91 15.1788 21.3798 15.2136 20.7094 15.8841L19.2951 17.2983Z" fill="colorPrimary"/>
<path d="M12.9312 13.7627L14.3454 12.3485L16.4667 14.4698L15.0525 15.884L12.9312 13.7627Z" fill="colorPrimary"/>
<path d="M9.4557 19.6437L9.97334 17.7119L12.8711 18.4883L12.3535 20.4202L9.4557 19.6437Z" fill="colorPrimary"/>
<path d="M18.2945 9.39068L20.2264 8.87305L21.0028 11.7708L19.071 12.2885L18.2945 9.39068Z" fill="colorPrimary"/>
</svg>
