<svg width="40" height="40" viewBox="0 0 40 40" fill="none" xmlns="http://www.w3.org/2000/svg">
<path d="M27.1111 23H24.7778V24.6H27.1111C28.3556 24.6 29.4444 25.72 29.4444 27C29.4444 28.28 28.3556 29.4 27.1111 29.4H24.7778V31H27.1111C29.2889 31 31 29.24 31 27C31 24.76 29.2889 23 27.1111 23ZM23.2222 29.4H20.8889C19.5667 29.4 18.5556 28.28 18.5556 27C18.5556 25.72 19.5667 24.6 20.8889 24.6H23.2222V23H20.8889C18.7111 23 17 24.76 17 27C17 29.24 18.7111 31 20.8889 31H23.2222V29.4ZM21.6667 26.2H26.3333V27.8H21.6667V26.2Z" fill="#0B4566"/>
<path fill-rule="evenodd" clip-rule="evenodd" d="M19 10C24.5228 10 29 11.0989 29 12.4546V21H27.1818V19.0417C26.7257 19.2002 26.194 19.3362 25.6141 19.4521C23.8966 19.7953 21.5612 20 19 20C16.4388 20 14.1034 19.7953 12.3859 19.4521C11.806 19.3362 11.2743 19.2002 10.8182 19.0417V22.5122C10.8625 22.5403 10.9251 22.5757 11.0107 22.6164C11.3709 22.7875 11.9509 22.9655 12.7422 23.1237C13.393 23.2538 14.1545 23.3642 15 23.4489V25.2756C14.03 25.1837 13.1472 25.0588 12.3859 24.9066C11.806 24.7907 11.2743 24.6548 10.8182 24.4962V27.3622C11.1258 27.5185 11.6292 27.7042 12.3536 27.8819C13.0976 28.0644 13.9923 28.2188 15 28.3326V30.1616C11.4602 29.7853 9 28.9225 9 27.9091V12.4546C9 11.0989 13.4772 10 19 10ZM27.4626 11.7269C27.4646 11.7271 27.4534 11.7385 27.4229 11.7604C27.4454 11.7376 27.4606 11.7266 27.4626 11.7269ZM25.5124 12.4545C23.888 12.0712 21.5922 11.8182 19 11.8182C16.4078 11.8182 14.112 12.0712 12.4876 12.4545C14.112 12.8379 16.4078 13.0909 19 13.0909C21.5922 13.0909 23.888 12.8379 25.5124 12.4545ZM10.5374 11.7269C10.5394 11.7266 10.5546 11.7376 10.5771 11.7604C10.5466 11.7385 10.5354 11.7271 10.5374 11.7269ZM10.8182 17.0577V13.8662C12.6279 14.497 15.6179 14.9091 19 14.9091C22.3821 14.9091 25.3721 14.497 27.1818 13.8662V17.0577C27.1375 17.0858 27.0749 17.1211 26.9893 17.1618C26.6291 17.3329 26.0491 17.511 25.2578 17.6691C23.6902 17.9824 21.4801 18.1818 19 18.1818C16.5199 18.1818 14.3098 17.9824 12.7422 17.6691C11.9509 17.511 11.3709 17.3329 11.0107 17.1618C10.9251 17.1211 10.8625 17.0858 10.8182 17.0577ZM10.5414 27.1891C10.5414 27.1891 10.558 27.1994 10.5796 27.2214C10.5503 27.2003 10.5414 27.1891 10.5414 27.1891Z" fill="#0B4566"/>
</svg>
