<svg width="40" height="40" viewBox="0 0 40 40" fill="none" xmlns="http://www.w3.org/2000/svg">
<path fill-rule="evenodd" clip-rule="evenodd" d="M22.2 10.3999L23.8 11.5999L22 13.9999L27 13.9999C28.9259 13.9999 30.2261 14.8248 31.0115 15.9156C31.7602 16.9554 32 18.1732 32 18.9999V21.9999C32 23.9258 31.1751 25.226 30.0843 26.0114C29.0445 26.7601 27.8267 26.9999 27 26.9999H24V24.9999H27C27.5066 24.9999 28.2889 24.8397 28.9157 24.3884C29.4915 23.9738 30 23.274 30 21.9999V18.9999C30 18.4933 29.8398 17.711 29.3885 17.0842C28.9739 16.5084 28.2741 15.9999 27 15.9999L22 15.9999L23.8 18.3999L22.2 19.5999L18.75 14.9999L22.2 10.3999ZM11.0843 16.6114C10.5085 17.026 10 17.7258 10 18.9999V21.9999C10 22.5065 10.1602 23.2888 10.6115 23.9156C11.0261 24.4914 11.7259 24.9999 13 24.9999H18L16.2 22.5999L17.8 21.3999L21.25 25.9999L17.8 30.5999L16.2 29.3999L18 26.9999H13C11.0741 26.9999 9.77386 26.175 8.98847 25.0842C8.23978 24.0444 8 22.8266 8 21.9999V18.9999C8 17.074 8.82487 15.7738 9.9157 14.9884C10.9555 14.2397 12.1733 13.9999 13 13.9999H16V15.9999H13C12.4934 15.9999 11.7111 16.1601 11.0843 16.6114Z" fill="#0B4566"/>
</svg>
