<svg width="40" height="40" viewBox="0 0 40 40" fill="none" xmlns="http://www.w3.org/2000/svg">
<path d="M15.4 10L15.8 12H21V18H17.6L17.2 16H10V10H15.4ZM17 8H8V25H10V18H15.6L16 20H23V10H17.4L17 8Z" fill="colorPrimary"/>
<path d="M16 26C16 27.1046 15.1046 28 14 28C12.8954 28 12 27.1046 12 26C12 24.8954 12.8954 24 14 24C15.1046 24 16 24.8954 16 26Z" fill="colorPrimary"/>
<path d="M32 26C32 27.1046 31.1046 28 30 28C28.8954 28 28 27.1046 28 26C28 24.8954 28.8954 24 30 24C31.1046 24 32 24.8954 32 26Z" fill="colorPrimary"/>
<path fill-rule="evenodd" clip-rule="evenodd" d="M15 27H14V25H15V27ZM19 27H17V25H19V27ZM23 27H21V25H23V27ZM27 27H25V25H27V27ZM30 27H29V25H30V27Z" fill="colorPrimary"/>
</svg>
