<svg width="40" height="40" viewBox="0 0 40 40" fill="none" xmlns="http://www.w3.org/2000/svg">
<path fill-rule="evenodd" clip-rule="evenodd" d="M9 11.7V28.7C9 30.2 13.9 31.4 20 31.4C26.1 31.4 31 30.2 31 28.7V11.7H29V28.0984C28.6616 28.2703 28.1078 28.4747 27.3111 28.6701C25.5217 29.109 22.9396 29.4 20 29.4C17.0604 29.4 14.4783 29.109 12.6889 28.6701C11.8922 28.4747 11.3384 28.2703 11 28.0984V11.7H9ZM10.6956 27.908C10.6977 27.9078 10.7138 27.9194 10.7375 27.9436C10.7054 27.9204 10.6935 27.9083 10.6956 27.908ZM29.3044 27.908C29.3065 27.9083 29.2946 27.9204 29.2625 27.9436C29.2862 27.9194 29.3023 27.9078 29.3044 27.908Z" fill="#0B4566"/>
<path fill-rule="evenodd" clip-rule="evenodd" d="M29.3089 10.8995C29.3111 10.8998 29.2987 10.9124 29.2652 10.9365C29.2899 10.9113 29.3067 10.8993 29.3089 10.8995ZM27.1637 11.7C25.3768 11.2783 22.8514 11 20 11C17.1486 11 14.6232 11.2783 12.8363 11.7C14.6232 12.1217 17.1486 12.4 20 12.4C22.8514 12.4 25.3768 12.1217 27.1637 11.7ZM10.6911 10.8995C10.6933 10.8993 10.7101 10.9113 10.7348 10.9365C10.7012 10.9124 10.6889 10.8998 10.6911 10.8995ZM10.6911 12.5005C10.6889 12.5002 10.7012 12.4876 10.7348 12.4635C10.7101 12.4887 10.6933 12.5007 10.6911 12.5005ZM29.2652 12.4636C29.2988 12.4876 29.3111 12.5002 29.3089 12.5005C29.3067 12.5007 29.2899 12.4887 29.2652 12.4636ZM31 11.7C31 13.1912 26.0751 14.4 20 14.4C13.9249 14.4 9 13.1912 9 11.7C9 10.2088 13.9249 9 20 9C26.0751 9 31 10.2088 31 11.7Z" fill="#0B4566"/>
<path d="M29 20.7665C27.6279 19.6625 25.8876 19 24 19V16L20 20L24 24V21C26.0806 21 27.9227 22.0733 29 23.6936V20.7665Z" fill="#0B4566"/>
<path d="M11 23.2335C12.3721 24.3375 14.1124 25 16 25V28L20 24L16 20V23C13.9194 23 12.0773 21.9267 11 20.3064V23.2335Z" fill="#0B4566"/>
</svg>
