<svg width="40" height="40" viewBox="0 0 40 40" fill="none" xmlns="http://www.w3.org/2000/svg">
<path d="M26 23H28V31H26V23Z" fill="colorPrimary"/>
<path d="M23 28V26H31V28H23Z" fill="colorPrimary"/>
<path fill-rule="evenodd" clip-rule="evenodd" d="M13.3 30.2L9 17.1L20.2 9L31.4 17.1L29.7399 22.1599L28 21L28.9 18.2L18.3 19.8L22.5 24.5L21.6963 25.1698L17.5 20.5L15.1 28.3H21.4333L22.0667 30.2H13.3ZM28.2 17.3L20.3 11.6L18.1 18.8L28.2 17.3ZM19 12.3L11.9 17.5L17 18.8L19 12.3ZM16.7 19.8L11.5 18.4L14.4 27.3L16.7 19.8Z" fill="colorPrimary"/>
</svg>
