<svg width="40" height="40" viewBox="0 0 40 40" fill="none" xmlns="http://www.w3.org/2000/svg">
<path fill-rule="evenodd" clip-rule="evenodd" d="M30 11.4546C30 10.0989 25.5228 9 20 9C14.4772 9 10 10.0989 10 11.4546V26.9091C10 28.2727 14.4545 29.3636 20 29.3636V27.5455C17.3276 27.5455 14.9803 27.2809 13.3536 26.8819C12.6292 26.7042 12.1258 26.5185 11.8182 26.3622V23.4962C12.2743 23.6548 12.806 23.7907 13.3859 23.9066C15.1034 24.2499 17.4388 24.4545 20 24.4545V22.6364C17.5199 22.6364 15.3098 22.437 13.7422 22.1237C12.9509 21.9655 12.3709 21.7875 12.0107 21.6164C11.9251 21.5757 11.8625 21.5403 11.8182 21.5122V18.0417C12.2743 18.2002 12.806 18.3362 13.3859 18.4521C15.1034 18.7953 17.4388 19 20 19C22.5612 19 24.8966 18.7953 26.6141 18.4521C27.194 18.3362 27.7257 18.2002 28.1818 18.0417V20H30V11.4546ZM28.4626 10.7269C28.4646 10.7271 28.4534 10.7385 28.4229 10.7604C28.4454 10.7376 28.4606 10.7266 28.4626 10.7269ZM20 10.8182C22.5922 10.8182 24.888 11.0712 26.5124 11.4545C24.888 11.8379 22.5922 12.0909 20 12.0909C17.4078 12.0909 15.112 11.8379 13.4876 11.4545C15.112 11.0712 17.4078 10.8182 20 10.8182ZM11.5374 10.7269C11.5394 10.7266 11.5546 10.7376 11.5771 10.7604C11.5466 10.7385 11.5354 10.7271 11.5374 10.7269ZM11.8182 12.8662V16.0577C11.8625 16.0858 11.9251 16.1211 12.0107 16.1618C12.3709 16.3329 12.9509 16.511 13.7422 16.6691C15.3098 16.9824 17.5199 17.1818 20 17.1818C22.4801 17.1818 24.6902 16.9824 26.2578 16.6691C27.0491 16.511 27.6291 16.3329 27.9893 16.1618C28.0749 16.1211 28.1375 16.0858 28.1818 16.0577V12.8662C26.3721 13.497 23.3821 13.9091 20 13.9091C16.6179 13.9091 13.6279 13.497 11.8182 12.8662ZM11.5414 26.1891C11.5414 26.1891 11.558 26.1994 11.5796 26.2214C11.5503 26.2003 11.5414 26.1891 11.5414 26.1891Z" fill="#0B4566"/>
<path fill-rule="evenodd" clip-rule="evenodd" d="M31.742 26.5C31.742 26.687 31.725 26.863 31.7024 27.039L32.8954 27.9465C33.0029 28.029 33.0311 28.1775 32.9633 28.2985L31.8324 30.2015C31.7815 30.2895 31.6854 30.339 31.5893 30.339C31.5554 30.339 31.5215 30.3335 31.4875 30.3225L30.0796 29.7725C29.7856 29.987 29.4689 30.174 29.124 30.3115L28.9092 31.769C28.8922 31.901 28.7735 32 28.6321 32H26.3704C26.229 32 26.1103 31.901 26.0933 31.769L25.8785 30.3115C25.5336 30.174 25.2169 29.9925 24.9229 29.7725L23.515 30.3225C23.4867 30.3335 23.4528 30.339 23.4188 30.339C23.3171 30.339 23.2209 30.2895 23.1701 30.2015L22.0392 28.2985C21.9714 28.1775 21.9996 28.029 22.1071 27.9465L23.3001 27.039C23.2775 26.863 23.2605 26.6815 23.2605 26.5C23.2605 26.3185 23.2775 26.137 23.3001 25.961L22.1071 25.0535C21.9996 24.971 21.9657 24.8225 22.0392 24.7015L23.1701 22.7985C23.2209 22.7105 23.3171 22.661 23.4132 22.661C23.4471 22.661 23.481 22.6665 23.515 22.6775L24.9229 23.2275C25.2169 23.013 25.5336 22.826 25.8785 22.6885L26.0933 21.231C26.1103 21.099 26.229 21 26.3704 21H28.6321C28.7735 21 28.8922 21.099 28.9092 21.231L29.124 22.6885C29.4689 22.826 29.7856 23.0075 30.0796 23.2275L31.4875 22.6775C31.5158 22.6665 31.5497 22.661 31.5836 22.661C31.6854 22.661 31.7815 22.7105 31.8324 22.7985L32.9633 24.7015C33.0311 24.8225 33.0029 24.971 32.8954 25.0535L31.7024 25.961C31.725 26.137 31.742 26.313 31.742 26.5ZM25.5776 26.5C25.5776 25.4379 26.4379 24.5776 27.5 24.5776C28.5621 24.5776 29.4224 25.4379 29.4224 26.5C29.4224 27.5621 28.5621 28.4224 27.5 28.4224C26.4379 28.4224 25.5776 27.5621 25.5776 26.5Z" fill="#0B4566"/>
</svg>
