<svg width="40" height="40" viewBox="0 0 40 40" fill="none" xmlns="http://www.w3.org/2000/svg">
<path d="M19.9999 16.3889L25.5554 19.4445L19.9999 22.5L14.4443 19.4445L19.9999 16.3889Z" fill="#BBE5F9" stroke="#0B4566" stroke-width="0.33"/>
<path d="M19.9999 22.5L25.5554 25.5556L19.9999 28.6111L14.4443 25.5556L19.9999 22.5Z" fill="#BBE5F9" stroke="#0B4566" stroke-width="0.33"/>
<path d="M19.9999 28.6111L25.5554 31.6666L19.9999 34.7222L14.4443 31.6666L19.9999 28.6111Z" fill="#BBE5F9" stroke="#0B4566" stroke-width="0.33"/>
<path d="M25.5556 25.5555L31.1111 28.6111L25.5556 31.6667L20 28.6111L25.5556 25.5555Z" fill="#BBE5F9" stroke="#0B4566" stroke-width="0.33"/>
<path d="M25.5556 19.4445L31.1111 22.5L25.5556 25.5556L20 22.5L25.5556 19.4445Z" fill="#BBE5F9" stroke="#0B4566" stroke-width="0.33"/>
<path d="M31.111 22.5L36.6665 25.5556L31.111 28.6111L25.5554 25.5556L31.111 22.5Z" fill="#BBE5F9" stroke="#0B4566" stroke-width="0.33"/>
<path d="M8.88881 22.5L14.4444 25.5556L8.88881 28.6111L3.33325 25.5556L8.88881 22.5Z" fill="#BBE5F9" stroke="#0B4566" stroke-width="0.33"/>
<path d="M14.4445 25.5555L20 28.6111L14.4445 31.6667L8.88892 28.6111L14.4445 25.5555Z" fill="#BBE5F9" stroke="#0B4566" stroke-width="0.33"/>
<path d="M14.4445 19.4445L20 22.5L14.4445 25.5556L8.88892 22.5L14.4445 19.4445Z" fill="#BBE5F9" stroke="#0B4566" stroke-width="0.33"/>
<path d="M3.33325 25.5556L19.9999 16.3889L36.6666 25.5556L19.9999 34.7222L3.33325 25.5556Z" stroke="#0B4566" stroke-width="0.7" stroke-linejoin="round"/>
<path d="M2.36108 14.7223L10.9722 18.3334L12.0833 10.5557L2.36108 14.7223Z" fill="#BBE5F9" stroke="#0B4566" stroke-width="0.5" stroke-linejoin="bevel"/>
<path d="M28.1944 10.8334L22.361 13.3334L19.5833 5.27783L28.1944 10.8334Z" fill="#DCF2FD" stroke="#0B4566" stroke-width="0.5" stroke-linejoin="bevel"/>
<path d="M17.9167 16.3889L22.3612 13.3334L27.3612 18.6112L17.9167 16.3889Z" fill="#BBE5F9" stroke="#0B4566" stroke-width="0.5" stroke-linejoin="bevel"/>
<path d="M27.3611 18.6112L22.3611 13.3334L37.6389 14.7223L27.3611 18.6112Z" fill="#DCF2FD" stroke="#0B4566" stroke-width="0.5" stroke-linejoin="bevel"/>
<path d="M37.6389 14.7223L28.1944 10.8334L22.3611 13.3334L37.6389 14.7223Z" fill="#BBE5F9" stroke="#0B4566" stroke-width="0.5" stroke-linejoin="bevel"/>
<path d="M19.5834 24.4445L27.3612 18.6111L17.9167 16.3889L19.5834 24.4445Z" fill="#DCF2FD" stroke="#0B4566" stroke-width="0.5" stroke-linejoin="bevel"/>
<path d="M10.9722 18.3334L17.9166 16.3889L19.5833 24.4445L10.9722 18.3334Z" fill="#BBE5F9" stroke="#0B4566" stroke-width="0.5" stroke-linejoin="bevel"/>
<path d="M12.0833 10.5557L17.9166 16.389L10.9722 18.3334L12.0833 10.5557Z" fill="#DCF2FD" stroke="#0B4566" stroke-width="0.5" stroke-linejoin="bevel"/>
<path d="M12.0833 10.5557L17.9166 16.389L22.3596 13.3345L12.0833 10.5557Z" fill="#DCF2FD"/>
<path d="M22.361 13.3334L22.3596 13.3345M22.3596 13.3345L17.9166 16.389L12.0833 10.5557L22.3596 13.3345Z" stroke="#0B4566" stroke-width="0.5" stroke-linejoin="bevel"/>
<path d="M12.0833 10.5556L19.5833 5.27783L22.361 13.3334L12.0833 10.5556Z" fill="#BBE5F9" stroke="#0B4566" stroke-width="0.5" stroke-linejoin="bevel"/>
<path d="M12.0833 10.5556L2.36108 14.7223L10.9722 18.3334L19.5833 24.4445L27.3611 18.6112L37.6389 14.7223L28.1944 10.8334L19.5833 5.27783L12.0833 10.5556Z" stroke="#0B4566" stroke-width="0.7" stroke-linejoin="round"/>
</svg>
