<svg width="40" height="40" viewBox="0 0 40 40" fill="none" xmlns="http://www.w3.org/2000/svg">
<path fill-rule="evenodd" clip-rule="evenodd" d="M30 10.4546C30 9.09895 25.5228 8 20 8C14.4772 8 10 9.09895 10 10.4546V25.9091C10 27.2727 14.4545 28.3636 20 28.3636V26.5455C17.3276 26.5455 14.9803 26.2809 13.3536 25.8819C12.6292 25.7042 12.1258 25.5185 11.8182 25.3622V22.4962C12.2743 22.6548 12.806 22.7907 13.3859 22.9066C15.1034 23.2499 17.4388 23.4545 20 23.4545V21.6364C17.5199 21.6364 15.3098 21.437 13.7422 21.1237C12.9509 20.9655 12.3709 20.7875 12.0107 20.6164C11.9251 20.5757 11.8625 20.5403 11.8182 20.5122V17.0417C12.2743 17.2002 12.806 17.3362 13.3859 17.4521C15.1034 17.7953 17.4388 18 20 18C22.5612 18 24.8966 17.7953 26.6141 17.4521C27.194 17.3362 27.7257 17.2002 28.1818 17.0417V19H30V10.4546ZM28.4626 9.72686C28.4646 9.7271 28.4534 9.73853 28.4229 9.76041C28.4454 9.73756 28.4606 9.72661 28.4626 9.72686ZM20 9.81818C22.5922 9.81818 24.888 10.0712 26.5124 10.4545C24.888 10.8379 22.5922 11.0909 20 11.0909C17.4078 11.0909 15.112 10.8379 13.4876 10.4545C15.112 10.0712 17.4078 9.81818 20 9.81818ZM11.5374 9.72686C11.5394 9.72661 11.5546 9.73756 11.5771 9.76041C11.5466 9.73853 11.5354 9.7271 11.5374 9.72686ZM11.8182 11.8662V15.0577C11.8625 15.0858 11.9251 15.1211 12.0107 15.1618C12.3709 15.3329 12.9509 15.511 13.7422 15.6691C15.3098 15.9824 17.5199 16.1818 20 16.1818C22.4801 16.1818 24.6902 15.9824 26.2578 15.6691C27.0491 15.511 27.6291 15.3329 27.9893 15.1618C28.0749 15.1211 28.1375 15.0858 28.1818 15.0577V11.8662C26.3721 12.497 23.3821 12.9091 20 12.9091C16.6179 12.9091 13.6279 12.497 11.8182 11.8662ZM11.5414 25.1891C11.5414 25.1891 11.558 25.1994 11.5796 25.2214C11.5503 25.2003 11.5414 25.1891 11.5414 25.1891Z" fill="#0B4566"/>
<path d="M30.01 22H26V24H30.01V27L34 23L30.01 19V22Z" fill="#0B4566"/>
<path d="M24.99 29H29V27H24.99V24L21 28L24.99 32V29Z" fill="#0B4566"/>
</svg>
