<svg width="40" height="40" viewBox="0 0 40 40" fill="none" xmlns="http://www.w3.org/2000/svg">
<path d="M13 26H27V28H13V26Z" fill="#0B4566"/>
<path d="M24 19.1057C24 20.7425 23.6612 21.9946 22.9837 22.8618C22.3062 23.729 21.3144 24.1626 20.0081 24.1626C18.7182 24.1626 17.7317 23.7371 17.0488 22.8862C16.3659 22.0352 16.0163 20.8157 16 19.2276V17.0488C16 15.3957 16.3415 14.1409 17.0244 13.2846C17.7127 12.4282 18.7019 12 19.9919 12C21.2818 12 22.2683 12.4255 22.9512 13.2764C23.6341 14.122 23.9837 15.3388 24 16.9268V19.1057ZM21.6504 16.7154C21.6504 15.7344 21.5149 15.0217 21.2439 14.5772C20.9783 14.1274 20.561 13.9024 19.9919 13.9024C19.439 13.9024 19.0298 14.1165 18.7642 14.5447C18.5041 14.9675 18.3659 15.6314 18.3496 16.5366V19.4146C18.3496 20.3794 18.4797 21.0976 18.7398 21.5691C19.0054 22.0352 19.4282 22.2683 20.0081 22.2683C20.5827 22.2683 20.9973 22.0434 21.252 21.5935C21.5068 21.1436 21.6396 20.4553 21.6504 19.5285V16.7154Z" fill="#0B4566"/>
</svg>
