<svg width="40" height="40" viewBox="0 0 40 40" fill="none" xmlns="http://www.w3.org/2000/svg">
<path d="M15.7287 9C12.1355 9 8.54236 10.4726 8.40677 11.0335C8.40677 11.1738 8.54236 11.2439 8.74575 11.2439C9.4237 11.2439 10.983 10.3323 14.305 10.3323C15.8643 10.3323 17.4913 10.6128 17.4913 11.0335C17.4913 11.3841 16.3388 11.6646 16.3388 12.1555C16.3388 12.3659 16.6778 12.5762 17.4913 12.5762C20.4743 12.5762 24.3387 13.7683 24.3387 14.9604C24.3387 15.1006 24.2031 15.2409 24.0675 15.2409C23.4573 15.2409 21.5591 14.189 18.1015 14.189C11.7287 14.189 8 18.6067 8 20.0793C8 20.5 8.20339 20.7104 8.61016 20.7104C9.83047 20.7104 10.644 19.378 13.288 19.378C15.3219 19.378 15.932 20.1494 17.1524 20.1494C17.6947 20.1494 18.2371 19.939 18.2371 19.4482C18.2371 18.6768 17.288 18.186 15.7965 17.8354C14.5083 17.5549 13.7626 17.3445 13.7626 16.7835C13.7626 15.872 15.8643 15.1006 17.9659 15.1006C25.1522 15.1006 28.2708 20.1494 28.7453 20.1494C28.8809 20.1494 28.8809 20.0793 28.8809 19.8689C28.8809 18.3963 27.1861 15.5213 25.3556 13.9787C22.6438 11.6646 20.6099 11.1738 20.6099 10.8232C20.6099 10.753 20.6777 10.753 20.8133 10.753C21.4235 10.753 24.0675 11.875 26.1691 13.8384C29.1521 16.5732 30.7792 20.8506 30.7792 24.2165C30.7792 24.9177 30.7114 25.2683 30.4402 25.2683C29.9657 25.2683 29.3555 22.7439 27.3216 20.2896C25.6268 18.186 22.7116 16.1524 19.9998 16.1524C19.3218 16.1524 18.915 16.2927 18.915 16.7134C18.915 17.8354 22.8472 18.8872 22.8472 22.9543C22.8472 23.3049 22.8472 23.5854 22.7116 23.8659C22.3726 24.9878 23.3895 26.3201 23.9997 26.1799C25.0844 25.9695 24.881 22.7439 24.9488 23.0945V23.0244C24.8132 21.7622 24.542 21.3415 24.542 20.6402C24.542 20.2195 24.7454 20.0091 25.0166 20.0091C25.4234 20.0091 26.4403 20.7104 27.5928 22.3232C28.7454 24.0061 29.5589 26.4604 29.5589 29.1951C29.5589 31.0183 29.6267 32 30.1013 32C30.847 32 31.9995 29.0549 31.9995 25.689C32.0673 16.5732 24.881 9 15.7287 9Z" fill="colorPrimary"/>
</svg>
