<svg width="180" height="180" viewBox="0 0 180 180" fill="none" xmlns="http://www.w3.org/2000/svg">
<rect width="180" height="180" fill="#0B4566"/>
<path d="M43.4472 95.6602H25V124.04C25 126.24 26.7362 128 28.9065 128H43.4472C52.3453 128 59.5071 120.74 59.5071 111.72C59.5071 102.92 52.3453 95.6602 43.4472 95.6602ZM41.928 120.08H35.6343C34.9832 120.08 34.5491 119.64 34.5491 118.98V103.8H41.711C46.0515 103.8 49.7409 107.54 49.7409 111.94C49.958 116.34 46.2685 120.08 41.928 120.08Z" fill="white"/>
<path d="M86.8524 107.76H74.0479V95.6602H64.4988V124.04C64.4988 126.24 66.235 128 68.4052 128H74.0479V118.1C74.0479 117 73.1798 116.12 72.0947 116.12C71.8777 116.12 71.8777 115.9 72.0947 115.9H87.0695V124.04C87.0695 126.24 88.8057 128 90.9759 128H96.6186V95.6602H87.0695L86.8524 107.76Z" fill="white"/>
<path d="M103.78 95.6602V124.04C103.78 126.24 105.516 128 107.687 128H113.329V95.6602H103.78Z" fill="white"/>
<path d="M102.912 51C91.41 51 79.9076 55.62 79.4735 57.38C79.4735 57.82 79.9076 58.04 80.5587 58.04C82.7289 58.04 87.7205 55.18 98.3548 55.18C103.346 55.18 108.555 56.06 108.555 57.38C108.555 58.48 104.866 59.36 104.866 60.9C104.866 61.56 105.951 62.22 108.555 62.22C118.104 62.22 130.475 65.96 130.475 69.7C130.475 70.14 130.041 70.58 129.607 70.58C127.653 70.58 121.577 67.28 110.508 67.28C90.1078 67.28 78.1714 81.14 78.1714 85.76C78.1714 87.08 78.8225 87.74 80.1246 87.74C84.0311 87.74 86.6354 83.56 95.0994 83.56C101.61 83.56 103.563 85.98 107.47 85.98C109.206 85.98 110.942 85.32 110.942 83.78C110.942 81.36 107.904 79.82 103.129 78.72C99.0059 77.84 96.6186 77.18 96.6186 75.42C96.6186 72.56 103.346 70.14 110.074 70.14C133.079 70.14 143.062 85.98 144.581 85.98C145.015 85.98 145.015 85.76 145.015 85.1C145.015 80.48 139.59 71.46 133.73 66.62C125.049 59.36 118.538 57.82 118.538 56.72C118.538 56.5 118.755 56.5 119.189 56.5C121.143 56.5 129.607 60.02 136.334 66.18C145.883 74.76 151.092 88.18 151.092 98.74C151.092 100.94 150.875 102.04 150.007 102.04C148.488 102.04 146.535 94.12 140.024 86.42C134.598 79.82 125.266 73.44 116.585 73.44C114.415 73.44 113.113 73.88 113.113 75.2C113.113 78.72 125.7 82.02 125.7 94.78C125.7 95.88 125.7 96.76 125.266 97.64C124.181 101.16 127.436 105.34 129.389 104.9C132.862 104.24 132.211 94.12 132.428 95.22V95C131.994 91.04 131.126 89.72 131.126 87.52C131.126 86.2 131.777 85.54 132.645 85.54C133.947 85.54 137.202 87.74 140.892 92.8C144.581 98.08 147.186 105.78 147.186 114.36C147.186 120.08 147.403 123.16 148.922 123.16C151.309 123.16 154.999 113.92 154.999 103.36C155.216 74.76 132.211 51 102.912 51Z" fill="white"/>
</svg>
