<svg fill="#0B4566" width="77" height="73" viewBox="0 0 77 73" xmlns="http://www.w3.org/2000/svg">
    <path d="M24.9128 0C13.4105 0 1.90808 4.62 1.47403 6.38C1.47403 6.82 1.90808 7.04 2.55916 7.04C4.72942 7.04 9.72101 4.18 20.3553 4.18C25.3469 4.18 30.5555 5.06 30.5555 6.38C30.5555 7.48 26.8661 8.36 26.8661 9.9C26.8661 10.56 27.9512 11.22 30.5555 11.22C40.1046 11.22 52.4751 14.96 52.4751 18.7C52.4751 19.14 52.0411 19.58 51.607 19.58C49.6538 19.58 43.577 16.28 32.5087 16.28C12.1083 16.28 0.171875 30.14 0.171875 34.76C0.171875 36.08 0.822952 36.74 2.12511 36.74C6.03157 36.74 8.63588 32.56 17.0999 32.56C23.6107 32.56 25.5639 34.98 29.4704 34.98C31.2066 34.98 32.9428 34.32 32.9428 32.78C32.9428 30.36 29.9044 28.82 25.1298 27.72C21.0064 26.84 18.6191 26.18 18.6191 24.42C18.6191 21.56 25.3469 19.14 32.0747 19.14C55.0794 19.14 65.0626 34.98 66.5818 34.98C67.0158 34.98 67.0158 34.76 67.0158 34.1C67.0158 29.48 61.5902 20.46 55.7305 15.62C47.0495 8.36 40.5387 6.82 40.5387 5.72C40.5387 5.5 40.7557 5.5 41.1898 5.5C43.143 5.5 51.607 9.02 58.3348 15.18C67.8839 23.76 73.0926 37.18 73.0926 47.74C73.0926 49.94 72.8755 51.04 72.0074 51.04C70.4883 51.04 68.535 43.12 62.0242 35.42C56.5986 28.82 47.2665 22.44 38.5855 22.44C36.4152 22.44 35.113 22.88 35.113 24.2C35.113 27.72 47.7005 31.02 47.7005 43.78C47.7005 44.88 47.7005 45.76 47.2665 46.64C46.1814 50.16 49.4367 54.34 51.39 53.9C54.8624 53.24 54.2113 43.12 54.4283 44.22V44C53.9943 40.04 53.1262 38.72 53.1262 36.52C53.1262 35.2 53.7773 34.54 54.6454 34.54C55.9475 34.54 59.2029 36.74 62.8923 41.8C66.5818 47.08 69.1861 54.78 69.1861 63.36C69.1861 69.08 69.4031 72.16 70.9223 72.16C73.3096 72.16 76.999 62.92 76.999 52.36C77.2161 23.76 54.2113 0 24.9128 0Z" />
</svg>