<svg width="40" height="40" viewBox="0 0 40 40" fill="none" xmlns="http://www.w3.org/2000/svg">
<path fill-rule="evenodd" clip-rule="evenodd" d="M13.9913 30.2549C15.1629 29.0833 15.1629 27.1838 13.9913 26.0123C12.8197 24.8407 10.9202 24.8407 9.74867 26.0123C8.5771 27.1838 8.5771 29.0833 9.74867 30.2549C10.9202 31.4265 12.8197 31.4265 13.9913 30.2549ZM12.9307 29.1942C13.5164 28.6084 13.5164 27.6587 12.9307 27.0729C12.3449 26.4871 11.3951 26.4871 10.8093 27.0729C10.2235 27.6587 10.2235 28.6084 10.8093 29.1942C11.3951 29.78 12.3449 29.78 12.9307 29.1942Z" fill="colorPrimary"/>
<path d="M17.8804 23.5374L15.4055 26.0123L13.9913 24.598L16.4662 22.1232L17.8804 23.5374Z" fill="colorPrimary"/>
<path d="M22.123 19.2947L19.2946 22.1232L17.8804 20.709L20.7088 17.8805L22.123 19.2947Z" fill="colorPrimary"/>
<path d="M23.5373 17.8805L26.0121 15.4057L24.5979 13.9914L22.123 16.4663L23.5373 17.8805Z" fill="colorPrimary"/>
<path fill-rule="evenodd" clip-rule="evenodd" d="M30.2548 9.7488C31.4263 10.9204 31.4263 12.8199 30.2548 13.9914C29.0832 15.163 27.1837 15.163 26.0121 13.9914C24.8406 12.8199 24.8406 10.9204 26.0121 9.7488C27.1837 8.57722 29.0832 8.57722 30.2548 9.7488ZM29.1941 10.8095C29.7799 11.3952 29.7799 12.345 29.1941 12.9308C28.6083 13.5166 27.6586 13.5166 27.0728 12.9308C26.487 12.345 26.487 11.3952 27.0728 10.8095C27.6586 10.2237 28.6083 10.2237 29.1941 10.8095Z" fill="colorPrimary"/>
</svg>
