<svg width="40" height="40" viewBox="0 0 40 40" fill="none" xmlns="http://www.w3.org/2000/svg">
<path d="M20.48 18.9C18.21 18.31 17.48 17.7 17.48 16.75C17.48 15.66 18.49 14.9 20.18 14.9C21.96 14.9 22.62 15.75 22.68 17H24.89C24.82 15.28 23.77 13.7 21.68 13.19V11H18.68V13.16C16.74 13.58 15.18 14.84 15.18 16.77C15.18 19.08 17.09 20.23 19.88 20.9C22.38 21.5 22.88 22.38 22.88 23.31C22.88 24 22.39 25.1 20.18 25.1C18.12 25.1 17.31 24.18 17.2 23H15C15.12 25.19 16.76 26.42 18.68 26.83V29H21.68V26.85C23.63 26.48 25.18 25.35 25.18 23.3C25.18 20.46 22.75 19.49 20.48 18.9Z" fill="#0B4566"/>
</svg>
