<svg width="40" height="40" viewBox="0 0 40 40" fill="none" xmlns="http://www.w3.org/2000/svg">
<path d="M17.6 17.1C18.1 17.6 18.7 18.2 20 18.2C21.3 18.2 21.8 17.6 22.4 17.1C22.9 16.6 23.3 16.2 24 16.2C24.7 16.2 25.2 16.6 25.6 17.1C26.1 17.6 26.7 18.2 28 18.2C29.3 18.2 29.8 17.6 30.4 17.1C30.9 16.6 31.3 16.2 32 16.2V15.2C30.8 15.2 30.2 15.8 29.6 16.3C29.1 16.8 28.7 17.2 28 17.2C27.3 17.2 26.8 16.8 26.4 16.3C25.9 15.8 25.3 15.2 24 15.2C22.7 15.2 22.2 15.8 21.6 16.3C21.1 16.8 20.7 17.2 20 17.2C19.3 17.2 18.8 16.8 18.4 16.3C18 16 17.6 15.6 17 15.4V11H11V27H8V29H13V13H15V29H32V27H17V20.5C17.2 20.6 17.4 20.8 17.6 21.1C18.1 21.6 18.7 22.2 20 22.2C21.3 22.2 21.8 21.6 22.4 21.1C22.9 20.6 23.3 20.2 24 20.2C24.7 20.2 25.2 20.6 25.6 21.1C26.1 21.6 26.7 22.2 28 22.2C29.3 22.2 29.8 21.6 30.4 21.1C30.9 20.6 31.3 20.2 32 20.2V19.2C30.8 19.2 30.2 19.8 29.6 20.3C29.1 20.8 28.7 21.2 28 21.2C27.3 21.2 26.8 20.8 26.4 20.3C25.9 19.8 25.3 19.2 24 19.2C22.7 19.2 22.2 19.8 21.6 20.3C21.1 20.8 20.7 21.2 20 21.2C19.3 21.2 18.8 20.8 18.4 20.3C18 20 17.6 19.6 17 19.4V16.5C17.2 16.6 17.4 16.8 17.6 17.1Z" fill="colorPrimary"/>
</svg>
