<svg width="40" height="40" viewBox="0 0 40 40" fill="none" xmlns="http://www.w3.org/2000/svg">
<path d="M28 21.83L28.92 22.75L21.92 30H21V29.08L28 21.83ZM28 19L19 28.25V32H22.75L31.75 22.75L28 19Z" fill="#0B4566"/>
<path fill-rule="evenodd" clip-rule="evenodd" d="M8 10C8 8.89543 8.89543 8 10 8H30C31.1046 8 32 8.89543 32 10V17.7059H30V10L10 10V28H17V30H10C8.89543 30 8 29.1046 8 28V10Z" fill="#0B4566"/>
<path fill-rule="evenodd" clip-rule="evenodd" d="M16 22H14V24H16V22ZM12 20V26H18V20H12Z" fill="#0B4566"/>
<path fill-rule="evenodd" clip-rule="evenodd" d="M16 14H14V16H16V14ZM12 12V18H18V12H12Z" fill="#0B4566"/>
</svg>
