<svg width="40" height="40" viewBox="0 0 40 40" fill="none" xmlns="http://www.w3.org/2000/svg">
<path d="M26.2725 24.0075L26.6175 24.3525L23.22 27.75H22.875V27.405L26.2725 24.0075ZM27.6225 21.75C27.5288 21.75 27.4312 21.7875 27.36 21.8587L26.6738 22.545L28.08 23.9512L28.7663 23.265C28.9125 23.1188 28.9125 22.8825 28.7663 22.7363L27.8888 21.8587C27.8138 21.7837 27.72 21.75 27.6225 21.75ZM26.2725 22.9463L22.125 27.0938V28.5H23.5313L27.6788 24.3525L26.2725 22.9463Z" fill="colorPrimary"/>
<path fill-rule="evenodd" clip-rule="evenodd" d="M21.5 9H27V14.5H21.5V9ZM20.5 9H15.5V14.5H20.5V9ZM14.5 9H9V14.5L14.5 14.5V9ZM9 15.5V20.5H14.5V15.5H9ZM9 21.5V27H14.5V21.5H9ZM19 21.5V20.5H15.5V15.5H20.5V19H21.5V15.5H27V19H29V7H7V29H19V27H15.5V21.5H19Z" fill="colorPrimary"/>
</svg>
