<svg
  width="40"
  height="40"
  viewbox="0 0 40 40"
  fill="var(--BrandBlue--default)"
  xmlns="http://www.w3.org/2000/svg"
>
  <path d="M13.7 27.3l-.1-.2 1-7.6 3.7 3.3c.1-.3.3-.7.4-1l-3.4-3 12.5-1.6-.4 1.3c.6.2 1.2.6 1.8 1l1.1-3.3L19.2 8 8 16.1l4.3 13.1h7.2c-.5-.6-.8-1.3-1.1-2h-4.7v.1zm5.5-16.8l8 5.8-12 1.5 3.8-7.2.2-.1zm-2 1.4l-3.1 5.9-3.3-1.2 6.4-4.7zm-6.6 5.6l3.2 1.2-.8 6.2-2.4-7.4z" />
  <path d="M29.702 26.039c.023-.176.04-.352.04-.539 0-.187-.017-.363-.04-.539l1.193-.907a.272.272 0 0 0 .068-.352l-1.13-1.904a.284.284 0 0 0-.25-.137.27.27 0 0 0-.095.016l-1.408.55a4.16 4.16 0 0 0-.956-.538l-.215-1.458a.273.273 0 0 0-.277-.231H24.37a.273.273 0 0 0-.277.231l-.215 1.457a4.375 4.375 0 0 0-.955.54l-1.408-.55a.329.329 0 0 0-.102-.017.282.282 0 0 0-.243.137l-1.13 1.904a.266.266 0 0 0 .067.351l1.193.908c-.023.176-.04.358-.04.539 0 .181.017.363.04.539l-1.193.907a.272.272 0 0 0-.068.352l1.131 1.904c.051.087.147.137.249.137a.271.271 0 0 0 .096-.016l1.408-.55c.294.22.61.401.956.538l.214 1.458a.273.273 0 0 0 .277.231h2.262c.141 0 .26-.099.277-.231l.215-1.457c.345-.138.662-.325.956-.54l1.408.55a.329.329 0 0 0 .101.017c.096 0 .193-.05.243-.137l1.131-1.904a.272.272 0 0 0-.068-.351l-1.193-.908zm-1.12-.94a2.848 2.848 0 0 1 0 .802l-.078.622.503.385.61.462-.395.665-.718-.28-.588-.231-.51.374a3.334 3.334 0 0 1-.706.401l-.6.237-.09.621-.113.743h-.792l-.198-1.364-.599-.237a3.233 3.233 0 0 1-.695-.39l-.515-.385-.6.236-.717.281-.396-.666.61-.462.504-.384-.08-.622a4.294 4.294 0 0 1-.028-.407c0-.11.012-.236.029-.401l.079-.622-.503-.385-.611-.462.396-.665.718.28.588.231.509-.374c.243-.176.475-.308.706-.401l.6-.237.09-.621.113-.743h.786l.198 1.364.6.237c.243.098.469.225.695.39l.515.385.599-.236.718-.281.396.666-.605.467-.503.385.079.622z" />
  <path d="M25.501 23.3c-1.25 0-2.262.985-2.262 2.2 0 1.215 1.013 2.2 2.262 2.2 1.25 0 2.262-.985 2.262-2.2 0-1.215-1.012-2.2-2.262-2.2zm0 3.3c-.622 0-1.13-.495-1.13-1.1 0-.605.508-1.1 1.13-1.1.622 0 1.131.495 1.131 1.1 0 .605-.509 1.1-1.13 1.1z"/>
</svg>
