<svg width="40" height="40" viewBox="0 0 40 40" fill="none" xmlns="http://www.w3.org/2000/svg">
<path d="M23.5 19C24.3284 19 25 18.3284 25 17.5C25 16.6716 24.3284 16 23.5 16C22.6716 16 22 16.6716 22 17.5C22 18.3284 22.6716 19 23.5 19Z" fill="#0B4566"/>
<path d="M16.5 19C17.3284 19 18 18.3284 18 17.5C18 16.6716 17.3284 16 16.5 16C15.6716 16 15 16.6716 15 17.5C15 18.3284 15.6716 19 16.5 19Z" fill="#0B4566"/>
<path d="M20 24C18.5 24 17.2 23.2 16.6 22H14.9C15.7 24 17.7 25.5 20 25.5C22.3 25.5 24.3 24 25.1 22H23.4C22.8 23.2 21.5 24 20 24Z" fill="#0B4566"/>
<path d="M20 10C14.5 10 10 14.5 10 20C10 25.5 14.5 30 20 30C25.5 30 30 25.5 30 20C30 14.5 25.5 10 20 10ZM20 28C15.6 28 12 24.4 12 20C12 15.6 15.6 12 20 12C24.4 12 28 15.6 28 20C28 24.4 24.4 28 20 28Z" fill="#0B4566"/>
</svg>
