<svg width="40" height="40" viewBox="0 0 40 40" fill="none" xmlns="http://www.w3.org/2000/svg">
<path d="M8 28V30H28V28H8Z" fill="colorPrimary"/>
<path fill-rule="evenodd" clip-rule="evenodd" d="M15.8284 22.7279L20.0711 26.9705L29.9706 17.071L25.7279 12.8284L15.8284 22.7279ZM18.6569 28.3847C19.4379 29.1658 20.7042 29.1658 21.4853 28.3847L31.3848 18.4852C32.1658 17.7042 32.1658 16.4378 31.3848 15.6568L27.1421 11.4142C26.3611 10.6331 25.0948 10.6331 24.3137 11.4142L14.4142 21.3137C13.6332 22.0947 13.6332 23.361 14.4142 24.1421L18.6569 28.3847Z" fill="colorPrimary"/>
<path d="M26.435 22.1629L20.7782 16.506L25.7279 11.5563L31.3848 17.2132L26.435 22.1629Z" fill="colorPrimary"/>
</svg>
