<svg width="40" height="40" viewBox="0 0 40 40" fill="none" xmlns="http://www.w3.org/2000/svg">
<path d="M13.6973 21.0215C13.1823 21.5273 12.5807 21.7803 11.8926 21.7803C11.013 21.7803 10.3089 21.4795 9.78027 20.8779C9.25163 20.2718 8.9873 19.4561 8.9873 18.4307C8.9873 17.779 9.12858 17.182 9.41113 16.6396C9.69824 16.0928 10.097 15.6689 10.6074 15.3682C11.1178 15.0628 11.6921 14.9102 12.3301 14.9102C12.9863 14.9102 13.5697 15.0742 14.0801 15.4023C14.5905 15.7305 14.987 16.2021 15.2695 16.8174C15.5521 17.4326 15.6956 18.1367 15.7002 18.9297V19.6611C15.7002 21.32 15.2878 22.6234 14.4629 23.5713C13.638 24.5192 12.4691 25.0251 10.9561 25.0889L10.4707 25.0957V23.4482L10.9082 23.4414C12.6263 23.3639 13.556 22.5573 13.6973 21.0215ZM12.3779 20.2695C12.6969 20.2695 12.9704 20.1875 13.1982 20.0234C13.4307 19.8594 13.6061 19.6611 13.7246 19.4287V18.6152C13.7246 17.9453 13.597 17.4258 13.3418 17.0566C13.0866 16.6875 12.7448 16.5029 12.3164 16.5029C11.9199 16.5029 11.5941 16.6852 11.3389 17.0498C11.0837 17.4098 10.9561 17.8633 10.9561 18.4102C10.9561 18.9525 11.0791 19.3991 11.3252 19.75C11.5758 20.0964 11.9268 20.2695 12.3779 20.2695ZM21.7363 21.0215C21.2214 21.5273 20.6198 21.7803 19.9316 21.7803C19.0521 21.7803 18.348 21.4795 17.8193 20.8779C17.2907 20.2718 17.0264 19.4561 17.0264 18.4307C17.0264 17.779 17.1676 17.182 17.4502 16.6396C17.7373 16.0928 18.1361 15.6689 18.6465 15.3682C19.1569 15.0628 19.7311 14.9102 20.3691 14.9102C21.0254 14.9102 21.6087 15.0742 22.1191 15.4023C22.6296 15.7305 23.026 16.2021 23.3086 16.8174C23.5911 17.4326 23.7347 18.1367 23.7393 18.9297V19.6611C23.7393 21.32 23.3268 22.6234 22.502 23.5713C21.6771 24.5192 20.5081 25.0251 18.9951 25.0889L18.5098 25.0957V23.4482L18.9473 23.4414C20.6654 23.3639 21.5951 22.5573 21.7363 21.0215ZM20.417 20.2695C20.736 20.2695 21.0094 20.1875 21.2373 20.0234C21.4697 19.8594 21.6452 19.6611 21.7637 19.4287V18.6152C21.7637 17.9453 21.6361 17.4258 21.3809 17.0566C21.1257 16.6875 20.7839 16.5029 20.3555 16.5029C19.959 16.5029 19.6331 16.6852 19.3779 17.0498C19.1227 17.4098 18.9951 17.8633 18.9951 18.4102C18.9951 18.9525 19.1182 19.3991 19.3643 19.75C19.6149 20.0964 19.9658 20.2695 20.417 20.2695ZM28.0527 19.8115L29.2969 17.6035H31.4092L29.3037 21.2266L31.498 25H29.3789L28.0596 22.6758L26.7471 25H24.6211L26.8154 21.2266L24.7168 17.6035H26.8359L28.0527 19.8115Z" fill="#0B4566"/>
</svg>
