<svg width="40" height="40" viewBox="0 0 40 40" fill="none" xmlns="http://www.w3.org/2000/svg">
<path d="M24.0067 12L27.0067 15L24.0067 18V16C21.2452 16 19.0067 18.2386 19.0067 21H17.0067C17.0067 17.134 20.1407 14 24.0067 14V12Z" fill="colorPrimary"/>
<path fill-rule="evenodd" clip-rule="evenodd" d="M11.4972 19H15.0067V21H14.0599C16.4024 21.7964 18.2648 23.4833 19.0718 25.6185L27.1146 21.195L27.0527 21H21.0067V19H28.5162L31.3733 28H8.64001L11.0067 20.5451V20.5L11.021 20.5L11.4972 19ZM27.4231 22.1666L20.4533 26H28.64L27.4231 22.1666ZM11.3733 26L12.7464 21.6748C15.3202 22.2027 17.3473 23.8761 18.1423 26H11.3733Z" fill="colorPrimary"/>
</svg>
