<svg width="40" height="40" viewBox="0 0 40 40" fill="none" xmlns="http://www.w3.org/2000/svg">
<path d="M20 15.7778C17.7778 15.7778 15.8889 17.6667 15.8889 19.8889C15.8889 22.1111 17.7778 24 20 24C22.2222 24 24.1111 22.1111 24.1111 19.8889C24.1111 17.5556 22.2222 15.7778 20 15.7778ZM20 21.6667C19 21.6667 18.1111 20.7778 18.1111 19.7778C18.1111 18.7778 19 18 20 18C21 18 21.8889 18.8889 21.8889 19.8889C21.8889 20.8889 21 21.6667 20 21.6667ZM20 13C15.4444 13 11.5556 15.7778 10 19.7778C11.5556 23.7778 15.4444 26.5556 20 26.5556C24.5556 26.5556 28.4444 23.7778 30 19.7778C28.4444 15.7778 24.5556 13 20 13ZM20 24.4444C16.7778 24.4444 13.8889 22.6667 12.4444 19.8889C13.8889 17 16.7778 15.2222 20 15.2222C23.2222 15.2222 26.1111 17 27.5556 19.7778C26.1111 22.6667 23.2222 24.4444 20 24.4444Z" fill="colorPrimary"/>
</svg>
