<svg width="40" height="40" viewBox="0 0 40 40" fill="none" xmlns="http://www.w3.org/2000/svg">
<line x1="14.7071" y1="12.2929" x2="28.7071" y2="26.2929" stroke="colorPrimary" stroke-width="2"/>
<path fill-rule="evenodd" clip-rule="evenodd" d="M25.9234 24.802C27.7557 23.6019 29.1924 21.8546 30 19.7778C28.4444 15.7778 24.5556 13 20 13C18.2829 13 16.6604 13.3947 15.222 14.1007L16.9166 15.7953C17.8792 15.4216 18.9209 15.2222 20 15.2222C23.2222 15.2222 26.1111 17 27.5556 19.7778C26.8186 21.2516 25.7058 22.4362 24.3645 23.2432L25.9234 24.802ZM23.3516 22.2303C23.8278 21.5601 24.1111 20.7495 24.1111 19.8889C24.1111 17.5556 22.2222 15.7778 20 15.7778C19.1394 15.7778 18.3288 16.0611 17.6586 16.5373L19.2655 18.1442C19.4943 18.0512 19.7435 18 20 18C21 18 21.8889 18.8889 21.8889 19.8889C21.8889 20.1454 21.8304 20.3873 21.7265 20.6052L23.3516 22.2303ZM20.5784 21.5784L22.282 23.282C21.6235 23.7331 20.8353 24 20 24C17.7778 24 15.8889 22.1111 15.8889 19.8889C15.8889 19.0536 16.1558 18.2654 16.6069 17.6069L18.2108 19.2108C18.1464 19.3881 18.1111 19.5785 18.1111 19.7778C18.1111 20.7778 19 21.6667 20 21.6667C20.1993 21.6667 20.3941 21.6358 20.5784 21.5784ZM15.5042 16.5042C14.2216 17.3085 13.1572 18.4634 12.4444 19.8889C13.8889 22.6667 16.7778 24.4444 20 24.4444C21.0218 24.4444 22.0101 24.2657 22.9294 23.9294L24.5592 25.5592C23.1758 26.1997 21.6306 26.5556 20 26.5556C15.4444 26.5556 11.5556 23.7778 10 19.7778C10.779 17.7746 12.1432 16.078 13.8832 14.8832L15.5042 16.5042Z" fill="colorPrimary"/>
</svg>
