<svg width="40" height="40" viewBox="0 0 40 40" fill="none" xmlns="http://www.w3.org/2000/svg">
<path fill-rule="evenodd" clip-rule="evenodd" d="M18 8H10C8.9 8 8 8.9 8 10V26C8 27.1 8.9 28 10 28H17V26H10V10H15V17H24V14L18 8ZM22.5 15H17V9.5L22.5 15Z" fill="#0B4566"/>
<path d="M23 24H25V26H23V24Z" fill="#0B4566"/>
<path d="M23 27H25V31H23V27Z" fill="#0B4566"/>
<path fill-rule="evenodd" clip-rule="evenodd" d="M28.5536 30L24 22.0311L19.4464 30H28.5536ZM17.7232 32H30.2768C31.0446 32 31.526 31.1705 31.1451 30.5039L24.8682 19.5194C24.4844 18.8476 23.5157 18.8476 23.1318 19.5194L16.8549 30.5039C16.474 31.1705 16.9554 32 17.7232 32Z" fill="#0B4566"/>
</svg>
