<svg width="40" height="40" viewBox="0 0 40 40" fill="none" xmlns="http://www.w3.org/2000/svg">
<path d="M15 21H19V19H15V21ZM8 9V11H26V9H8ZM11 16H23V14H11V16Z" fill="colorPrimary"/>
<path fill-rule="evenodd" clip-rule="evenodd" d="M30.742 26.5C30.742 26.687 30.725 26.863 30.7024 27.039L31.8954 27.9465C32.0029 28.029 32.0311 28.1775 31.9633 28.2985L30.8324 30.2015C30.7815 30.2895 30.6854 30.339 30.5893 30.339C30.5554 30.339 30.5215 30.3335 30.4875 30.3225L29.0796 29.7725C28.7856 29.987 28.4689 30.174 28.124 30.3115L27.9092 31.769C27.8922 31.901 27.7735 32 27.6321 32H25.3704C25.229 32 25.1103 31.901 25.0933 31.769L24.8785 30.3115C24.5336 30.174 24.2169 29.9925 23.9229 29.7725L22.515 30.3225C22.4867 30.3335 22.4528 30.339 22.4188 30.339C22.3171 30.339 22.2209 30.2895 22.1701 30.2015L21.0392 28.2985C20.9714 28.1775 20.9996 28.029 21.1071 27.9465L22.3001 27.039C22.2775 26.863 22.2605 26.6815 22.2605 26.5C22.2605 26.3185 22.2775 26.137 22.3001 25.961L21.1071 25.0535C20.9996 24.971 20.9657 24.8225 21.0392 24.7015L22.1701 22.7985C22.2209 22.7105 22.3171 22.661 22.4132 22.661C22.4471 22.661 22.481 22.6665 22.515 22.6775L23.9229 23.2275C24.2169 23.013 24.5336 22.826 24.8785 22.6885L25.0933 21.231C25.1103 21.099 25.229 21 25.3704 21H27.6321C27.7735 21 27.8922 21.099 27.9092 21.231L28.124 22.6885C28.4689 22.826 28.7856 23.0075 29.0796 23.2275L30.4875 22.6775C30.5158 22.6665 30.5497 22.661 30.5836 22.661C30.6854 22.661 30.7815 22.7105 30.8324 22.7985L31.9633 24.7015C32.0311 24.8225 32.0029 24.971 31.8954 25.0535L30.7024 25.961C30.725 26.137 30.742 26.313 30.742 26.5ZM24.5776 26.5C24.5776 25.4379 25.4379 24.5776 26.5 24.5776C27.5621 24.5776 28.4224 25.4379 28.4224 26.5C28.4224 27.5621 27.5621 28.4224 26.5 28.4224C25.4379 28.4224 24.5776 27.5621 24.5776 26.5Z" fill="colorPrimary"/>
</svg>
