<svg width="40" height="40" viewBox="0 0 40 40" fill="none" xmlns="http://www.w3.org/2000/svg">
<path d="M17.0636 4.52874C10.5136 4.97874 12.4636 7.27874 14.5136 10.8287C17.5636 16.2787 5.01357 13.5287 4.51357 25.5787C4.06357 35.7787 14.9136 26.4787 20.4136 27.4787C25.9136 28.4787 30.1136 36.0787 33.2136 34.7287C40.4136 31.5287 32.6136 3.47874 17.0636 4.52874Z" fill="#DCF2FD" stroke="#0B4566" stroke-width="0.714286" stroke-miterlimit="10" stroke-linejoin="round"/>
<path d="M19.2635 24.1288C24.4135 23.2788 30.5135 34.2788 33.0135 33.6288C35.5135 33.0288 35.3635 25.7788 33.5635 20.9788C32.3635 17.8288 27.5635 9.22875 21.1635 8.47875C13.7135 7.62875 27.0635 18.9288 16.4135 16.5788C11.7635 15.5788 10.5635 20.4788 10.3635 22.9288C9.91351 28.6288 14.9635 24.8788 19.2635 24.1288Z" fill="#BBE5F9" stroke="#0B4566" stroke-width="0.714286" stroke-miterlimit="10" stroke-linejoin="round"/>
<path d="M33.1136 24.0287C31.5635 19.6787 26.1136 12.6287 23.2136 17.9287C22.0136 20.1287 20.7136 24.8287 27.5636 25.0287C32.3136 25.1787 31.0136 33.2287 32.7136 32.7787C34.4636 32.3287 34.4636 27.9287 33.1136 24.0287Z" fill="#91D5F5" stroke="#0B4566" stroke-width="0.714286" stroke-miterlimit="10" stroke-linejoin="round"/>
</svg>
