<svg width="40" height="40" viewBox="0 0 40 40" fill="none" xmlns="http://www.w3.org/2000/svg">
<path d="M17.17 12L19.17 14H28V24H12V12H17.17ZM18 10H12C10.9 10 10.01 10.9 10.01 12L10 24C10 25.1 10.9 26 12 26H28C29.1 26 30 25.1 30 24V14C30 12.9 29.1 12 28 12H20L18 10Z" fill="#0B4566"/>
<path d="M23 26H22V28.7425C22 29.9893 22.8954 31 24 31C25.1046 31 26 29.9893 26 28.7425V26H25L24 28L23 26Z" fill="#0B4566"/>
<path d="M22 22H24V24H22V22Z" fill="#0B4566"/>
<path d="M22 18H24V20H22V18Z" fill="#0B4566"/>
<path d="M22 14H24V16H22V14Z" fill="#0B4566"/>
<path d="M24 20H26V22H24V20Z" fill="#0B4566"/>
<path d="M24 16H26V18H24V16Z" fill="#0B4566"/>
</svg>
