<svg width="40" height="40" viewBox="0 0 40 40" fill="none" xmlns="http://www.w3.org/2000/svg">
<path fill-rule="evenodd" clip-rule="evenodd" d="M11.967 29.8788C11.9669 29.8788 11.9668 29.8789 11.4834 29.3055L11 28.7321L11.0159 28.7186L11.0651 28.6769C11.1085 28.6399 11.1731 28.5848 11.2565 28.5131C11.4234 28.3697 11.6658 28.1598 11.9665 27.8954C12.568 27.3664 13.4017 26.6198 14.3295 25.75C16.1934 24.0026 18.4057 21.7872 19.8877 19.8498C21.6888 17.4952 22.6673 16.1673 23.7929 13.5127C24.193 12.5692 24.5799 11.2882 24.8708 10.2206C25.015 9.69137 25.1333 9.22306 25.2155 8.88725C25.2566 8.71945 25.2886 8.58499 25.3103 8.49287L25.3348 8.38762L25.3409 8.36096L25.3428 8.35303L26.0742 8.5187C26.8056 8.68465 26.8056 8.68471 26.8056 8.68477L26.8032 8.6955L26.7964 8.72491L26.7705 8.83603C26.7479 8.93223 26.7148 9.07123 26.6725 9.24398C26.588 9.58929 26.4664 10.0705 26.3181 10.6149L26.2824 10.7449L28.9938 13.9219L24.9226 14.6749C24.641 15.3035 24.3631 15.8634 24.0773 16.3854L25.8682 20.0741L21.8218 19.7838C21.588 20.0949 21.3413 20.4183 21.0791 20.7611C20.8871 21.0121 20.6842 21.2668 20.4723 21.5237L21.788 25.3066L17.7308 24.5311C17.2134 25.057 16.6931 25.5686 16.189 26.0531L16.9576 30.0744L13.2325 28.7787C13.1362 28.864 13.0442 28.9451 12.9571 29.0218C12.6517 29.2903 12.405 29.504 12.2342 29.6507C12.1488 29.7241 12.0824 29.7808 12.0371 29.8193L11.9853 29.8633L11.967 29.8788Z" fill="#0B4566"/>
</svg>
