<svg width="40" height="40" viewBox="0 0 40 40" fill="none" xmlns="http://www.w3.org/2000/svg">
<path d="M9.99997 29.3055C10.4834 29.8789 10.4835 29.8788 10.4835 29.8788L10.5018 29.8633L10.5536 29.8193C10.5989 29.7808 10.6653 29.7241 10.7507 29.6507C10.9215 29.504 11.1683 29.2903 11.4736 29.0218C11.5608 28.9451 11.6527 28.864 11.7491 28.7787L15.4741 30.0744L14.7055 26.0531C15.2096 25.5686 15.7299 25.057 16.2474 24.5311L20.3045 25.3066L18.9888 21.5237C19.2007 21.2668 19.4037 21.0121 19.5957 20.7611C19.8578 20.4183 20.1045 20.0949 20.3383 19.7838L24.3848 20.0741L22.5939 16.3854C22.8797 15.8634 23.1575 15.3035 23.4392 14.6749L27.5104 13.9219L24.799 10.7449L24.8346 10.6149C24.9829 10.0705 25.1045 9.58929 25.189 9.24398C25.2313 9.07123 25.2644 8.93223 25.287 8.83603L25.3129 8.72491L25.3197 8.6955L25.3221 8.68477C25.3221 8.68477 25.3222 8.68465 24.5908 8.5187L23.8593 8.35303L23.8575 8.36096L23.8514 8.38762L23.8268 8.49287C23.8052 8.58499 23.7732 8.71945 23.7321 8.88725C23.6499 9.22306 23.5315 9.69137 23.3874 10.2206C23.0965 11.2882 22.7095 12.5692 22.3095 13.5127C21.1838 16.1673 20.2053 17.4952 18.4042 19.8498C16.9222 21.7872 14.7099 24.0026 12.846 25.75C11.9182 26.6198 11.0846 27.3664 10.483 27.8954C10.1824 28.1598 9.93995 28.3697 9.77306 28.5131C9.68962 28.5848 9.62508 28.6399 9.58161 28.6769L9.53246 28.7186L9.51654 28.7321L9.99997 29.3055Z" fill="#0B4566"/>
<path d="M28.9643 23.9999L26.5 26.8452L25 25.1133L24.5 25.6906L26.5 27.9999L29.5 24.7009L28.9643 23.9999Z" fill="#0B4566"/>
<path fill-rule="evenodd" clip-rule="evenodd" d="M30.1111 29.9999C30.6 29.9999 31 29.5999 31 29.111V22.8888C31 22.3999 30.6 21.9999 30.1111 21.9999H23.8889C23.4 21.9999 23 22.3999 23 22.8888V29.111C23 29.5999 23.4 29.9999 23.8889 29.9999H30.1111ZM30 28.9999V22.9999H24V28.9999H30Z" fill="#0B4566"/>
</svg>
