<svg width="40" height="40" viewBox="0 0 40 40" fill="none" xmlns="http://www.w3.org/2000/svg">
<path d="M29.6399 20.56L29.7399 11L22.0399 16.68C21.3599 17.12 20.7999 17.74 20.3999 18.52C19.1799 20.92 20.1199 23.86 22.5399 25.08C24.9599 26.3 27.8799 25.36 29.0999 22.94C29.4999 22.2 29.6599 21.36 29.6399 20.56Z" fill="#BBE5F9" stroke="#0B4566" stroke-width="0.696429" stroke-miterlimit="10" stroke-linejoin="round"/>
<path d="M26.7799 21L26.9599 3.40002L12.7999 13.88C11.5599 14.7 10.4999 15.84 9.77994 17.28C7.51994 21.7 9.27994 27.12 13.6999 29.38C18.1199 31.64 23.5399 29.88 25.7999 25.46C26.5199 24.02 26.8399 22.5 26.7799 21Z" fill="#DCF2FD" stroke="#0B4566" stroke-width="0.696429" stroke-miterlimit="10" stroke-linejoin="round"/>
<path d="M34.02 25.86L34.1 17.08L27.06 22.3C26.44 22.72 25.92 23.28 25.56 24C24.44 26.2 25.32 28.9 27.52 30.02C29.72 31.14 32.42 30.26 33.54 28.06C33.9 27.36 34.04 26.6 34.02 25.86Z" fill="#BBE5F9" stroke="#0B4566" stroke-width="0.696429" stroke-miterlimit="10" stroke-linejoin="round"/>
<path d="M29.4801 30.98L29.5801 20.38L21.0601 26.68C20.3201 27.18 19.6801 27.86 19.2401 28.72C17.8801 31.38 18.9401 34.64 21.6001 36C24.2601 37.36 27.5201 36.3 28.8801 33.64C29.3201 32.8 29.5001 31.88 29.4801 30.98Z" fill="#DCF2FD" stroke="#0B4566" stroke-width="0.696429" stroke-miterlimit="10" stroke-linejoin="round"/>
<path d="M16.6999 21.4L16.7999 10.92L8.37993 17.16C7.63993 17.66 7.01993 18.34 6.57993 19.18C5.23993 21.82 6.27993 25.04 8.91993 26.38C11.5599 27.72 14.7799 26.68 16.1199 24.04C16.5599 23.2 16.7399 22.28 16.6999 21.4Z" fill="#BBE5F9" stroke="#0B4566" stroke-width="0.696429" stroke-miterlimit="10" stroke-linejoin="round"/>
<path opacity="0.3" d="M23.6201 29.18L23.7601 15.52L12.7801 23.66C11.8201 24.3 11.0001 25.18 10.4401 26.3C8.68014 29.74 10.0601 33.94 13.4801 35.68C16.9201 37.44 21.1201 36.06 22.8601 32.64C23.4201 31.52 23.6601 30.34 23.6201 29.18Z" fill="#00A4EC"/>
<path d="M23.5402 29.28L23.6802 15.48L12.6002 23.7C11.6202 24.34 10.8002 25.24 10.2402 26.36C8.48016 29.82 9.84016 34.06 13.3202 35.84C16.8002 37.62 21.0202 36.24 22.8002 32.76C23.3602 31.64 23.6002 30.44 23.5402 29.28Z" fill="#DCF2FD" stroke="#0B4566" stroke-width="0.696429" stroke-miterlimit="10" stroke-linejoin="round"/>
</svg>
