<svg width="40" height="40" viewBox="0 0 40 40" fill="none" xmlns="http://www.w3.org/2000/svg">
<path d="M14.5 9.66667C17.1813 9.66667 19.375 12.0833 19.375 15C19.375 18.0833 16.5312 22.5833 14.5 25.3333C12.4688 22.5833 9.625 18.0833 9.625 15C9.625 12.0833 11.8187 9.66667 14.5 9.66667ZM14.5 8C10.925 8 8 11.1667 8 15C8 20.25 14.5 28 14.5 28C14.5 28 21 20.25 21 15C21 11.1667 18.075 8 14.5 8Z" fill="#0B4566"/>
<path d="M14.3375 17.1667C15.6837 17.1667 16.775 16.0474 16.775 14.6667C16.775 13.286 15.6837 12.1667 14.3375 12.1667C12.9913 12.1667 11.9 13.286 11.9 14.6667C11.9 16.0474 12.9913 17.1667 14.3375 17.1667Z" fill="#0B4566"/>
<path d="M23.2207 30.6777C22.9834 30.9619 22.6479 31.1831 22.2144 31.3413C21.7808 31.4966 21.3003 31.5742 20.7729 31.5742C20.2192 31.5742 19.7329 31.4541 19.314 31.2139C18.8979 30.9707 18.5757 30.6191 18.3472 30.1592C18.1216 29.6992 18.0059 29.1587 18 28.5376V28.1025C18 27.4639 18.1069 26.9116 18.3208 26.4458C18.5376 25.9771 18.8481 25.6196 19.2524 25.3735C19.6597 25.1245 20.1357 25 20.6807 25C21.4395 25 22.0327 25.1816 22.4604 25.5449C22.8882 25.9053 23.1416 26.4312 23.2207 27.1226H21.9375C21.8789 26.7563 21.7485 26.4883 21.5464 26.3184C21.3472 26.1484 21.0718 26.0635 20.7202 26.0635C20.272 26.0635 19.9307 26.2319 19.6963 26.5688C19.4619 26.9058 19.3433 27.4067 19.3403 28.0718V28.4805C19.3403 29.1514 19.4678 29.6582 19.7227 30.001C19.9775 30.3438 20.3511 30.5151 20.8433 30.5151C21.3384 30.5151 21.6914 30.4097 21.9023 30.1987V29.0957H20.7026V28.1245H23.2207V30.6777Z" fill="#0B4566"/>
<path d="M25.6948 31.4863H24.3765V25.0879H25.6948V31.4863Z" fill="#0B4566"/>
<path d="M30.2388 29.8076C30.2388 29.5586 30.1509 29.3682 29.9751 29.2363C29.7993 29.1016 29.4829 28.9609 29.0259 28.8145C28.5688 28.665 28.207 28.5186 27.9404 28.375C27.2139 27.9824 26.8506 27.4536 26.8506 26.7886C26.8506 26.4429 26.9473 26.1353 27.1406 25.8657C27.3369 25.5933 27.6167 25.3809 27.98 25.2285C28.3462 25.0762 28.7563 25 29.2104 25C29.6675 25 30.0747 25.0835 30.4321 25.2505C30.7896 25.4146 31.0664 25.6475 31.2627 25.9492C31.4619 26.251 31.5615 26.5938 31.5615 26.9775H30.2432C30.2432 26.6846 30.1509 26.4575 29.9663 26.2964C29.7817 26.1323 29.5225 26.0503 29.1885 26.0503C28.8662 26.0503 28.6157 26.1191 28.437 26.2568C28.2583 26.3916 28.1689 26.5703 28.1689 26.793C28.1689 27.001 28.2729 27.1753 28.481 27.3159C28.6919 27.4565 29.001 27.5884 29.4082 27.7114C30.1582 27.937 30.7046 28.2168 31.0474 28.5508C31.3901 28.8848 31.5615 29.3008 31.5615 29.7988C31.5615 30.3525 31.3521 30.7876 30.9331 31.104C30.5142 31.4175 29.9502 31.5742 29.2412 31.5742C28.749 31.5742 28.3008 31.4849 27.8965 31.3062C27.4922 31.1245 27.1831 30.877 26.9692 30.5635C26.7583 30.25 26.6528 29.8867 26.6528 29.4736H27.9756C27.9756 30.1797 28.3975 30.5327 29.2412 30.5327C29.5547 30.5327 29.7993 30.4697 29.9751 30.3438C30.1509 30.2148 30.2388 30.0361 30.2388 29.8076Z" fill="#0B4566"/>
</svg>
