<svg width="40" height="40" viewBox="0 0 40 40" fill="none" xmlns="http://www.w3.org/2000/svg">
<path d="M23.5 22H22.71L22.43 21.73C23.41 20.59 24 19.11 24 17.5C24 13.91 21.09 11 17.5 11C13.91 11 11 13.91 11 17.5C11 21.09 13.91 24 17.5 24C19.11 24 20.59 23.41 21.73 22.43L22 22.71V23.5L27 28.49L28.49 27L23.5 22ZM17.5 22C15.01 22 13 19.99 13 17.5C13 15.01 15.01 13 17.5 13C19.99 13 22 15.01 22 17.5C22 19.99 19.99 22 17.5 22Z" fill="colorPrimary"/>
<path fill-rule="evenodd" clip-rule="evenodd" d="M17.5695 18.2053H19.5964C19.5157 18.7194 18.9821 19.7169 17.5695 19.7169C16.3498 19.7169 15.3543 18.7282 15.3543 17.5066C15.3543 16.285 16.3498 15.2963 17.5695 15.2963C18.2646 15.2963 18.7265 15.5863 18.991 15.8368L19.9641 14.9184C19.3408 14.3471 18.5336 14.0044 17.5695 14.0044C15.5964 14.0044 14 15.5687 14 17.5022C14 19.4357 15.5964 21 17.5695 21C19.6323 21 20.9955 19.5807 20.9955 17.5813C20.9955 17.3528 20.9686 17.177 20.9372 17.0013H17.5695V18.2053Z" fill="colorPrimary"/>
</svg>
