<svg width="40" height="40" viewBox="0 0 40 40" fill="none" xmlns="http://www.w3.org/2000/svg">
<path fill-rule="evenodd" clip-rule="evenodd" d="M16.5 29V11H17.5V29H16.5Z" fill="#0B4566"/>
<path fill-rule="evenodd" clip-rule="evenodd" d="M29 17.5L11 17.5V16.5L29 16.5V17.5Z" fill="#0B4566"/>
<path fill-rule="evenodd" clip-rule="evenodd" d="M29 23.5L11 23.5V22.5L29 22.5V23.5Z" fill="#0B4566"/>
<path fill-rule="evenodd" clip-rule="evenodd" d="M22.5 29V11H23.5V29H22.5Z" fill="#0B4566"/>
<path fill-rule="evenodd" clip-rule="evenodd" d="M29 11H11V29H29V11ZM9 9V31H31V9H9Z" fill="#0B4566"/>
<path d="M34 29C34 31.7614 31.7614 34 29 34C26.2386 34 24 31.7614 24 29C24 26.2386 26.2386 24 29 24C31.7614 24 34 26.2386 34 29Z" fill="#0076C8"/>
</svg>
