<svg width="40" height="40" viewBox="0 0 40 40" fill="none" xmlns="http://www.w3.org/2000/svg">
<path d="M10.5 20L13.5 23V28H19.5V23L22.5 20V15H10.5V20ZM12.5 17H20.5V19.2L17.5 22.2V26H15.5V22.2L12.5 19.2V17ZM15.5 8H17.5V11H15.5V8ZM8 11.9L9.4 10.5L11.5 12.6L10.1 14L8 11.9ZM21.5 12.6L23.6 10.5L25 11.9L22.9 14L21.5 12.6Z" fill="colorPrimary"/>
<path d="M27.2426 28.6569L30.0711 31.4853L31.4853 30.0711L28.6569 27.2426L31.4853 24.4142L30.0711 23L27.2426 25.8284L24.4142 23L23 24.4142L25.8284 27.2426L23 30.0711L24.4142 31.4853L27.2426 28.6569Z" fill="colorPrimary"/>
</svg>
