<svg width="40" height="40" viewBox="0 0 40 40" fill="none" xmlns="http://www.w3.org/2000/svg">
<path fill-rule="evenodd" clip-rule="evenodd" d="M24.9413 20.5304H25.7694L31 25.7715L29.4382 27.3333L24.1971 22.1027V21.2746L23.914 20.9811C22.7191 22.0084 21.1677 22.6268 19.4801 22.6268C15.717 22.6268 12.6667 19.5765 12.6667 15.8134C12.6667 12.0503 15.717 9 19.4801 9C23.2432 9 26.2935 12.0503 26.2935 15.8134C26.2935 17.501 25.6751 19.0524 24.6478 20.2474L24.9413 20.5304ZM14.7631 15.8134C14.7631 18.4235 16.87 20.5304 19.4801 20.5304C21.643 20.5304 23.4604 19.0835 24.0196 17.1025C23.9752 17.112 23.9301 17.1216 23.8843 17.1314C23.6136 17.1893 23.3178 17.2525 22.9893 17.3176C22.3234 17.4494 21.5853 17.5745 20.8789 17.618C20.1827 17.661 19.4587 17.6292 18.8484 17.4048C18.2702 17.1923 17.8276 16.8851 17.5133 16.4975C17.199 16.1097 17.0393 15.6737 16.977 15.2441C16.8559 14.4093 17.0981 13.5658 17.3027 13.0015C17.4051 12.7193 17.4931 12.3985 17.5984 12.0141C17.6454 11.8428 17.6958 11.6588 17.7525 11.4601C17.7567 11.4456 17.7608 11.4311 17.765 11.4165C16.0059 12.101 14.7631 13.8088 14.7631 15.8134ZM19.1365 11.1087C19.0596 11.3443 18.9912 11.5735 18.9279 11.7954C18.8815 11.958 18.8366 12.1215 18.7924 12.2828C18.6801 12.6921 18.5717 13.0874 18.4517 13.4182C18.2624 13.9404 18.1106 14.5454 18.1865 15.0686C18.2227 15.318 18.3092 15.5384 18.4628 15.7278C18.6164 15.9173 18.8633 16.1081 19.2701 16.2577C19.6448 16.3955 20.1692 16.4373 20.8037 16.3981C21.4281 16.3596 22.1031 16.2471 22.7519 16.1186C23.0319 16.0632 23.322 16.0014 23.5985 15.9426C23.8095 15.8977 24.0126 15.8544 24.1971 15.817C24.1971 15.8158 24.1971 15.8146 24.1971 15.8134C24.1971 15.5068 24.168 15.2072 24.1125 14.9171C23.5816 15.1373 23.0903 15.3026 22.6419 15.4147C21.919 15.5953 21.2662 15.6479 20.7258 15.5332C20.1661 15.4145 19.692 15.103 19.4676 14.5611C19.2571 14.0528 19.3201 13.4665 19.5226 12.8917C19.7667 12.1983 20.0401 11.6601 20.3127 11.1693C20.0425 11.1214 19.7643 11.0964 19.4801 11.0964C19.3645 11.0964 19.2499 11.1006 19.1365 11.1087ZM21.5016 11.5485C22.4718 12.0079 23.2588 12.7883 23.7267 13.7536C23.2099 13.9721 22.7488 14.1281 22.3456 14.2289C21.7156 14.3863 21.267 14.3986 20.9795 14.3376C20.7113 14.2807 20.631 14.1759 20.5968 14.0934C20.5487 13.9773 20.5228 13.7311 20.6754 13.2976C20.914 12.6202 21.1839 12.1102 21.4749 11.5956L21.5016 11.5485Z" fill="#0B4566"/>
<path d="M14 26.4167L9 31H27.3333L20.6667 24.8889L16.5 28.7083L14 26.4167Z" fill="#0B4566"/>
</svg>
