<svg width="40" height="40" viewBox="0 0 40 40" fill="none" xmlns="http://www.w3.org/2000/svg">
<path d="M20 22C21.1046 22 22 21.1046 22 20C22 18.8954 21.1046 18 20 18C18.8954 18 18 18.8954 18 20C18 21.1046 18.8954 22 20 22Z" fill="colorPrimary"/>
<path fill-rule="evenodd" clip-rule="evenodd" d="M27.1406 25.4791L25.5548 24.2604C26.4618 23.0801 27 21.6058 27 20C27 18.3942 26.4618 16.9199 25.5548 15.7396L27.1406 14.5209C28.3067 16.0384 29 17.9383 29 20C29 22.0617 28.3067 23.9616 27.1406 25.4791ZM25.4791 12.8594L24.2604 14.4452C23.0801 13.5382 21.6058 13 20 13C18.3942 13 16.9199 13.5382 15.7396 14.4452L14.5209 12.8594C16.0384 11.6933 17.9383 11 20 11C22.0617 11 23.9616 11.6933 25.4791 12.8594ZM12.8594 14.5209C11.6933 16.0384 11 17.9383 11 20C11 22.0617 11.6933 23.9616 12.8594 25.4791L14.4452 24.2604C13.5382 23.0801 13 21.6058 13 20C13 18.3942 13.5382 16.9199 14.4452 15.7396L12.8594 14.5209ZM14.5209 27.1406L15.7396 25.5548C16.9199 26.4618 18.3942 27 20 27C21.6058 27 23.0801 26.4618 24.2604 25.5548L25.4791 27.1406C23.9616 28.3067 22.0617 29 20 29C17.9383 29 16.0384 28.3067 14.5209 27.1406Z" fill="colorPrimary"/>
</svg>
