<svg width="40" height="40" viewBox="0 0 40 40" fill="none" xmlns="http://www.w3.org/2000/svg">
<path fill-rule="evenodd" clip-rule="evenodd" d="M23 14C23 12.3431 21.6569 11 20 11C18.3431 11 17 12.3431 17 14C17 15.6569 18.3431 17 20 17C21.6569 17 23 15.6569 23 14ZM21 14C21 13.4477 20.5523 13 20 13C19.4477 13 19 13.4477 19 14C19 14.5523 19.4477 15 20 15C20.5523 15 21 14.5523 21 14Z" fill="colorPrimary"/>
<path fill-rule="evenodd" clip-rule="evenodd" d="M29 26C29 24.3431 27.6569 23 26 23C24.3431 23 23 24.3431 23 26C23 27.6569 24.3431 29 26 29C27.6569 29 29 27.6569 29 26ZM27 26C27 25.4477 26.5523 25 26 25C25.4477 25 25 25.4477 25 26C25 26.5523 25.4477 27 26 27C26.5523 27 27 26.5523 27 26Z" fill="colorPrimary"/>
<path fill-rule="evenodd" clip-rule="evenodd" d="M17 23C17 21.3431 15.6569 20 14 20C12.3431 20 11 21.3431 11 23C11 24.6569 12.3431 26 14 26C15.6569 26 17 24.6569 17 23ZM15 23C15 22.4477 14.5523 22 14 22C13.4477 22 13 22.4477 13 23C13 23.5523 13.4477 24 14 24C14.5523 24 15 23.5523 15 23Z" fill="colorPrimary"/>
<path d="M15 20.1707C14.6872 20.0602 14.3506 20 14 20C13.6494 20 13.3128 20.0602 13 20.1707L13 10L15 10L15 20.1707Z" fill="colorPrimary"/>
<path d="M15 25.8293L15 30L13 30L13 25.8293C13.3128 25.9398 13.6494 26 14 26C14.3506 26 14.6872 25.9398 15 25.8293Z" fill="colorPrimary"/>
<path d="M21 11.1707C20.6872 11.0602 20.3506 11 20 11C19.6494 11 19.3128 11.0602 19 11.1707L19 10L21 10L21 11.1707Z" fill="colorPrimary"/>
<path d="M21 16.8293L21 30L19 30L19 16.8293C19.3128 16.9398 19.6494 17 20 17C20.3506 17 20.6872 16.9398 21 16.8293Z" fill="colorPrimary"/>
<path d="M27 23.1707C26.6872 23.0602 26.3506 23 26 23C25.6494 23 25.3128 23.0602 25 23.1707L25 10L27 10L27 23.1707Z" fill="colorPrimary"/>
<path d="M27 28.8293L27 30L25 30L25 28.8293C25.3128 28.9398 25.6494 29 26 29C26.3506 29 26.6872 28.9398 27 28.8293Z" fill="colorPrimary"/>
</svg>
