<svg width="40" height="40" viewBox="0 0 40 40" fill="none" xmlns="http://www.w3.org/2000/svg">
<path d="M20 13.0703C17.6088 14.4535 16 17.0389 16 20C16 22.9611 17.6088 25.5465 20 26.9297C18.8233 27.6104 17.4571 28 16 28C11.5817 28 8 24.4183 8 20C8 15.5817 11.5817 12 16 12C17.4571 12 18.8233 12.3896 20 13.0703Z" fill="colorPrimary"/>
<path fill-rule="evenodd" clip-rule="evenodd" d="M24 26C27.3137 26 30 23.3137 30 20C30 16.6863 27.3137 14 24 14C20.6863 14 18 16.6863 18 20C18 23.3137 20.6863 26 24 26ZM24 28C28.4183 28 32 24.4183 32 20C32 15.5817 28.4183 12 24 12C19.5817 12 16 15.5817 16 20C16 24.4183 19.5817 28 24 28Z" fill="colorPrimary"/>
<path fill-rule="evenodd" clip-rule="evenodd" d="M16 26C19.3137 26 22 23.3137 22 20C22 16.6863 19.3137 14 16 14C12.6863 14 10 16.6863 10 20C10 23.3137 12.6863 26 16 26ZM16 28C20.4183 28 24 24.4183 24 20C24 15.5817 20.4183 12 16 12C11.5817 12 8 15.5817 8 20C8 24.4183 11.5817 28 16 28Z" fill="colorPrimary"/>
</svg>
