<svg fill="#0B4566" xmlns="http://www.w3.org/2000/svg" width="130" height="77" viewbox="0 0 130 77">
    <path d="M18.4472 44.6602H0V73.0402C0 75.2402 1.73621 77.0002 3.90646 77.0002H18.4472C27.3453 77.0002 34.5071 69.7402 34.5071 60.7202C34.5071 51.9202 27.3453 44.6602 18.4472 44.6602ZM16.928 69.0802H10.6343C9.98319 69.0802 9.54914 68.6402 9.54914 67.9802V52.8002H16.711C21.0515 52.8002 24.7409 56.5402 24.7409 60.9402C24.958 65.3402 21.2685 69.0802 16.928 69.0802Z"></path>
    <path d="M61.8517 56.7602H49.0472V44.6602H39.498V73.0402C39.498 75.2402 41.2343 77.0002 43.4045 77.0002H49.0472V67.1002C49.0472 66.0002 48.1791 65.1202 47.094 65.1202C46.8769 65.1202 46.8769 64.9002 47.094 64.9002H62.0687V73.0402C62.0687 75.2402 63.8049 77.0002 65.9752 77.0002H71.6179V44.6602H62.0687L61.8517 56.7602Z"></path>
    <path d="M78.7812 44.6602V73.0402C78.7812 75.2402 80.5175 77.0002 82.6877 77.0002H88.3304V44.6602H78.7812Z"></path>
    <path d="M77.9128 0C66.4105 0 54.9081 4.62 54.474 6.38C54.474 6.82 54.9081 7.04 55.5592 7.04C57.7294 7.04 62.721 4.18 73.3553 4.18C78.3469 4.18 83.5555 5.06 83.5555 6.38C83.5555 7.48 79.8661 8.36 79.8661 9.9C79.8661 10.56 80.9512 11.22 83.5555 11.22C93.1046 11.22 105.475 14.96 105.475 18.7C105.475 19.14 105.041 19.58 104.607 19.58C102.654 19.58 96.577 16.28 85.5087 16.28C65.1083 16.28 53.1719 30.14 53.1719 34.76C53.1719 36.08 53.823 36.74 55.1251 36.74C59.0316 36.74 61.6359 32.56 70.0999 32.56C76.6107 32.56 78.5639 34.98 82.4704 34.98C84.2066 34.98 85.9428 34.32 85.9428 32.78C85.9428 30.36 82.9044 28.82 78.1298 27.72C74.0064 26.84 71.6191 26.18 71.6191 24.42C71.6191 21.56 78.3469 19.14 85.0747 19.14C108.079 19.14 118.063 34.98 119.582 34.98C120.016 34.98 120.016 34.76 120.016 34.1C120.016 29.48 114.59 20.46 108.73 15.62C100.049 8.36 93.5387 6.82 93.5387 5.72C93.5387 5.5 93.7557 5.5 94.1898 5.5C96.143 5.5 104.607 9.02 111.335 15.18C120.884 23.76 126.093 37.18 126.093 47.74C126.093 49.94 125.876 51.04 125.007 51.04C123.488 51.04 121.535 43.12 115.024 35.42C109.599 28.82 100.266 22.44 91.5855 22.44C89.4152 22.44 88.113 22.88 88.113 24.2C88.113 27.72 100.701 31.02 100.701 43.78C100.701 44.88 100.701 45.76 100.266 46.64C99.1814 50.16 102.437 54.34 104.39 53.9C107.862 53.24 107.211 43.12 107.428 44.22V44C106.994 40.04 106.126 38.72 106.126 36.52C106.126 35.2 106.777 34.54 107.645 34.54C108.948 34.54 112.203 36.74 115.892 41.8C119.582 47.08 122.186 54.78 122.186 63.36C122.186 69.08 122.403 72.16 123.922 72.16C126.31 72.16 129.999 62.92 129.999 52.36C130.216 23.76 107.211 0 77.9128 0Z"></path>  
</svg>