<svg width="40" height="40" viewBox="0 0 40 40" fill="none" xmlns="http://www.w3.org/2000/svg">
<path d="M27 20H24V22H27C28.6 22 30 23.4 30 25C30 26.6 28.6 28 27 28H24V30H27C29.8 30 32 27.8 32 25C32 22.2 29.8 20 27 20ZM22 28H19C17.3 28 16 26.6 16 25C16 23.4 17.3 22 19 22H22V20H19C16.2 20 14 22.2 14 25C14 27.8 16.2 30 19 30H22V28ZM20 24H26V26H20V24Z" fill="colorPrimary"/>
<path d="M17.17 14L15.17 12H10V24H12V26H10C8.89999 26 8 25.1 8 24L8.00999 12C8.00999 10.9 8.89999 10 10 10H16L18 12H26C27.1 12 28 12.9 28 14V18H26V14H17.17Z" fill="colorPrimary"/>
</svg>
