<svg width="40" height="40" viewBox="0 0 40 40" fill="none" xmlns="http://www.w3.org/2000/svg">
<path d="M26.6 15C25.2 15 23.8 15.6 22.8 16.5L15.8 22.7C15.2 23.3 14.3 23.7 13.4 23.7C11.5 23.8 10 22.2 10 20.4C10 18.6 11.5 17 13.4 17C14.3 17 15.2 17.4 15.8 18L17 19L18.5 17.7L17.2 16.6C16.2 15.6 14.8 15 13.4 15C10.4 15 8 17.4 8 20.4C8 23.4 10.4 25.8 13.4 25.8C14.8 25.8 16.2 25.2 17.2 24.3L24.2 18.1C24.8 17.5 25.7 17.1 26.6 17.1C28.5 17 30 18.5 30 20.4C30 22.3 28.5 23.8 26.6 23.8C25.7 23.8 24.8 23.4 24.2 22.8L23.1 21.8L21.6 23.1L22.9 24.2C23.9 25.2 25.3 25.8 26.7 25.8C29.7 25.8 32.1 23.4 32.1 20.4C32.1 17.4 29.6 15 26.6 15Z" fill="#0B4566"/>
</svg>
