<svg width="40" height="40" viewBox="0 0 40 40" fill="none" xmlns="http://www.w3.org/2000/svg">
<path d="M27.08 26.48C26.72 25.52 25.88 24.8 24.8 24.8H23.6V21.2C23.6 20.48 23.12 20 22.4 20H15.2V17.6H17.6C18.32 17.6 18.8 17.12 18.8 16.4V14H21.2C22.52 14 23.6 12.92 23.6 11.6V11.12C27.08 12.56 29.6 16.04 29.6 20C29.6 22.52 28.64 24.8 27.08 26.48ZM18.8 29.48C14.12 28.88 10.4 24.8 10.4 20C10.4 19.28 10.52 18.56 10.64 17.84L16.4 23.6V24.8C16.4 26.12 17.48 27.2 18.8 27.2V29.48ZM20 8C13.4 8 8 13.4 8 20C8 26.6 13.4 32 20 32C26.6 32 32 26.6 32 20C32 13.4 26.6 8 20 8Z" fill="#0B4566"/>
</svg>
