<svg width="40" height="40" viewBox="0 0 40 40" fill="none" xmlns="http://www.w3.org/2000/svg">
<path fill-rule="evenodd" clip-rule="evenodd" d="M31.6645 13.9869L26.0077 8.33008L8.33002 26.0077L13.9869 31.6646L31.6645 13.9869ZM26.7117 16.1114L24.5935 18.2296L22.9783 16.6144L22.2712 17.3215L23.8864 18.9367L21.7619 21.0611L20.3477 19.6469L19.6406 20.354L21.0548 21.7682L18.9366 23.8864L17.3215 22.2713L16.6144 22.9784L18.2295 24.5935L16.1051 26.718L14.6909 25.3037L13.9838 26.0109L15.398 27.4251L13.9869 28.8362L11.1584 26.0077L26.0077 11.1585L28.8361 13.9869L27.4188 15.4043L26.0046 13.99L25.2975 14.6971L26.7117 16.1114Z" fill="colorPrimary"/>
</svg>
