<svg
  width="40"
  height="40"
  viewbox="0 0 40 40"
  fill="var(--BrandBlue--default)"
  xmlns="http://www.w3.org/2000/svg"
>
  <path fill-rule="evenodd" clip-rule="evenodd" d="M13.3 30.2L9 17.1 20.2 9l11.2 8.1-1.4 4.4-1.74-1.16.64-2.14-10.6 1.6 3.2 3.7-.804.67L17.5 20.5l-2.4 7.8h5.333l.634 1.9H13.3zm14.9-12.9l-7.9-5.7-2.2 7.2 10.1-1.5zm-9.2-5l-7.1 5.2 5.1 1.3 2-6.5zm-2.3 7.5l-5.2-1.4 2.9 8.9 2.3-7.5z" /><path fill-rule="evenodd" clip-rule="evenodd" d="M27 32a5 5 0 1 0 0-10 5 5 0 0 0 0 10zm-1.667-2.083v-5.834L29.917 27l-4.584 2.917z" />
</svg>
