<svg
  width="40"
  height="40"
  viewbox="0 0 40 40"
  fill="#0B4566"
  xmlns="http://www.w3.org/2000/svg"
>
  <path d="M30.435 18.72c.864 0 1.565-.7 1.565-1.562 0-.862-.7-1.56-1.565-1.56s-1.565.698-1.565 1.56c0 .862.7 1.561 1.565 1.561zM9.565 18.72c.865 0 1.565-.7 1.565-1.562 0-.862-.7-1.56-1.565-1.56-.864 0-1.565.698-1.565 1.56 0 .862.7 1.561 1.565 1.561zM11.548 24.86c.864 0 1.565-.7 1.565-1.561 0-.863-.7-1.561-1.565-1.561s-1.565.698-1.565 1.56c0 .863.7 1.562 1.565 1.562zM28.452 24.86c.865 0 1.565-.7 1.565-1.561 0-.863-.7-1.561-1.565-1.561-.864 0-1.565.698-1.565 1.56 0 .863.7 1.562 1.565 1.562zM26.47 31c.864 0 1.565-.699 1.565-1.561s-.701-1.561-1.565-1.561c-.865 0-1.566.699-1.566 1.56 0 .863.701 1.562 1.566 1.562zM20 31c.864 0 1.565-.699 1.565-1.561s-.7-1.561-1.565-1.561c-.864 0-1.565.699-1.565 1.56 0 .863.7 1.562 1.565 1.562zM20 11.122c.864 0 1.565-.699 1.565-1.56C21.565 8.698 20.865 8 20 8c-.864 0-1.565.699-1.565 1.561s.7 1.561 1.565 1.561zM13.53 31c.865 0 1.566-.699 1.566-1.561s-.701-1.561-1.566-1.561c-.864 0-1.565.699-1.565 1.56 0 .863.701 1.562 1.565 1.562zM14.783 14.973c.864 0 1.565-.7 1.565-1.561 0-.862-.7-1.561-1.565-1.561s-1.566.699-1.566 1.56c0 .863.701 1.562 1.566 1.562zM25.217 14.973c.865 0 1.566-.7 1.566-1.561 0-.862-.701-1.561-1.566-1.561-.864 0-1.565.699-1.565 1.56 0 .863.7 1.562 1.565 1.562z" /><path d="M24.728 27.314l-7.09-7.334L28 18l-.164-.986-10.5 2.003 2.623-6.735L19 12l-2.71 7.03-4.027-1.495L12 18.5l4.008 1.49L13.5 27l.96.282 2.405-6.663L24 27.999l.728-.684z" />
</svg>
