<svg width="40" height="40" viewBox="0 0 40 40" fill="none" xmlns="http://www.w3.org/2000/svg">
<path d="M31 27C31 29.2091 29.2091 31 27 31C24.7909 31 23 29.2091 23 27C23 24.7909 24.7909 23 27 23C29.2091 23 31 24.7909 31 27Z" fill="colorSecondary" stroke-width="2"/>
<path fill-rule="evenodd" clip-rule="evenodd" d="M13.3 30.2L9 17.1L20.2 9L31.4 17.1L29.9637 21.4758L28.2238 20.3159L28.9 18.2L18.3 19.8L21.2371 23.3302L20.4333 24L17.5 20.5L15.1 28.3H20.4333L21.0667 30.2H13.3ZM28.2 17.3L20.3 11.6L18.1 18.8L28.2 17.3ZM19 12.3L11.9 17.5L17 18.8L19 12.3ZM16.7 19.8L11.5 18.4L14.4 27.3L16.7 19.8Z" fill="colorPrimary"/>
</svg>
