<svg width="40" height="40" viewBox="0 0 40 40" fill="none" xmlns="http://www.w3.org/2000/svg">
<path fill-rule="evenodd" clip-rule="evenodd" d="M13.3 30.2L9 17.1L20.2 9L31.4 17.1L30 21.5L28.2601 20.3401L28.9 18.2L18.3 19.8L21.5 23.5L20.6963 24.1698L17.5 20.5L15.1 28.3H20.4333L21.0667 30.2H13.3ZM28.2 17.3L20.3 11.6L18.1 18.8L28.2 17.3ZM19 12.3L11.9 17.5L17 18.8L19 12.3ZM16.7 19.8L11.5 18.4L14.4 27.3L16.7 19.8Z" fill="#0B4566"/>
<path fill-rule="evenodd" clip-rule="evenodd" d="M27 32C29.7614 32 32 29.7614 32 27C32 24.2386 29.7614 22 27 22C24.2386 22 22 24.2386 22 27C22 29.7614 24.2386 32 27 32ZM25.3334 29.9168V24.0835L29.9167 27.0002L25.3334 29.9168Z" fill="#0B4566"/>
</svg>
