<svg width="40" height="40" viewBox="0 0 40 40" fill="none" xmlns="http://www.w3.org/2000/svg">
<path d="M21.8 25.8C21.9 24.2 23.3 22.9 25 22.9C25.6 22.9 26.1 23 26.5 23.3L26.7 23.4L27.9 22.2L27.6 22C26.7 21.5 25.9 21.3 25 21.3C22.4 21.3 20.3 23.3 20.2 25.9H18.1L21 28.8L23.9 25.9H21.8V25.8Z" fill="colorPrimary"/>
<path d="M29 23.4L26.1 26.3H28.2C28.1 27.9 26.7 29.2 25 29.2C24.4 29.2 23.9 29.1 23.5 28.8L23.3 28.7L22.1 30L22.4 30.2C23.3 30.7 24.1 30.9 25 30.9C27.6 30.9 29.7 28.9 29.8 26.3H31.9L29 23.4Z" fill="colorPrimary"/>
<path fill-rule="evenodd" clip-rule="evenodd" d="M13.3 30.2L9 17.1L20.2 9L31.4 17.1L29.9637 21.4758L28.2238 20.3159L28.9 18.2L18.3 19.8L20.5822 22.2648L19.7785 22.9346L17.5 20.5L15.1 28.3H18.4333L19.0667 30.2H13.3ZM28.2 17.3L20.3 11.6L18.1 18.8L28.2 17.3ZM19 12.3L11.9 17.5L17 18.8L19 12.3ZM16.7 19.8L11.5 18.4L14.4 27.3L16.7 19.8Z" fill="colorPrimary"/>
</svg>
