<svg width="40" height="40" viewBox="0 0 40 40" fill="none" xmlns="http://www.w3.org/2000/svg">
<path d="M20.3501 21.65L24.6001 14.4L9.15015 21.65H20.3501Z" fill="#DCF2FD" stroke="#0B4566" stroke-width="0.678571" stroke-miterlimit="10" stroke-linecap="round" stroke-linejoin="round"/>
<path d="M24.5999 14.4L9.14985 21.65L7.84985 9L24.5999 14.4Z" fill="#BBE5F9" stroke="#0B4566" stroke-width="0.678571" stroke-miterlimit="10" stroke-linejoin="round"/>
<path d="M33.0501 18.95L20.3501 21.65L33.0501 35.8499V18.95Z" fill="#DCF2FD" stroke="#0B4566" stroke-width="0.678571" stroke-miterlimit="10" stroke-linecap="round" stroke-linejoin="round"/>
<path d="M17.5999 8.6499L7.84985 8.9999L24.5999 14.3999L17.5999 8.6499Z" fill="#DCF2FD" stroke="#0B4566" stroke-width="0.678571" stroke-miterlimit="10" stroke-linecap="round" stroke-linejoin="round"/>
<path d="M5 31.7L20.35 21.65H9.15L5 31.7Z" fill="#BBE5F9" stroke="#0B4566" stroke-width="0.678571" stroke-miterlimit="10" stroke-linejoin="round"/>
<path d="M20.3501 21.65L22.0001 32.05L33.0501 35.85L20.3501 21.65Z" fill="#BBE5F9" stroke="#0B4566" stroke-width="0.678571" stroke-miterlimit="10" stroke-linejoin="round"/>
<path d="M24.6001 14.4L35.4001 4.5L33.0501 18.95L24.6001 14.4Z" fill="#DCF2FD" stroke="#0B4566" stroke-width="0.678571" stroke-miterlimit="10" stroke-linecap="round" stroke-linejoin="round"/>
<path d="M5 31.7L22 32.05L20.35 21.65L5 31.7Z" fill="#DCF2FD" stroke="#0B4566" stroke-width="0.678571" stroke-miterlimit="10" stroke-linecap="round" stroke-linejoin="round"/>
<path d="M17.5999 8.65L24.5999 14.4L35.3999 4.5L17.5999 8.65Z" fill="#BBE5F9" stroke="#0B4566" stroke-width="0.678571" stroke-miterlimit="10" stroke-linejoin="round"/>
<path d="M24.6001 14.4L20.3501 21.65L33.0501 18.95L24.6001 14.4Z" fill="#BBE5F9" stroke="#0B4566" stroke-width="0.678571" stroke-miterlimit="10" stroke-linejoin="round"/>
</svg>
