<svg width="40" height="40" viewBox="0 0 40 40" fill="none" xmlns="http://www.w3.org/2000/svg">
<path fill-rule="evenodd" clip-rule="evenodd" d="M14.2 27.3L16.8 18.9L27.9 17.2L26.9667 20H29.1591L30.4 16.1L19.2 8L8 16.1L12.3 29.2H16V27.3H14.2ZM19.3 10.6L27.2 16.3L17.1 17.8L19.3 10.6ZM18.1 11.3L16.1 17.8L11 16.4L18.1 11.3ZM10.5 17.4L15.7 18.8L13.4 26.3L10.5 17.4Z" fill="colorPrimary"/>
<path fill-rule="evenodd" clip-rule="evenodd" d="M29.8 21.2H25.4L24.2 20H20.2C19 20 18 21 18 22.2V29.4C18 30.6 19 31.6 20.2 31.6H29.8C31 31.6 32 30.6 32 29.4V23.4C32 22.2 31 21.2 29.8 21.2ZM30 29.6H20V22H23.4L24.6 23.2H30V29.6Z" fill="colorPrimary"/>
</svg>
