<svg width="40" height="40" viewBox="0 0 40 40" fill="none" xmlns="http://www.w3.org/2000/svg">
<path d="M13 10.7119V29.2881L27 32V8L13 10.7119ZM21.7213 20.3729C21.1967 20.983 20.7049 21.2203 19.7869 21.2203H19.0656V24H18.4426C18.082 24 17.7869 23.9661 17.7541 23.9322C17.7213 23.8983 17.6885 22.0678 17.6885 19.8983V15.9322L19.0656 15.8644C20.7705 15.7627 21.1967 15.8644 21.7541 16.4746C22.082 16.8136 22.2131 17.0508 22.2787 17.4576C22.5082 18.6102 22.3115 19.6271 21.7213 20.3729Z" fill="#0B4566"/>
<path d="M19.6229 17.2881H19.0984V18.5085L19.0656 19.7288H19.5902C20.2459 19.7288 20.541 19.5254 20.6721 18.983C20.8033 18.4068 20.7049 17.8305 20.4098 17.5254C20.2131 17.3559 20.0492 17.322 19.6229 17.2881Z" fill="#0B4566"/>
</svg>
