<svg width="40" height="40" viewBox="0 0 40 40" fill="none" xmlns="http://www.w3.org/2000/svg">
<path d="M26.4254 22.1028C25.4442 22.1036 24.6423 23.0014 24.6432 24.0779C24.6441 25.1543 25.4477 26.0507 26.4288 26.0498C27.4099 26.049 28.2119 25.1512 28.211 24.0747C28.2101 22.9983 27.4065 22.1019 26.4254 22.1028ZM26.4292 26.5432C25.2251 26.5443 22.862 27.2191 22.8631 28.5199L22.8644 30L30 29.9938L29.9987 28.5136C29.9976 27.168 27.6334 26.5422 26.4292 26.5432Z" fill="#0B4566"/>
<path fill-rule="evenodd" clip-rule="evenodd" d="M24.2254 13.3016V12.2011C24.2254 10.9854 23.2456 10 22.0369 10H17.6598C16.4512 10 15.4713 10.9854 15.4713 12.2011V13.3016H12.1885C10.9798 13.3016 10 14.287 10 15.5027V26.508C10 27.7236 10.9798 28.709 12.1885 28.709H20.9416L20.9412 28.1602C20.9406 27.5346 21.1641 26.9834 21.5291 26.508H16.0184V15.5027H23.6783V21.8361C23.9701 21.4438 24.3432 21.1163 24.7725 20.8788V15.5027H27.5082V20.6334C28.558 20.9883 29.3802 21.8415 29.6967 22.9134V15.5027C29.6967 14.287 28.7169 13.3016 27.5082 13.3016H24.2254ZM22.584 11.6508H17.1127V13.3016H22.584V11.6508ZM12.1885 26.508V15.5027H14.9242V26.508H12.1885Z" fill="#0B4566"/>
</svg>
