<svg width="40" height="40" viewBox="0 0 40 40" fill="none" xmlns="http://www.w3.org/2000/svg">
<path fill-rule="evenodd" clip-rule="evenodd" d="M27.4036 24.4434C26.3297 24.4139 25.488 24.5322 24.7623 24.8281C24.5592 24.9168 24.2399 24.9168 24.2109 25.1831C24.327 25.3015 24.327 25.479 24.4431 25.627C24.6172 25.8933 24.8784 26.2779 25.1397 26.485C25.4299 26.6921 25.7202 26.9288 26.0104 27.136C26.5329 27.4614 27.1424 27.6685 27.6648 27.994C27.9551 28.2011 28.2744 28.4378 28.5646 28.6449C28.7097 28.7633 28.7968 28.9408 29 29V28.9704C28.9129 28.8521 28.8839 28.6745 28.7968 28.5266C28.6517 28.3787 28.5356 28.2603 28.3905 28.1124C27.9841 27.5798 27.5197 27.1064 26.9682 26.7217C26.5329 26.4258 25.575 26.0116 25.4009 25.479C25.4009 25.479 25.4009 25.4494 25.3719 25.4494C25.6621 25.4198 26.0104 25.3015 26.3007 25.2127C26.7651 25.0944 27.1714 25.124 27.6648 25.0056C27.897 24.9464 28.1002 24.8873 28.3324 24.7985V24.6801C28.1002 24.4434 27.897 24.0884 27.6648 23.8517C26.9682 23.2303 26.2136 22.6386 25.4299 22.1356C24.9945 21.8693 24.4721 21.6918 24.0077 21.455C23.8335 21.3663 23.5723 21.3367 23.4852 21.1888C23.253 20.8929 23.1079 20.4786 22.9338 20.1236C22.5274 19.3543 22.1501 18.5258 21.8308 17.727C21.5986 17.1944 21.4245 16.6618 21.1342 16.1588C19.741 13.7917 18.2027 12.3715 15.8807 10.9809C15.3873 10.685 14.7777 10.5666 14.1392 10.4187C13.7909 10.4187 13.4716 10.3891 13.1233 10.3595C12.8911 10.2708 12.6879 10.0045 12.4848 9.88612C11.643 9.35353 9.66933 8.28836 9.08883 9.70859C8.71151 10.5962 9.64031 11.4839 9.93056 11.9573C10.1628 12.2827 10.453 12.6378 10.6272 12.9929C10.7433 13.2296 10.7723 13.4663 10.8594 13.7326C11.0625 14.3539 11.2657 15.0344 11.556 15.5966C11.7011 15.8925 11.8752 16.1884 12.0494 16.4547C12.1655 16.6026 12.3396 16.6618 12.3977 16.9281C12.1945 17.1944 12.1945 17.6086 12.0784 17.9637C11.614 19.5022 11.7882 21.455 12.4848 22.609C12.6879 22.964 13.2104 23.7037 13.907 23.4374C14.5165 23.2007 14.3714 22.4019 14.5455 21.7213C14.5746 21.5438 14.5455 21.455 14.6326 21.3367V21.3663C14.8358 21.7509 15.0099 22.1356 15.1841 22.5202C15.6195 23.2007 16.3451 23.9109 16.9546 24.3843C17.2739 24.621 17.5351 25.0648 17.9415 25.2127V25.1831H17.9124C17.8254 25.0648 17.7093 25.0056 17.5932 24.9168C17.361 24.6801 17.0707 24.3547 16.8966 24.0884C16.3161 23.3191 15.8226 22.461 15.3873 21.5734C15.1551 21.1296 14.9809 20.6858 14.8068 20.2419C14.7197 20.0644 14.7197 19.8277 14.6036 19.7389C14.4004 20.0348 14.1102 20.3011 13.965 20.6858C13.7038 21.2775 13.6748 22.0172 13.5877 22.7865C13.5297 22.7865 13.5587 22.7865 13.5297 22.8161C13.0943 22.6977 12.9492 22.2539 12.775 21.8693C12.3687 20.8929 12.3106 19.2951 12.6589 18.1708C12.746 17.8749 13.1523 16.9577 13.0072 16.6914C12.9201 16.4251 12.6589 16.2771 12.5138 16.07C12.3396 15.8037 12.1365 15.4783 12.0204 15.1824C11.7011 14.4131 11.5269 13.555 11.1786 12.7857C11.0045 12.4307 10.7433 12.046 10.5111 11.7206C10.2208 11.2176 9.93056 10.9809 9.72738 10.5371C9.66933 10.3595 9.55323 10.1228 9.66933 9.94529C9.69836 9.85653 9.75641 9.79735 9.87251 9.76777C10.0467 9.61982 10.5401 9.79735 10.7142 9.88612C11.2077 10.0932 11.643 10.3004 12.0494 10.5666C12.2526 10.7146 12.4557 10.9809 12.6879 11.0401H12.9782C13.4136 11.1288 13.907 11.0696 14.3133 11.188C15.039 11.4247 15.6775 11.7798 16.258 12.1348C18.0285 13.2887 19.5088 14.9161 20.4957 16.8689C20.6698 17.1944 20.7279 17.4902 20.873 17.8157C21.1632 18.4962 21.5115 19.1768 21.8018 19.8573C22.092 20.5082 22.3533 21.1592 22.7596 21.7213C22.9628 22.0172 23.7755 22.1652 24.1528 22.3131C24.414 22.4315 24.8494 22.5498 25.0816 22.6977C25.546 22.9936 26.0104 23.3191 26.4458 23.6446C26.678 23.8221 27.3456 24.1771 27.4036 24.4434Z" fill="#0B4566"/>
<path fill-rule="evenodd" clip-rule="evenodd" d="M12.7455 9.45944C12.8763 9.53743 13.0038 9.65161 13.0859 9.72513C13.0997 9.73747 13.1122 9.74865 13.1232 9.75834C13.1889 9.81605 13.2323 9.84987 13.2613 9.86947C13.5746 9.8962 13.8459 9.9187 14.1392 9.9187C14.1772 9.9187 14.215 9.92303 14.252 9.9316C14.3157 9.94636 14.3806 9.96106 14.4464 9.97597C15.0011 10.1017 15.6209 10.2421 16.1376 10.5519M12.7455 9.45944C12.315 9.18751 11.5556 8.75243 10.8016 8.57792C10.4217 8.49 9.99199 8.45572 9.59052 8.58706C9.16459 8.72639 8.82504 9.03473 8.6273 9.51625C8.34919 10.1743 8.57621 10.7952 8.82394 11.2341C8.95094 11.459 9.0983 11.663 9.22265 11.8299C9.2518 11.869 9.27884 11.905 9.30389 11.9383C9.39488 12.0595 9.45965 12.1458 9.50429 12.2186C9.51037 12.2285 9.51678 12.2382 9.52353 12.2477C9.59168 12.3432 9.65852 12.4336 9.72276 12.5206C9.9055 12.7678 10.0672 12.9866 10.1782 13.213C10.2147 13.2874 10.2411 13.3686 10.2711 13.4808C10.2776 13.505 10.2846 13.5323 10.2922 13.5619C10.3165 13.6561 10.3467 13.7735 10.3841 13.888C10.4099 13.9668 10.4361 14.048 10.4628 14.1309C10.6384 14.6755 10.8381 15.2948 11.1093 15.8214C11.2649 16.138 11.4491 16.4503 11.6309 16.7283C11.6388 16.7404 11.6472 16.752 11.656 16.7633C11.7116 16.8341 11.7693 16.8881 11.8083 16.9236C11.8144 16.9291 11.8199 16.9341 11.825 16.9387C11.772 17.0707 11.7404 17.1992 11.7171 17.305C11.7001 17.3822 11.6871 17.448 11.6753 17.5071C11.6526 17.622 11.6348 17.7114 11.6032 17.8083L11.5997 17.8192C11.3469 18.6568 11.2707 19.5943 11.3481 20.4744C11.425 21.3485 11.6569 22.2027 12.0537 22.8624C12.1676 23.0606 12.3849 23.3938 12.697 23.6454C13.0222 23.9077 13.5128 24.1234 14.0855 23.9045L14.088 23.9035C14.591 23.7082 14.7768 23.2891 14.86 22.9357C15.3395 23.631 16.0526 24.3168 16.6479 24.7792L16.6568 24.7859C16.7388 24.8467 16.8081 24.9198 16.9079 25.0252C16.9512 25.0708 17.0002 25.1225 17.0585 25.1819C17.2218 25.3485 17.4549 25.5677 17.7704 25.6826C17.9237 25.7384 18.0946 25.7159 18.2282 25.6223C18.3619 25.5288 18.4415 25.3759 18.4415 25.2127V25.1831C18.4415 25.0022 18.3453 24.8437 18.2014 24.7559C18.1527 24.7081 18.105 24.6697 18.0631 24.6384C18.0308 24.6143 17.9981 24.5916 17.973 24.5742L17.9654 24.5688C17.9492 24.5576 17.9355 24.548 17.9232 24.5391C17.704 24.3134 17.4561 24.0304 17.315 23.8147C17.3089 23.8053 17.3024 23.7962 17.2957 23.7872C16.74 23.0509 16.2625 22.2224 15.8362 21.3532L15.8303 21.3416C15.6126 20.9255 15.4477 20.5064 15.2722 20.0593C15.2672 20.0466 15.2617 20.034 15.2557 20.0218C15.2446 19.9992 15.2392 19.9788 15.2249 19.9244C15.2184 19.8995 15.2099 19.8674 15.1982 19.8247C15.1839 19.7725 15.1611 19.6947 15.1242 19.6165C15.0867 19.5371 15.0219 19.4293 14.9073 19.3417C14.7984 19.2585 14.6602 19.2236 14.5248 19.2452C14.3895 19.2668 14.269 19.3429 14.1914 19.4559C14.1356 19.5372 14.0838 19.6012 14.0207 19.6791C13.9763 19.7339 13.9264 19.7956 13.8655 19.8751C13.7397 20.0394 13.5998 20.2431 13.5022 20.4961C13.3483 20.8495 13.2689 21.2297 13.2161 21.5988C13.2151 21.6055 13.2142 21.6122 13.2132 21.619C13.0536 21.2078 12.9532 20.6528 12.9337 20.0591C12.9133 19.439 12.9825 18.816 13.1365 18.3187L13.1386 18.3119C13.1536 18.2609 13.1844 18.1765 13.231 18.0489L13.2402 18.0236C13.2883 17.8919 13.3462 17.7317 13.3971 17.5701C13.447 17.4114 13.496 17.2334 13.5208 17.0668C13.5332 16.9832 13.5417 16.8891 13.5368 16.7938C13.5328 16.7147 13.5185 16.6084 13.4701 16.5002C13.3865 16.2722 13.2407 16.1118 13.1392 16.0084C13.0927 15.961 13.0573 15.9263 13.0292 15.8988C12.9795 15.8501 12.9526 15.8237 12.9271 15.7885C12.7534 15.5226 12.5799 15.2396 12.4858 14.9997L12.4822 14.9907C12.3441 14.658 12.2343 14.3057 12.1159 13.9255C12.1065 13.8956 12.0971 13.8654 12.0877 13.8351C11.9611 13.4296 11.8225 12.9956 11.6341 12.5795L11.6275 12.5656C11.4376 12.1782 11.1623 11.7731 10.9317 11.4493C10.7878 11.2033 10.6431 11.0128 10.5237 10.8556C10.5106 10.8383 10.4978 10.8215 10.4854 10.8051C10.36 10.6392 10.2679 10.5099 10.1924 10.3512C10.1861 10.3329 10.1799 10.3154 10.1743 10.2998C10.1725 10.2946 10.1707 10.2895 10.1689 10.2847C10.1621 10.2655 10.1561 10.2488 10.1501 10.2315C10.1486 10.227 10.1471 10.2227 10.1457 10.2185C10.1575 10.2205 10.1707 10.2231 10.1852 10.2263C10.3075 10.2534 10.4346 10.3048 10.4872 10.3316C10.4982 10.3372 10.5093 10.3424 10.5207 10.3471C10.9979 10.5475 11.398 10.739 11.7641 10.9775C11.8061 11.009 11.8398 11.0404 11.8876 11.0849C11.9233 11.1181 11.9669 11.1587 12.0277 11.2122C12.1371 11.3084 12.3233 11.4631 12.5645 11.5246C12.6048 11.5348 12.6463 11.5401 12.6879 11.5401H12.9307C13.1524 11.5801 13.3799 11.5906 13.5672 11.5993C13.5895 11.6003 13.6113 11.6013 13.6324 11.6023C13.8616 11.6135 14.0288 11.6271 14.1665 11.666C14.8305 11.8837 15.4251 12.2117 15.991 12.5576C17.686 13.6638 19.1039 15.2234 20.0494 17.0944L20.0548 17.1048C20.1231 17.2324 20.1709 17.358 20.2233 17.5076C20.231 17.5295 20.2389 17.5522 20.247 17.5758C20.2918 17.7053 20.3449 17.8585 20.4146 18.0155C20.5628 18.3627 20.725 18.7085 20.8829 19.0449L20.8847 19.0489C21.045 19.3906 21.2008 19.7228 21.3419 20.0535L21.3451 20.0609C21.3827 20.1452 21.4204 20.2311 21.4587 20.3182C21.7029 20.8745 21.9683 21.479 22.3516 22.0103C22.4716 22.1818 22.6448 22.2912 22.7785 22.361C22.9234 22.4367 23.0844 22.4973 23.2319 22.5468C23.3615 22.5902 23.4954 22.6298 23.6124 22.6644C23.6294 22.6694 23.6461 22.6744 23.6623 22.6792C23.792 22.7177 23.8897 22.7478 23.9601 22.7747C24.0769 22.8266 24.2222 22.8791 24.3492 22.925C24.3865 22.9384 24.4222 22.9513 24.4551 22.9635C24.6307 23.0282 24.7486 23.0784 24.813 23.1194C25.2407 23.392 25.6702 23.6914 26.0771 23.9934C25.5302 24.0566 25.0347 24.177 24.5736 24.3651L24.5622 24.3699C24.548 24.3761 24.5234 24.3841 24.4587 24.4024C24.4551 24.4034 24.4514 24.4044 24.4475 24.4055C24.395 24.4203 24.3122 24.4436 24.2325 24.4761C24.1452 24.5116 24.0247 24.5722 23.9196 24.682C23.8053 24.8013 23.7329 24.9541 23.7138 25.129C23.6985 25.2698 23.7436 25.4101 23.8372 25.5154C23.8409 25.5237 23.8479 25.5402 23.8586 25.569C23.8603 25.5736 23.8622 25.5788 23.8643 25.5844C23.8891 25.6517 23.9386 25.7863 24.0342 25.9153C24.2012 26.1703 24.4995 26.6156 24.829 26.8768C24.8356 26.882 24.8424 26.8871 24.8492 26.892C24.9865 26.99 25.125 27.0958 25.2714 27.2077L25.2746 27.2102C25.4176 27.3195 25.5682 27.4346 25.72 27.543C25.7285 27.549 25.7372 27.5548 25.746 27.5603C26.0323 27.7387 26.3377 27.8824 26.6129 28.0118L26.6248 28.0174C26.9072 28.1503 27.1589 28.2694 27.3876 28.4104C27.5265 28.5096 27.6723 28.6158 27.8204 28.7237C27.9663 28.8299 28.1149 28.9381 28.2569 29.0396C28.266 29.0479 28.2789 29.0607 28.2988 29.0821C28.3035 29.0872 28.3102 29.0945 28.3181 29.1032C28.3412 29.1285 28.3751 29.1657 28.4036 29.1948C28.4949 29.2878 28.6396 29.4158 28.8602 29.4801C29.0112 29.5241 29.1742 29.4944 29.3001 29.3999C29.4259 29.3055 29.5 29.1573 29.5 29V28.9704C29.5 28.8638 29.4659 28.76 29.4027 28.6741L29.4037 28.6753C29.4037 28.6753 29.3942 28.658 29.3668 28.5846C29.3646 28.5788 29.3623 28.5725 29.3598 28.5657C29.3347 28.4978 29.2919 28.3819 29.2277 28.273C29.2071 28.2379 29.1822 28.2055 29.1538 28.1765L28.7688 27.784C28.342 27.2288 27.8474 26.7253 27.2543 26.3116L27.2493 26.3082C27.1278 26.2256 26.9767 26.1384 26.8352 26.0567L26.8142 26.0446C26.6591 25.9551 26.5051 25.8657 26.3609 25.7711C26.3423 25.7589 26.3241 25.7467 26.3063 25.7346C26.3154 25.7318 26.3244 25.7289 26.3334 25.7262C26.3693 25.7149 26.4033 25.7042 26.4352 25.6945C26.6221 25.6478 26.8017 25.6287 27.0218 25.6067L27.0378 25.6051C27.2523 25.5836 27.504 25.5584 27.7815 25.4918L27.7883 25.4901C28.0317 25.4281 28.2548 25.3635 28.511 25.2655C28.7046 25.1915 28.8324 25.0058 28.8324 24.7985V24.6801C28.8324 24.5492 28.7811 24.4235 28.6894 24.33C28.6028 24.2418 28.5154 24.1245 28.4014 23.9696L28.3919 23.9567C28.2898 23.8179 28.163 23.6455 28.0218 23.5015C28.014 23.4936 28.006 23.4859 27.9977 23.4785C27.2856 22.8434 26.51 22.2347 25.7 21.7148L25.6908 21.709C25.4426 21.5572 25.1768 21.435 24.9315 21.3268C24.8789 21.3035 24.8274 21.281 24.777 21.259C24.5837 21.1745 24.406 21.0968 24.2347 21.0096C24.1597 20.9713 24.0843 20.9438 24.0296 20.9247C24.0032 20.9155 23.9826 20.9085 23.9646 20.9025C23.937 20.8931 23.9159 20.8859 23.8904 20.8763C23.882 20.8731 23.875 20.8704 23.8692 20.868C23.7921 20.7667 23.7195 20.634 23.6401 20.4654C23.6134 20.4087 23.5799 20.3338 23.5439 20.2537C23.4905 20.1345 23.4318 20.0036 23.3827 19.9034L23.3759 19.8901C22.9786 19.138 22.6086 18.3257 22.2951 17.5414L22.2891 17.5271C22.2287 17.3885 22.1682 17.2382 22.1052 17.0817C21.9527 16.7026 21.7852 16.2866 21.5673 15.9089L21.5651 15.9052C20.1234 13.4557 18.52 11.9788 16.1376 10.5519M14.5108 20.8518C14.499 20.8227 14.4873 20.7937 14.4758 20.7649C14.4595 20.7971 14.4452 20.8294 14.4328 20.8623C14.4304 20.8688 14.4277 20.8754 14.425 20.8818C14.4526 20.8692 14.4814 20.8592 14.5108 20.8518ZM24.8902 25.315C24.875 25.3205 24.8601 25.3256 24.8456 25.3303C24.8511 25.3378 24.8564 25.3455 24.8615 25.3533C24.8667 25.3612 24.8719 25.3691 24.8771 25.377C24.8801 25.3559 24.8845 25.3352 24.8902 25.315ZM29.1508 28.5247L29.1498 28.5241L29.1508 28.5247Z" fill="#0B4566"/>
<path d="M15 14C15 14.5523 14.5523 15 14 15C13.4477 15 13 14.5523 13 14C13 13.4477 13.4477 13 14 13C14.5523 13 15 13.4477 15 14Z" fill="#0B4566"/>
</svg>
