<svg width="40" height="40" viewBox="0 0 40 40" fill="none" xmlns="http://www.w3.org/2000/svg">
<path d="M31 17H23L21 15H15C13.9 15 13 15.9 13 17V29C13 30.1 13.9 31 15 31H31C32.1 31 33 30.1 33 29V19C33 17.9 32.1 17 31 17ZM31 29H15V17H20.2L22.2 19H31V29Z" fill="colorPrimary"/>
<path d="M23 25H25V27H27V25H29V23H27V21H25V23H23V25Z" fill="colorPrimary"/>
<path d="M11 27C9.90002 27 9 26.1 9 25V11C9 9.90002 9.90002 9 11 9H25C25.5 9 26 9.19995 26.4 9.59998C26.8 10 27 10.5 27 11V15H25V11H11V25V27Z" fill="colorPrimary"/>
</svg>
