<svg
  width="40"
  height="40"
  viewbox="0 0 40 40"
  fill="#0B4566"
  xmlns="http://www.w3.org/2000/svg"
>
  <path d="M22.6 31a1.5 1.5 0 1 0 0-3 1.5 1.5 0 0 0 0 3zM16.4 31a1.5 1.5 0 1 0 0-3 1.5 1.5 0 0 0 0 3zM11.4 27.4a1.5 1.5 0 1 0 0-3 1.5 1.5 0 0 0 0 3zM9.5 21.5a1.5 1.5 0 1 0 0-3 1.5 1.5 0 0 0 0 3zM27.6 27.4a1.5 1.5 0 1 0 0-3 1.5 1.5 0 0 0 0 3zM29.5 21.5a1.5 1.5 0 1 0 0-3 1.5 1.5 0 0 0 0 3zM27.6 15.6a1.5 1.5 0 1 0 0-3 1.5 1.5 0 0 0 0 3zM11.4 15.7a1.5 1.5 0 1 0 0-3 1.5 1.5 0 0 0 0 3zM16.4 12a1.5 1.5 0 1 0 0-3 1.5 1.5 0 0 0 0 3zM22.6 12a1.5 1.5 0 1 0 0-3 1.5 1.5 0 0 0 0 3zM27.475 8.311l.906.654L12.15 31.478l-.906-.654z"/>
</svg>
