<svg width="41" height="40" viewBox="0 0 41 40" fill="none" xmlns="http://www.w3.org/2000/svg">
<path d="M19.8431 29.5C20.9216 29.5 21.8039 28.6 21.8039 27.5H17.8824C17.8824 28.6 18.7647 29.5 19.8431 29.5ZM25.7255 23.5V18.5C25.7255 15.43 24.1275 12.86 21.3137 12.18V11.5C21.3137 10.67 20.6569 10 19.8431 10C19.0294 10 18.3725 10.67 18.3725 11.5V12.18C15.5686 12.86 13.9608 15.42 13.9608 18.5V23.5L12 25.5V26.5H27.6863V25.5L25.7255 23.5ZM23.7647 24.5H15.9216V18.5C15.9216 16.02 17.402 14 19.8431 14C22.2843 14 23.7647 16.02 23.7647 18.5V24.5Z" fill="colorPrimary"/>
</svg>
