<svg width="40" height="40" viewBox="0 0 40 40" fill="none" xmlns="http://www.w3.org/2000/svg">
<path d="M27.9499 32H21.3177C20.2242 32 19.1509 31.5498 18.3915 30.7695L11 23.1563L13.096 21.3256C13.7237 20.7753 14.6451 20.6653 15.3843 21.0554L17.8245 22.336V12.782C17.8245 11.4014 18.9585 10.281 20.3558 10.281C20.528 10.281 20.7001 10.301 20.8722 10.331C20.9634 9.03043 22.0569 8 23.3934 8C24.2642 8 25.0236 8.43018 25.4793 9.09045C25.7729 8.9704 26.0969 8.91038 26.4311 8.91038C27.8284 8.91038 28.9624 10.0308 28.9624 11.4114V11.6915C29.1244 11.6615 29.2965 11.6415 29.4687 11.6415C30.866 11.6415 32 12.762 32 14.1426V27.9983C32 30.2093 30.1876 32 27.9499 32ZM13.9161 23.2764L19.8496 29.3789C20.2343 29.7691 20.7608 29.9992 21.3076 29.9992H27.9499C29.0636 29.9992 29.9749 29.0988 29.9749 27.9983V14.1426C29.9749 13.8624 29.7522 13.6424 29.4687 13.6424C29.1851 13.6424 28.9624 13.8624 28.9624 14.1426V19.995H26.9373V11.4114C26.9373 11.1313 26.7146 10.9112 26.4311 10.9112C26.1475 10.9112 25.9248 11.1313 25.9248 11.4114V19.995H23.8997V10.501C23.8997 10.2209 23.677 10.0008 23.3934 10.0008C23.1099 10.0008 22.8872 10.2209 22.8872 10.501V19.995H20.8621V12.782C20.8621 12.5019 20.6393 12.2818 20.3558 12.2818C20.0723 12.2818 19.8496 12.5119 19.8496 12.782V25.6574L14.4325 22.8262L13.9161 23.2764Z" fill="#0B4566"/>
<path fill-rule="evenodd" clip-rule="evenodd" d="M8 14H17V16H10V30H14V32H8V14Z" fill="#0B4566"/>
</svg>
