<svg width="40" height="40" viewBox="0 0 40 40" fill="none" xmlns="http://www.w3.org/2000/svg">
<path d="M24.74 32H18.19C17.11 32 16.05 31.55 15.3 30.77L8 23.16L10.07 21.33C10.69 20.78 11.6 20.67 12.33 21.06L14.74 22.34V12.79C14.74 11.41 15.86 10.29 17.24 10.29C17.41 10.29 17.58 10.31 17.75 10.34C17.84 9.04001 18.92 8.01001 20.24 8.01001C21.1 8.01001 21.85 8.44001 22.3 9.10001C22.59 8.98001 22.91 8.92001 23.24 8.92001C24.62 8.92001 25.74 10.04 25.74 11.42V11.7C25.9 11.67 26.07 11.65 26.24 11.65C27.62 11.65 28.74 12.77 28.74 14.15V28C28.74 30.21 26.95 32 24.74 32ZM10.88 23.28L16.74 29.38C17.12 29.77 17.64 30 18.18 30H24.74C25.84 30 26.74 29.1 26.74 28V14.15C26.74 13.87 26.52 13.65 26.24 13.65C25.96 13.65 25.74 13.87 25.74 14.15V20H23.74V11.42C23.74 11.14 23.52 10.92 23.24 10.92C22.96 10.92 22.74 11.14 22.74 11.42V20H20.74V10.51C20.74 10.23 20.52 10.01 20.24 10.01C19.96 10.01 19.74 10.23 19.74 10.51V20H17.74V12.79C17.74 12.51 17.52 12.29 17.24 12.29C16.96 12.29 16.74 12.52 16.74 12.79V25.66L11.39 22.83L10.88 23.28Z" fill="colorPrimary"/>
</svg>
