<svg width="40" height="40" viewBox="0 0 40 40" fill="none" xmlns="http://www.w3.org/2000/svg">
<path d="M10 19C11.1046 19 12 18.1046 12 17C12 15.8954 11.1046 15 10 15C8.89543 15 8 15.8954 8 17C8 18.1046 8.89543 19 10 19Z" fill="colorPrimary"/>
<path d="M29.8 21.2H25.4L24.2 20H20.2C19 20 18 21 18 22.2V29.4C18 30.6 19 31.6 20.2 31.6H29.8C31 31.6 32 30.6 32 29.4V23.4C32 22.2 31 21.2 29.8 21.2ZM30 29.6H20V22H23.4L24.6 23.2H30V29.6Z" fill="colorPrimary"/>
<path d="M13 27C14.1046 27 15 26.1046 15 25C15 23.8954 14.1046 23 13 23C11.8954 23 11 23.8954 11 25C11 26.1046 11.8954 27 13 27Z" fill="colorPrimary"/>
<path d="M16 21C17.1046 21 18 20.1046 18 19C18 17.8954 17.1046 17 16 17C14.8954 17 14 17.8954 14 19C14 20.1046 14.8954 21 16 21Z" fill="colorPrimary"/>
<path d="M24 12C25.1046 12 26 11.1046 26 10C26 8.89543 25.1046 8 24 8C22.8954 8 22 8.89543 22 10C22 11.1046 22.8954 12 24 12Z" fill="colorPrimary"/>
</svg>
