<svg width="40" height="40" viewBox="0 0 40 40" fill="none" xmlns="http://www.w3.org/2000/svg">
<path fill-rule="evenodd" clip-rule="evenodd" d="M32 9H8V33H32V9ZM29.8182 11.1818H10.1818V30.8182H29.8182V11.1818Z" fill="#0B4566"/>
<path d="M27.5 15.003C27.5 15.8314 26.8284 16.503 26 16.503C25.1716 16.503 24.5 15.8314 24.5 15.003C24.5 14.1746 25.1716 13.503 26 13.503C26.8284 13.503 27.5 14.1746 27.5 15.003Z" fill="#0B4566"/>
<path d="M15.5 15.003C15.5 15.8314 14.8284 16.503 14 16.503C13.1716 16.503 12.5 15.8314 12.5 15.003C12.5 14.1746 13.1716 13.503 14 13.503C14.8284 13.503 15.5 14.1746 15.5 15.003Z" fill="#0B4566"/>
<path d="M15.5 21C15.5 21.8284 14.8284 22.5 14 22.5C13.1716 22.5 12.5 21.8284 12.5 21C12.5 20.1716 13.1716 19.5 14 19.5C14.8284 19.5 15.5 20.1716 15.5 21Z" fill="#0B4566"/>
<path d="M27.5 26.9972C27.5 27.8256 26.8284 28.4972 26 28.4972C25.1716 28.4972 24.5 27.8256 24.5 26.9972C24.5 26.1688 25.1716 25.4972 26 25.4972C26.8284 25.4972 27.5 26.1688 27.5 26.9972Z" fill="#0B4566"/>
<path d="M21.5 21C21.5 21.8284 20.8284 22.5 20 22.5C19.1716 22.5 18.5 21.8284 18.5 21C18.5 20.1716 19.1716 19.5 20 19.5C20.8284 19.5 21.5 20.1716 21.5 21Z" fill="#0B4566"/>
<path d="M21.5 26.9972C21.5 27.8256 20.8284 28.4972 20 28.4972C19.1716 28.4972 18.5 27.8256 18.5 26.9972C18.5 26.1688 19.1716 25.4972 20 25.4972C20.8284 25.4972 21.5 26.1688 21.5 26.9972Z" fill="#0B4566"/>
</svg>
