<svg
  width="40"
  height="40"
  viewbox="0 0 40 40"
  fill="colorPrimary"
  xmlns="http://www.w3.org/2000/svg"
>
  <path d="M20.2 10.2l.59-.808-.59-.43-.59.43.59.808zm-10 7.3l-.59-.808-.583.427.221.688.952-.307zM14 29.3l-.952.306.223.694H14v-1zm12.4 0v1h.729l.223-.694-.952-.306zm3.8-11.8l.952.306.221-.688-.583-.426-.59.808zM19.61 9.392l-10 7.3 1.18 1.616 10-7.3-1.18-1.616zM9.248 17.807l3.8 11.8 1.904-.614-3.8-11.8-1.904.613zM14 30.3h12.4v-2H14v2zm13.352-.694l3.8-11.8-1.904-.613-3.8 11.8 1.904.614zm3.438-12.914l-10-7.3-1.18 1.616 10 7.3 1.18-1.616z"/>
</svg>
