<svg width="40" height="40" viewBox="0 0 40 40" fill="none" xmlns="http://www.w3.org/2000/svg">
<path d="M10 10H8V31H10V10Z" fill="#0B4566"/>
<path d="M28.8 20.6H24.4L23.2 19.4H19.2C18 19.4 17 20.4 17 21.6V28.8C17 30 18 31 19.2 31H28.8C30 31 31 30 31 28.8V22.8C31 21.6 30 20.6 28.8 20.6ZM29 29H19V21.4H22.4L23.6 22.6H29V29Z" fill="#0B4566"/>
<path d="M15 12H13V26H15V12Z" fill="#0B4566"/>
<path d="M25 7H23V15H25V7Z" fill="#0B4566"/>
<path d="M28.8 20.6H24.4L23.2 19.4H19.2C18 19.4 17 20.4 17 21.6V28.8C17 30 18 31 19.2 31H28.8C30 31 31 30 31 28.8V22.8C31 21.6 30 20.6 28.8 20.6ZM29 29H19V21.4H22.4L23.6 22.6H29V29Z" fill="#0B4566"/>
</svg>
