<svg width="40" height="40" viewBox="0 0 40 40" fill="none" xmlns="http://www.w3.org/2000/svg">
<path fill-rule="evenodd" clip-rule="evenodd" d="M19.75 29.1642L11.0429 20.4571L16.0429 15.4571L11.75 11.1642L13.1642 9.75L18.8713 15.4571L13.8713 20.4571L21.1642 27.75L19.75 29.1642Z" fill="colorPrimary"/>
<path fill-rule="evenodd" clip-rule="evenodd" d="M23.3713 17.9571L30.9571 17.9571L30.9571 15.9571L22.5429 15.9571L18.25 20.25L19.6642 21.6642L23.3713 17.9571Z" fill="colorPrimary"/>
<path d="M32 27C32 29.7614 29.7614 32 27 32C24.2386 32 22 29.7614 22 27C22 24.2386 24.2386 22 27 22C29.7614 22 32 24.2386 32 27Z" fill="colorSecondary"/>
</svg>
