<svg width="40" height="40" viewBox="0 0 40 40" fill="none" xmlns="http://www.w3.org/2000/svg">
<path d="M32 27C32 29.7614 29.7614 32 27 32C24.2386 32 22 29.7614 22 27C22 24.2386 24.2386 22 27 22C29.7614 22 32 24.2386 32 27Z" fill="#0B4566"/>
<path d="M30.4348 18.7195C31.2992 18.7195 32 18.0205 32 17.1584C32 16.2962 31.2992 15.5973 30.4348 15.5973C29.5703 15.5973 28.8696 16.2962 28.8696 17.1584C28.8696 18.0205 29.5703 18.7195 30.4348 18.7195Z" fill="#0B4566"/>
<path d="M9.56522 18.7195C10.4297 18.7195 11.1304 18.0205 11.1304 17.1584C11.1304 16.2962 10.4297 15.5973 9.56522 15.5973C8.70077 15.5973 8 16.2962 8 17.1584C8 18.0205 8.70077 18.7195 9.56522 18.7195Z" fill="#0B4566"/>
<path d="M11.5478 24.8597C12.4123 24.8597 13.113 24.1608 13.113 23.2986C13.113 22.4365 12.4123 21.7376 11.5478 21.7376C10.6834 21.7376 9.98261 22.4365 9.98261 23.2986C9.98261 24.1608 10.6834 24.8597 11.5478 24.8597Z" fill="#0B4566"/>
<path d="M20 31C20.8644 31 21.5652 30.3011 21.5652 29.4389C21.5652 28.5767 20.8644 27.8778 20 27.8778C19.1356 27.8778 18.4348 28.5767 18.4348 29.4389C18.4348 30.3011 19.1356 31 20 31Z" fill="#0B4566"/>
<path d="M20 11.1222C20.8644 11.1222 21.5652 10.4232 21.5652 9.56109C21.5652 8.69892 20.8644 8 20 8C19.1356 8 18.4348 8.69892 18.4348 9.56109C18.4348 10.4232 19.1356 11.1222 20 11.1222Z" fill="#0B4566"/>
<path d="M13.5304 31C14.3949 31 15.0957 30.3011 15.0957 29.4389C15.0957 28.5767 14.3949 27.8778 13.5304 27.8778C12.666 27.8778 11.9652 28.5767 11.9652 29.4389C11.9652 30.3011 12.666 31 13.5304 31Z" fill="#0B4566"/>
<path d="M14.7826 14.9728C15.6471 14.9728 16.3478 14.2739 16.3478 13.4118C16.3478 12.5496 15.6471 11.8507 14.7826 11.8507C13.9182 11.8507 13.2174 12.5496 13.2174 13.4118C13.2174 14.2739 13.9182 14.9728 14.7826 14.9728Z" fill="#0B4566"/>
<path d="M25.2174 14.9728C26.0818 14.9728 26.7826 14.2739 26.7826 13.4118C26.7826 12.5496 26.0818 11.8507 25.2174 11.8507C24.3529 11.8507 23.6522 12.5496 23.6522 13.4118C23.6522 14.2739 24.3529 14.9728 25.2174 14.9728Z" fill="#0B4566"/>
</svg>
