<svg width="40" height="40" viewBox="0 0 40 40" fill="none" xmlns="http://www.w3.org/2000/svg">
<path d="M31 10C28.2 10 27.2 13.2 26.6 16.5H12.5C11.9 14.5 10.9 13 9 13H8V15H9C10.4 15 11 18.1 11.5 20.9C12.1 24.7 12.9 29 16.3 29C18.7 29 19.4 26.4 19.8 24.5C20.1 23.4 20.4 22 20.9 22C21.2 22 21.6 22.7 21.9 23.3C22.4 24.3 23.1 25.7 24.7 25.7C27.2 25.7 27.7 22.3 28.2 18.7C28.7 15.7 29.2 11.9 30.9 11.9H31.9V10H31ZM24.8 23.8C24.5 23.8 24.1 23.1 23.8 22.5C23.3 21.5 22.6 20.1 21 20.1C19 20.1 18.4 22.3 17.9 24.1C17.5 25.8 17.1 27.1 16.3 27.1C14.5 27.1 14 23.8 13.4 20.6C13.2 19.6 13 18.5 12.8 17.6H26.5C26.4 17.9 26.4 18.2 26.4 18.6C26.1 20.3 25.5 23.8 24.8 23.8Z" fill="colorPrimary"/>
</svg>
