<svg width="40" height="40" viewBox="0 0 40 40" fill="none" xmlns="http://www.w3.org/2000/svg">
<path fill-rule="evenodd" clip-rule="evenodd" d="M12.2222 13.3333C10.9949 13.3333 10 14.3283 10 15.5556V26.6667C10 27.894 10.9949 28.8889 12.2222 28.8889H27.7778C29.0051 28.8889 30 27.894 30 26.6667V15.5556C30 14.3283 29.0051 13.3333 27.7778 13.3333H12.2222ZM12.2222 15.5556V26.6667H15V15.5556H12.2222ZM16.1111 15.5556V26.6667H23.8889V15.5556H16.1111ZM25 15.5556V26.6667H27.7778V15.5556H25Z" fill="#0B4566"/>
<path d="M17.2222 11.6667H22.7778V15.5556H24.4444V12.2222C24.4444 10.9949 23.4495 10 22.2222 10H17.7778C16.5505 10 15.5556 10.9949 15.5556 12.2222V15.5556H17.2222V11.6667Z" fill="#0B4566"/>
</svg>
