<svg width="40" height="40" viewBox="0 0 40 40" fill="none" xmlns="http://www.w3.org/2000/svg">
<path fill-rule="evenodd" clip-rule="evenodd" d="M17.17 14L19.17 16H28V26H12V23H10.0025L10 26C10 27.1 10.9 28 12 28H28C29.1 28 30 27.1 30 26V16C30 14.9 29.1 14 28 14H20L18 12H12C10.9 12 10.01 12.9 10.01 14L10.0075 17H12V14H17.17ZM15.0303 15.9697L18.5303 19.4697L19.0607 20L18.5303 20.5303L15.0303 24.0303L13.9697 22.9697L16.1893 20.75H8V19.25H16.1893L13.9697 17.0303L15.0303 15.9697Z" fill="colorPrimary"/>
</svg>
