<svg width="40" height="40" viewBox="0 0 40 40" fill="none" xmlns="http://www.w3.org/2000/svg">
<path d="M18.5 12C18.78 12 19 12.22 19 12.5V14.5H25V20.5H27C27.28 20.5 27.5 20.72 27.5 21C27.5 21.28 27.28 21.5 27 21.5H25V27.5H22.88C22.2 25.75 20.49 24.5 18.5 24.5C16.51 24.5 14.8 25.75 14.12 27.5H12V25.38C13.75 24.7 15 22.99 15 21C15 19.01 13.76 17.3 12.01 16.62L12 14.5H18V12.5C18 12.22 18.22 12 18.5 12ZM18.5 10C17.12 10 16 11.12 16 12.5H12C10.9 12.5 10.01 13.4 10.01 14.5V18.3H10.3C11.79 18.3 13 19.51 13 21C13 22.49 11.79 23.7 10.3 23.7H10V27.5C10 28.6 10.9 29.5 12 29.5H15.8V29.2C15.8 27.71 17.01 26.5 18.5 26.5C19.99 26.5 21.2 27.71 21.2 29.2V29.5H25C26.1 29.5 27 28.6 27 27.5V23.5C28.38 23.5 29.5 22.38 29.5 21C29.5 19.62 28.38 18.5 27 18.5V14.5C27 13.4 26.1 12.5 25 12.5H21C21 11.12 19.88 10 18.5 10Z" fill="colorPrimary"/>
</svg>
