<svg width="40" height="40" viewBox="0 0 40 40" fill="none" xmlns="http://www.w3.org/2000/svg">
<path d="M15 18.5L13.6 17.1C12.7 18.3 12.2 19.6 12 21H14C14.2 20.1 14.5 19.3 15 18.5ZM14 23H12C12.2 24.4 12.7 25.7 13.6 26.9L15 25.5C14.5 24.7 14.2 23.9 14 23ZM15 28.3C16.2 29.2 17.5 29.7 18.9 29.9V27.9C18 27.8 17.2 27.4 16.4 26.9C16.5 26.9 15 28.3 15 28.3ZM20.9 14.1V11L16.4 15.6L20.9 20V16.1C23.7 16.6 25.9 19 25.9 22C25.9 25 23.7 27.4 20.9 27.9V29.9C24.9 29.4 27.9 26 27.9 22C27.9 18 24.9 14.6 20.9 14.1Z" fill="#0B4566"/>
</svg>
