<svg width="40" height="40" viewBox="0 0 40 40" fill="none" xmlns="http://www.w3.org/2000/svg">
<path fill-rule="evenodd" clip-rule="evenodd" d="M9.88 11.6368C8.12 13.3868 7.23999 15.6968 7.23999 17.9968H4L8.23999 22.2368L12.48 17.9968H9.23999C9.23999 16.2068 9.91998 14.4169 11.29 13.0468C14.02 10.3168 18.46 10.3168 21.19 13.0468C22.56 14.4169 23.24 16.2068 23.24 17.9968V18H16.5C15.1 18 14 19.1 14 20.5V28.5C14 29.9 15.1 31 16.5 31H33.5C34.9 31 36 29.9 36 28.5V20.5C36 19.1 34.9 18 33.5 18H25.24V17.9968C25.24 15.6968 24.36 13.3868 22.6 11.6368C19.09 8.11682 13.39 8.11682 9.88 11.6368ZM17 20V29H31V20H17ZM33.5 26C34.3 26 35 25.3 35 24.5C35 23.7 34.3 23 33.5 23C32.7 23 32 23.7 32 24.5C32 25.3 32.7 26 33.5 26Z" fill="colorPrimary"/>
</svg>
