<svg width="40" height="40" viewBox="0 0 40 40" fill="none" xmlns="http://www.w3.org/2000/svg">
<path d="M16.2 16.8L16.9 16L17.6 16.8C17.9 17.1 18.9 18 20 18C21.1 18 22.1 17.1 22.4 16.8L23.1 16L23.8 16.8C24.1 17.1 25.1 18 26.2 18C26.8 18 27.5 17.7 27.9 17.4C27.9 17.1 28 16.8 28 16.4C28 11.8 24.4 8 20 8C15.6 8 12 11.8 12 16.4C12 16.7 12 17 12.1 17.4C12.6 17.7 13.2 18 13.8 18C14.8 18 15.9 17.1 16.2 16.8Z" fill="colorPrimary"/>
<path d="M23.1 18.8C22.4 19.3 21.3 20 20 20C18.7 20 17.6 19.4 16.9 18.8C16.2 19.3 15.1 20 13.8 20C13.4 20 13 19.9 12.6 19.8C14.5 25.6 20 32 20 32C20 32 25.5 25.6 27.4 19.8C27 19.9 26.6 20 26.2 20C24.9 20 23.8 19.4 23.1 18.8Z" fill="colorPrimary"/>
</svg>
