<svg width="40" height="40" viewBox="0 0 40 40" fill="none" xmlns="http://www.w3.org/2000/svg">
<path d="M11 13H13V11C11.9 11 11 11.9 11 13ZM11 21H13V19H11V21ZM15 29H17V27H15V29ZM11 17H13V15H11V17ZM21 11H19V13H21V11ZM27 11V13H29C29 11.9 28.1 11 27 11ZM13 29V27H11C11 28.1 11.9 29 13 29ZM11 25H13V23H11V25ZM17 11H15V13H17V11ZM19 29H21V27H19V29ZM27 21H29V19H27V21ZM27 29C28.1 29 29 28.1 29 27H27V29ZM27 17H29V15H27V17ZM27 25H29V23H27V25ZM23 29H25V27H23V29ZM23 13H25V11H23V13ZM15 25H25V15H15V25ZM17 17H23V23H17V17Z" fill="#0B4566"/>
</svg>
