<svg width="40" height="40" viewBox="0 0 40 40" fill="none" xmlns="http://www.w3.org/2000/svg">
<path d="M26 24.08C25.24 24.08 24.56 24.38 24.04 24.85L16.91 20.7C16.96 20.47 17 20.24 17 20C17 19.76 16.96 19.53 16.91 19.3L23.96 15.19C24.5 15.69 25.21 16 26 16C27.66 16 29 14.66 29 13C29 11.34 27.66 10 26 10C24.34 10 23 11.34 23 13C23 13.24 23.04 13.47 23.09 13.7L16.04 17.81C15.5 17.31 14.79 17 14 17C12.34 17 11 18.34 11 20C11 21.66 12.34 23 14 23C14.79 23 15.5 22.69 16.04 22.19L23.16 26.35C23.11 26.56 23.08 26.78 23.08 27C23.08 28.61 24.39 29.92 26 29.92C27.61 29.92 28.92 28.61 28.92 27C28.92 25.39 27.61 24.08 26 24.08ZM26 12C26.55 12 27 12.45 27 13C27 13.55 26.55 14 26 14C25.45 14 25 13.55 25 13C25 12.45 25.45 12 26 12ZM14 21C13.45 21 13 20.55 13 20C13 19.45 13.45 19 14 19C14.55 19 15 19.45 15 20C15 20.55 14.55 21 14 21ZM26 28.02C25.45 28.02 25 27.57 25 27.02C25 26.47 25.45 26.02 26 26.02C26.55 26.02 27 26.47 27 27.02C27 27.57 26.55 28.02 26 28.02Z" fill="colorPrimary"/>
</svg>
