<svg width="40" height="40" viewBox="0 0 40 40" fill="none" xmlns="http://www.w3.org/2000/svg">
<path d="M31.2941 11.5745L21.0084 8.10213C20.8067 8 20.4034 8 20.1008 8C19.7983 8 19.395 8 19.1933 8.10213L8.90756 11.5745C8.40336 11.7787 8 12.3915 8 12.9021V26.8936C8 27.5064 8.40336 28.1191 8.90756 28.2213L19.0924 31.8979C19.395 32 19.6975 32 20 32C20.3025 32 20.7059 32 20.9076 31.8979L31.0924 28.2213C31.5966 28.017 32 27.4043 32 26.8936V12.9021C32 12.3253 31.7983 11.7787 31.2941 11.5745ZM19.7983 10.0426C19.7983 10.0426 19.8992 10.0426 20.1008 10.0426C20.3025 10.0426 20.4034 10.0426 20.4034 10.0426L28.6723 12.8L20.7059 15.6596C20.4034 15.7617 19.7983 15.7617 19.4958 15.6596L11.6303 12.8L19.7983 10.0426ZM10.0168 14.434L18.7899 17.6L19.0924 17.7021V29.7532L10.0168 26.4851V14.434ZM21.1092 29.7532V17.7021L21.4118 17.6L30.1849 14.434V26.4851L21.1092 29.7532Z" fill="colorPrimary"/>
</svg>
