<svg width="40" height="40" viewBox="0 0 40 40" fill="none" xmlns="http://www.w3.org/2000/svg">
<path d="M22 8L17.6 19.7L11 17L8 32H25L32 21L22 8ZM23.9 30H10.4L12.4 19.8L16.8 21.6L18.7 22.4L22.5 12.1L29.4 21.1L23.9 30Z" fill="#0B4566"/>
<path d="M23 14.4L19.2 23.6L13.6 21.5L11.8 28.9H23.1L28.1 21.2L23 14.4ZM22.6 27.9H13.1L14.3 22.9L18.9 24.6L19.8 24.9L20.2 24L23.3 16.5L26.9 21.3L22.6 27.9Z" fill="#0B4566"/>
<path d="M23.8 20.2L20.8 25.8L14.9 25.4V26.4L21.4 26.9L24.7 20.7L23.8 20.2Z" fill="#0B4566"/>
</svg>
