<svg width="40" height="40" viewBox="0 0 40 40" fill="none" xmlns="http://www.w3.org/2000/svg">
<path d="M19 9H21V12H19V9Z" fill="#0B4566"/>
<path d="M14.8 13.3L13 11.5L11.5 12.9L13.3 14.7L14.8 13.3Z" fill="#0B4566"/>
<path d="M12 18.9H9V20.9H12V18.9Z" fill="#0B4566"/>
<path d="M27.0314 11.5067L25.2637 13.2745L26.6779 14.6887L28.4456 12.9209L27.0314 11.5067Z" fill="#0B4566"/>
<path d="M27 28.4L25.2 26.6L26.6 25.2L28.4 27L27 28.4Z" fill="#0B4566"/>
<path d="M31 18.9H28V20.9H31V18.9Z" fill="#0B4566"/>
<path fill-rule="evenodd" clip-rule="evenodd" d="M14 19.9C14 16.6 16.7 13.9 20 13.9C23.3 13.9 26 16.6 26 19.9C26 23.2 23.3 25.9 20 25.9C16.7 25.9 14 23.2 14 19.9ZM16 19.9C16 22.1 17.8 23.9 20 23.9C22.2 23.9 24 22.1 24 19.9C24 17.7 22.2 15.9 20 15.9C17.8 15.9 16 17.7 16 19.9Z" fill="#0B4566"/>
<path d="M19 28V31H21V28H19Z" fill="#0B4566"/>
<path d="M13 28.4L11.5 27L13.3 25.2L14.8 26.6L13 28.4Z" fill="#0B4566"/>
</svg>
