<svg width="40" height="40" viewBox="0 0 40 40" fill="none" xmlns="http://www.w3.org/2000/svg">
<path d="M19 31.59V27.99C13.99 27.73 10 23.57 10 18.5C10 13.26 14.26 9 19.5 9C24.74 9 29 13.26 29 18.5C29 23.45 25.56 28.43 20.43 30.9L19 31.59ZM19.5 11C15.36 11 12 14.36 12 18.5C12 22.64 15.36 26 19.5 26H21V28.3C24.64 26 27 22.22 27 18.5C27 14.36 23.64 11 19.5 11Z" fill="#0B4566"/>
<path d="M20.5 22.5H18.5V24.5H20.5V22.5Z" fill="#0B4566"/>
<path d="M20.5 21H18.5C18.5 17.75 21.5 18 21.5 16C21.5 14.9 20.6 14 19.5 14C18.4 14 17.5 14.9 17.5 16H15.5C15.5 13.79 17.29 12 19.5 12C21.71 12 23.5 13.79 23.5 16C23.5 18.5 20.5 18.75 20.5 21Z" fill="#0B4566"/>
</svg>
