<svg width="40" height="40" viewBox="0 0 40 40" fill="none" xmlns="http://www.w3.org/2000/svg">
<path fill-rule="evenodd" clip-rule="evenodd" d="M8 10C8 8.89543 8.89543 8 10 8H30C31.1046 8 32 8.89543 32 10V13H30V10L10 10V28H17V30H10C8.89543 30 8 29.1046 8 28V10Z" fill="colorPrimary"/>
<path fill-rule="evenodd" clip-rule="evenodd" d="M32 28C32 29.1046 31.1046 30 30 30L10 30C8.89543 30 8 29.1046 8 28L8 25H10L10 28L30 28V10L23 10L23 8L30 8C31.1046 8 32 8.89543 32 10V28Z" fill="colorPrimary"/>
<path fill-rule="evenodd" clip-rule="evenodd" d="M20.1256 14.8418L16.4902 16.8615L9.47059 13.1176L8.52941 14.8824L15.6262 18.6673L18.0249 29.2216L19.9751 28.7784L17.6414 18.5099L21.0246 16.6303L30.5528 21.3944L31.4472 19.6056L22.1514 14.9577L23.4744 9.22486L21.5256 8.77514L20.1256 14.8418Z" fill="colorPrimary"/>
<path d="M18 13.5C18 14.3284 17.3284 15 16.5 15C15.6716 15 15 14.3284 15 13.5C15 12.6716 15.6716 12 16.5 12C17.3284 12 18 12.6716 18 13.5Z" fill="colorPrimary"/>
<path d="M15 24.5C15 25.3284 14.3284 26 13.5 26C12.6716 26 12 25.3284 12 24.5C12 23.6716 12.6716 23 13.5 23C14.3284 23 15 23.6716 15 24.5Z" fill="colorPrimary"/>
<path d="M23 21.5C23 22.3284 22.3284 23 21.5 23C20.6716 23 20 22.3284 20 21.5C20 20.6716 20.6716 20 21.5 20C22.3284 20 23 20.6716 23 21.5Z" fill="colorPrimary"/>
<path d="M29 13.5C29 14.3284 28.3284 15 27.5 15C26.6716 15 26 14.3284 26 13.5C26 12.6716 26.6716 12 27.5 12C28.3284 12 29 12.6716 29 13.5Z" fill="colorPrimary"/>
</svg>
