<svg width="40" height="40" viewBox="0 0 40 40" fill="none" xmlns="http://www.w3.org/2000/svg">
<path d="M28 18C28 13.032 23.977 9 19.009 9C14.032 9 10 13.032 10 18C10 22.968 14.032 27 19.009 27C19.6933 27 20.3596 26.9235 21 26.7786V24.9189C20.3651 25.1019 19.694 25.2 19 25.2C15.022 25.2 11.8 21.978 11.8 18C11.8 14.022 15.022 10.8 19 10.8C22.978 10.8 26.2 14.022 26.2 18C26.2 19.0708 25.9665 20.0868 25.5477 21H27.4883C27.8197 20.0615 28 19.0517 28 18Z" fill="colorPrimary"/>
<path d="M19.9 13.5H18.55V18.225L14.5 20.628L15.175 21.735L19.9 18.9V13.5Z" fill="colorPrimary"/>
<path d="M27.9643 24L25.5 26.8454L24 25.1134L23.5 25.6907L25.5 28L28.5 24.701L27.9643 24Z" fill="colorPrimary"/>
<path fill-rule="evenodd" clip-rule="evenodd" d="M29.1111 30C29.6 30 30 29.6 30 29.1111V22.8889C30 22.4 29.6 22 29.1111 22H22.8889C22.4 22 22 22.4 22 22.8889V29.1111C22 29.6 22.4 30 22.8889 30H29.1111ZM29 29V23H23V29H29Z" fill="colorPrimary"/>
</svg>
