<svg width="40" height="40" viewBox="0 0 40 40" fill="none" xmlns="http://www.w3.org/2000/svg">
<path d="M31 16C31 17.1 30.1 18 29 18C28.8 18 28.6 18 28.5 17.9L24.9 21.5C25 21.6 25 21.8 25 22C25 23.1 24.1 24 23 24C21.9 24 21 23.1 21 22C21 21.8 21 21.6 21.1 21.5L18.5 18.9C18.4 19 18.2 19 18 19C17.8 19 17.6 19 17.5 18.9L12.9 23.5C13 23.6 13 23.8 13 24C13 25.1 12.1 26 11 26C9.9 26 9 25.1 9 24C9 22.9 9.9 22 11 22C11.2 22 11.3 22 11.5 22.1L16.1 17.5C16 17.4 16 17.2 16 17C16 15.9 16.9 15 18 15C19.1 15 20 15.9 20 17C20 17.2 20 17.4 19.9 17.5L22.5 20.1C22.6 20 22.8 20 23 20C23.2 20 23.4 20 23.5 20.1L27 16.5C27 16.4 27 16.2 27 16C27 14.9 27.9 14 29 14C30.1 14 31 14.9 31 16Z" fill="colorPrimary"/>
</svg>
