<svg width="40" height="40" viewBox="0 0 40 40" fill="none" xmlns="http://www.w3.org/2000/svg">
<path d="M26.8575 18.9815C26.8575 15.6162 24.9092 15.8819 24.9092 13.048C24.9092 10.9225 25.7948 8 27.7431 8C29.6915 8 32.4369 11.8081 30.5771 18.9815H26.8575Z" fill="#0B4566"/>
<path d="M26.7692 20.1328H30.5773C30.7544 24.0295 29.1603 24.4723 28.0976 24.4723C27.0348 24.4723 25.5293 23.4982 26.7692 20.1328Z" fill="#0B4566"/>
<path d="M23.2267 26.4207C22.6068 23.1439 24.6437 22.9668 24.1123 20.2214C23.7581 18.0959 22.3411 15.3506 20.4813 15.7048C18.533 16.059 16.4961 20.2214 19.5957 27.0406L23.2267 26.4207Z" fill="#0B4566"/>
<path d="M23.4924 27.4834L19.7729 28.1033C20.3042 31.9114 21.9869 32.0886 22.961 31.9114C23.9352 31.7343 25.3522 30.583 23.4924 27.4834Z" fill="#0B4566"/>
<path d="M14 22L8 27L14 32V22Z" fill="#0B4566"/>
</svg>
