<svg width="40" height="40" viewBox="0 0 40 40" fill="none" xmlns="http://www.w3.org/2000/svg">
<path d="M21.8575 18.9815C21.8575 15.6162 19.9092 15.8819 19.9092 13.048C19.9092 10.9225 20.7948 8 22.7431 8C24.6915 8 27.4369 11.8081 25.5771 18.9815H21.8575Z" fill="colorPrimary"/>
<path d="M21.7692 20.1328H25.5773C25.7544 24.0295 24.1603 24.4723 23.0976 24.4723C22.0348 24.4723 20.5293 23.4982 21.7692 20.1328Z" fill="colorPrimary"/>
<path d="M18.2267 26.4207C17.6068 23.1439 19.6437 22.9668 19.1123 20.2214C18.7581 18.0959 17.3411 15.3506 15.4813 15.7048C13.533 16.059 11.4961 20.2214 14.5957 27.0406L18.2267 26.4207Z" fill="colorPrimary"/>
<path d="M18.4924 27.4834L14.7729 28.1033C15.3042 31.9114 16.9869 32.0886 17.961 31.9114C18.9352 31.7343 20.3522 30.583 18.4924 27.4834Z" fill="colorPrimary"/>
</svg>
