<svg width="40" height="40" viewBox="0 0 40 40" fill="none" xmlns="http://www.w3.org/2000/svg">
<path d="M17.8575 18.9815C17.8575 15.6162 15.9092 15.8819 15.9092 13.048C15.9092 10.9225 16.7948 8 18.7431 8C20.6915 8 23.4368 11.8081 21.5771 18.9815H17.8575Z" fill="colorPrimary"/>
<path d="M17.7692 20.1328H21.5773C21.7544 24.0295 20.1603 24.4723 19.0976 24.4723C18.0348 24.4723 16.5293 23.4982 17.7692 20.1328Z" fill="colorPrimary"/>
<path d="M14.2267 26.4207C13.6068 23.1439 15.6437 22.9668 15.1123 20.2214C14.7581 18.0959 13.3411 15.3506 11.4813 15.7048C9.533 16.059 7.4961 20.2214 10.5957 27.0406L14.2267 26.4207Z" fill="colorPrimary"/>
<path d="M14.4924 27.4834L10.7729 28.1033C11.3042 31.9114 12.9869 32.0886 13.961 31.9114C14.9352 31.7343 16.3522 30.583 14.4924 27.4834Z" fill="colorPrimary"/>
<path d="M26 32L32 27L26 22L26 32Z" fill="colorPrimary"/>
</svg>
