<svg width="40" height="40" viewBox="0 0 40 40" fill="none" xmlns="http://www.w3.org/2000/svg">
<path d="M22.4 19.1L24 20.8V19.1H22.4ZM25 15.1H21V17H25C26.7 17 28.1 18.4 28.1 20.1C28.1 21.4 27.3 22.5 26.2 22.9L27.6 24.3C29 23.5 30 21.9 30 20.1C30 17.4 27.8 15.1 25 15.1ZM10 12.4L13.1 15.5C11.3 16.3 10 18.1 10 20.1C10 22.9 12.2 25.1 15 25.1H19V23.2H15C13.3 23.2 11.9 21.8 11.9 20.1C11.9 18.5 13.1 17.2 14.7 17L16.8 19.1H16V21.1H18.7L21 23.4V25.1H22.7L26.7 29.1L28.1 27.7L11.4 11L10 12.4Z" fill="#0B4566"/>
</svg>
