<svg width="40" height="40" viewBox="0 0 40 40" fill="none" xmlns="http://www.w3.org/2000/svg">
<path d="M21 23C21 24.1 20.1 25 19 25C17.9 25 17 24.1 17 23C17 21.9 17.9 21 19 21C20.1 21 21 21.9 21 23Z" fill="colorPrimary"/>
<path fill-rule="evenodd" clip-rule="evenodd" d="M24 16H25C26.1 16 27 16.9 27 18V28C27 29.1 26.1 30 25 30H13C11.9 30 11 29.1 11 28V18C11 16.9 11.9 16 13 16H22V14C22 12.34 20.66 11 19 11C17.34 11 16 12.34 16 14H14C14 11.24 16.24 9 19 9C21.76 9 24 11.24 24 14V16ZM13 18V28H25V18H13Z" fill="colorPrimary"/>
</svg>
