<svg width="40" height="40" viewBox="0 0 40 40" fill="none" xmlns="http://www.w3.org/2000/svg">
<path d="M22.6 31C23.4284 31 24.1 30.3284 24.1 29.5C24.1 28.6716 23.4284 28 22.6 28C21.7716 28 21.1 28.6716 21.1 29.5C21.1 30.3284 21.7716 31 22.6 31Z" fill="colorPrimary"/>
<path d="M16.4 31C17.2284 31 17.9 30.3284 17.9 29.5C17.9 28.6716 17.2284 28 16.4 28C15.5716 28 14.9 28.6716 14.9 29.5C14.9 30.3284 15.5716 31 16.4 31Z" fill="colorPrimary"/>
<path d="M11.4 27.4C12.2284 27.4 12.9 26.7284 12.9 25.9C12.9 25.0716 12.2284 24.4 11.4 24.4C10.5716 24.4 9.9 25.0716 9.9 25.9C9.9 26.7284 10.5716 27.4 11.4 27.4Z" fill="colorPrimary"/>
<path d="M9.5 21.5C10.3284 21.5 11 20.8284 11 20C11 19.1716 10.3284 18.5 9.5 18.5C8.67157 18.5 8 19.1716 8 20C8 20.8284 8.67157 21.5 9.5 21.5Z" fill="colorPrimary"/>
<path d="M29.5 21.5C30.3284 21.5 31 20.8284 31 20C31 19.1716 30.3284 18.5 29.5 18.5C28.6716 18.5 28 19.1716 28 20C28 20.8284 28.6716 21.5 29.5 21.5Z" fill="colorPrimary"/>
<path d="M27.6 15.6C28.4284 15.6 29.1 14.9284 29.1 14.1C29.1 13.2716 28.4284 12.6 27.6 12.6C26.7716 12.6 26.1 13.2716 26.1 14.1C26.1 14.9284 26.7716 15.6 27.6 15.6Z" fill="colorPrimary"/>
<path d="M16.4 12C17.2284 12 17.9 11.3284 17.9 10.5C17.9 9.67157 17.2284 9 16.4 9C15.5716 9 14.9 9.67157 14.9 10.5C14.9 11.3284 15.5716 12 16.4 12Z" fill="colorPrimary"/>
<path d="M22.6 12C23.4284 12 24.1 11.3284 24.1 10.5C24.1 9.67157 23.4284 9 22.6 9C21.7716 9 21.1 9.67157 21.1 10.5C21.1 11.3284 21.7716 12 22.6 12Z" fill="colorPrimary"/>
<path fill-rule="evenodd" clip-rule="evenodd" d="M28.8903 28.2927L9.39029 13.2927L10.6097 11.7074L30.1097 26.7074L28.8903 28.2927Z" fill="colorPrimary"/>
</svg>
