<svg width="40" height="40" viewBox="0 0 40 40" fill="none" xmlns="http://www.w3.org/2000/svg">
<path fill-rule="evenodd" clip-rule="evenodd" d="M17 20C18.9 20 20.5 18.4 20.5 16.5C20.5 14.6 18.9 13 17 13C15.1 13 13.5 14.6 13.5 16.5C13.5 18.4 15.1 20 17 20ZM17 15C17.8 15 18.5 15.7 18.5 16.5C18.5 17.3 17.8 18 17 18C16.2 18 15.5 17.3 15.5 16.5C15.5 15.7 16.2 15 17 15Z" fill="#0B4566"/>
<path fill-rule="evenodd" clip-rule="evenodd" d="M17 21.8C14.7 21.8 10 23 10 25.3V27H24V25.2C24 22.9 19.3 21.8 17 21.8ZM12.3 25C13.1 24.4 15.2 23.8 17 23.8C18.8 23.8 20.8 24.5 21.7 25H12.3Z" fill="#0B4566"/>
<path d="M26 25.2C26 23.8 25.2 22.6 24 21.8C26.5 22.1 30 23.2 30 25.2V27H26V25.2Z" fill="#0B4566"/>
<path d="M22 19.5477C22.5054 19.8349 23.0848 20 23.6952 20C25.5952 20 27.1952 18.4 27.1952 16.5C27.1952 14.6 25.5952 13 23.6952 13C23.2741 13 22.8678 13.0786 22.4904 13.2216C22.8046 13.8069 23.0244 14.4469 23.1279 15.1199C23.3048 15.043 23.4969 15 23.6952 15C24.4952 15 25.1952 15.7 25.1952 16.5C25.1952 17.3 24.4952 18 23.6952 18C23.4156 18 23.1483 17.9145 22.9187 17.7691C22.7131 18.4128 22.3994 19.0132 22 19.5477Z" fill="#0B4566"/>
</svg>
