<svg width="40" height="40" viewBox="0 0 40 40" fill="none" xmlns="http://www.w3.org/2000/svg">
<path d="M20 13.0839C21.16 13.0839 22.1 14.1148 22.1 15.3871C22.1 16.6594 21.16 17.6903 20 17.6903C18.84 17.6903 17.9 16.6594 17.9 15.3871C17.9 14.1148 18.84 13.0839 20 13.0839ZM20 22.9548C22.97 22.9548 26.1 24.5561 26.1 25.2581V26.4645H13.9V25.2581C13.9 24.5561 17.03 22.9548 20 22.9548ZM20 11C17.79 11 16 12.9632 16 15.3871C16 17.811 17.79 19.7742 20 19.7742C22.21 19.7742 24 17.811 24 15.3871C24 12.9632 22.21 11 20 11ZM20 20.871C17.33 20.871 12 22.3406 12 25.2581V28.5484H28V25.2581C28 22.3406 22.67 20.871 20 20.871Z" fill="#0B4566"/>
</svg>
