<svg
  width="40"
  height="40"
  viewbox="0 0 40 40"
  fill="colorPrimary"
  xmlns="http://www.w3.org/2000/svg"
>
  <g clip-path="url(#clip0)"><path d="M30.6 27l-9.1-9.1c.9-2.3.4-5.1-1.4-7-2.3-2.3-5.9-2.5-8.4-.6l3.8 3.9-1.4 1.3-3.8-3.8c-1.9 2.5-1.6 6.1.7 8.4 1.9 1.9 4.6 2.3 6.9 1.5l9.1 9.1c.4.4 1 .4 1.4 0l2.3-2.3c.3-.4.3-1-.1-1.4zm-3 1.6l-9.5-9.5c-.6.4-1.3.7-2 .8-1.4.2-2.8-.2-3.8-1.2-.9-.9-1.4-2.2-1.3-3.4l3.1 3.1 4.2-4.2-3.1-3.2c1.2-.1 2.5.4 3.4 1.3 1.1 1.1 1.5 2.6 1.2 4-.1.7-.4 1.4-.9 2l9.4 9.4-.7.9z" /></g><defs><clipPath id="clip0"><path style="fill: white" transform="translate(9 9)" d="M0 0h21.9v22H0z"/></clipPath></defs>
</svg>
