<svg width="41" height="40" viewBox="0 0 41 40" fill="none" xmlns="http://www.w3.org/2000/svg">
<path fill-rule="evenodd" clip-rule="evenodd" d="M16.6037 20.3273L15.8638 21L15.1238 20.3273L15.8638 19.5134L16.6037 20.3273ZM15.8638 22.5583C15.6534 22.825 15.4182 23.1363 15.1839 23.4722C14.8264 23.9846 14.4844 24.535 14.2354 25.058C13.9773 25.6001 13.8638 26.021 13.8638 26.3C13.8638 27.4261 14.7943 28.3 15.8638 28.3C16.9115 28.3 17.8638 27.3477 17.8638 26.3C17.8638 26.021 17.7503 25.6001 17.4922 25.058C17.2431 24.535 16.9012 23.9846 16.5436 23.4722C16.3093 23.1363 16.0741 22.825 15.8638 22.5583ZM15.8638 21C15.1238 20.3273 15.1238 20.3273 15.1238 20.3273L15.1201 20.3315L15.112 20.3404L15.0835 20.3722C15.0592 20.3995 15.0245 20.4387 14.9809 20.4887C14.8938 20.5887 14.7708 20.7322 14.6239 20.9102C14.3309 21.265 13.9384 21.762 13.5436 22.3278C13.1512 22.8903 12.7431 23.5399 12.4297 24.1982C12.1253 24.8374 11.8638 25.5789 11.8638 26.3C11.8638 28.5738 13.7333 30.3 15.8638 30.3C18.0161 30.3 19.8638 28.4523 19.8638 26.3C19.8638 25.5789 19.6023 24.8374 19.2979 24.1982C18.9844 23.5399 18.5764 22.8903 18.1839 22.3278C17.7892 21.762 17.3966 21.265 17.1036 20.9102C16.9567 20.7322 16.8337 20.5887 16.7466 20.4887C16.703 20.4387 16.6683 20.3995 16.6441 20.3722L16.6156 20.3404L16.6075 20.3315L16.6037 20.3273C16.6037 20.3273 16.6037 20.3273 15.8638 21Z" fill="#0B4566"/>
<path fill-rule="evenodd" clip-rule="evenodd" d="M25.0071 10.331L24.2638 11L23.5205 10.331L24.2638 9.50513L25.0071 10.331ZM24.2638 12.5482C23.8627 13.0419 23.3484 13.704 22.836 14.4442C22.2907 15.2319 21.7608 16.0889 21.3707 16.9124C20.9714 17.7553 20.7638 18.4704 20.7638 19C20.7638 20.9477 22.3161 22.5 24.2638 22.5C26.2115 22.5 27.7638 20.9477 27.7638 19C27.7638 18.4704 27.5562 17.7553 27.1569 16.9124C26.7668 16.0889 26.2369 15.2319 25.6916 14.4442C25.1792 13.704 24.6649 13.0419 24.2638 12.5482ZM28.9644 16.0563C29.4089 16.9946 29.7638 18.0295 29.7638 19C29.7638 22.0523 27.3161 24.5 24.2638 24.5C21.2115 24.5 18.7638 22.0523 18.7638 19C18.7638 18.0295 19.1187 16.9946 19.5632 16.0563C20.0168 15.0986 20.6119 14.1431 21.1916 13.3058C21.7735 12.4652 22.3533 11.7246 22.7867 11.1949C23.0039 10.9295 23.1853 10.7157 23.3134 10.5673C23.3774 10.4931 23.4282 10.4352 23.4634 10.3952L23.5044 10.349L23.5157 10.3364L23.5205 10.331C23.5205 10.331 23.5205 10.331 24.2638 11C25.0071 10.331 25.0071 10.331 25.0071 10.331L25.0119 10.3364L25.0232 10.349L25.0642 10.3952C25.0994 10.4352 25.1502 10.4931 25.2142 10.5673C25.3423 10.7157 25.5237 10.9295 25.7409 11.1949C26.1743 11.7246 26.7541 12.4652 27.336 13.3058C27.9157 14.1431 28.5108 15.0986 28.9644 16.0563Z" fill="#0B4566"/>
</svg>
