<svg width="40" height="40" viewBox="0 0 40 40" fill="none" xmlns="http://www.w3.org/2000/svg">
<path fill-rule="evenodd" clip-rule="evenodd" d="M8 10C8 8.89543 8.89543 8 10 8H30C31.1046 8 32 8.89543 32 10V13H30V10L10 10V28H17V30H10C8.89543 30 8 29.1046 8 28V10Z" fill="colorPrimary"/>
<path fill-rule="evenodd" clip-rule="evenodd" d="M32 28C32 29.1046 31.1046 30 30 30L10 30C8.89543 30 8 29.1046 8 28L8 25H10L10 28L30 28V10L23 10L23 8L30 8C31.1046 8 32 8.89543 32 10V28Z" fill="colorPrimary"/>
<path d="M24.5 14C27.5 14 30 16.5 30 19.5C30 22.5 27.5 25 24.5 25C21.5 25 19 22.5 19 19.5C19 16.5 21.5 14 24.5 14ZM24.5 12C20.4 12 17 15.4 17 19.5C17 23.6 20.4 27 24.5 27C28.6 27 32 23.6 32 19.5C32 15.4 28.6 12 24.5 12Z" fill="colorPrimary"/>
<path d="M8.01329 13C8.27819 17.9728 12.4676 22 17.5 22C22.7 22 27 17.7 27 12.5C27 11.6367 26.8815 10.7982 26.66 10H24.5628C24.8456 10.7841 25 11.6262 25 12.5C25 16.6 21.6 20 17.5 20C13.5679 20 10.2796 16.8728 10.0169 13H8.01329Z" fill="colorPrimary"/>
</svg>
