<svg width="40" height="40" viewBox="0 0 40 40" fill="none" xmlns="http://www.w3.org/2000/svg">
<path d="M17 17V15H18V17H20V18H18V20H17V18H15V17H17Z" fill="#0B4566"/>
<path fill-rule="evenodd" clip-rule="evenodd" d="M22.71 22H23.5L28.49 27L27 28.49L22 23.5V22.71L21.73 22.43C20.59 23.41 19.11 24 17.5 24C13.91 24 11 21.09 11 17.5C11 13.91 13.91 11 17.5 11C21.09 11 24 13.91 24 17.5C24 19.11 23.41 20.59 22.43 21.73L22.71 22ZM13 17.5C13 19.99 15.01 22 17.5 22C19.99 22 22 19.99 22 17.5C22 15.01 19.99 13 17.5 13C15.01 13 13 15.01 13 17.5Z" fill="#0B4566"/>
</svg>
