<svg width="40" height="40" viewBox="0 0 40 40" fill="none" xmlns="http://www.w3.org/2000/svg">
<path d="M10.0001 13H8.00006V8H13.0001V10H10.0001V13Z" fill="colorPrimary"/>
<path d="M23.0001 13H21.0001V10H18.0001V8H23.0001V13Z" fill="colorPrimary"/>
<path d="M13.0001 23H8.00006V18H10.0001V21H13.0001V23Z" fill="colorPrimary"/>
<path d="M23.0001 23H18.0001V21H21.0001V18H23.0001V23Z" fill="colorPrimary"/>
<path d="M26.5 25H25.71L25.43 24.73C26.41 23.59 27 22.11 27 20.5C27 16.91 24.09 14 20.5 14C16.91 14 14 16.91 14 20.5C14 24.09 16.91 27 20.5 27C22.11 27 23.59 26.41 24.73 25.43L25 25.71V26.5L30 31.49L31.49 30L26.5 25ZM20.5 25C18.01 25 16 22.99 16 20.5C16 18.01 18.01 16 20.5 16C22.99 16 25 18.01 25 20.5C25 22.99 22.99 25 20.5 25Z" fill="colorPrimary"/>
</svg>
