<svg width="54" height="32" viewBox="0 0 54 32" fill="none" xmlns="http://www.w3.org/2000/svg">
	<path
		d="M7.67193 18.5276H0V30.3157C0.00112502 30.7619 0.17709 31.1894 0.489452 31.505C0.801814 31.8206 1.22518 31.9986 1.66707 32H7.67193C9.44131 32 11.1382 31.2903 12.3894 30.027C13.6405 28.7637 14.3434 27.0503 14.3434 25.2638C14.3434 23.4772 13.6405 21.7638 12.3894 20.5006C11.1382 19.2373 9.44131 18.5276 7.67193 18.5276ZM7.00425 28.6314H4.41992C4.36499 28.6319 4.31051 28.6214 4.25965 28.6005C4.2088 28.5795 4.1626 28.5485 4.12376 28.5093C4.08492 28.4701 4.05422 28.4234 4.03347 28.3721C4.01271 28.3207 4.00231 28.2657 4.00288 28.2103V21.8951H7.00425C7.44732 21.8871 7.88753 21.9683 8.29918 22.134C8.71083 22.2997 9.08567 22.5465 9.40181 22.8601C9.71795 23.1736 9.96906 23.5476 10.1405 23.9602C10.3119 24.3728 10.4002 24.8158 10.4002 25.2632C10.4002 25.7107 10.3119 26.1537 10.1405 26.5663C9.96906 26.9789 9.71795 27.3529 9.40181 27.6664C9.08567 27.98 8.71083 28.2268 8.29918 28.3925C7.88753 28.5581 7.44732 28.6394 7.00425 28.6314Z"
		fill="#09334B" />
	<path
		d="M25.6844 23.5795H20.3515V18.5276H16.34V30.3157C16.3414 30.762 16.5177 31.1895 16.8302 31.5051C17.1427 31.8207 17.5662 31.9986 18.0082 32H20.3429V27.8904C20.3441 27.7795 20.3233 27.6695 20.2818 27.5668C20.2402 27.4641 20.1789 27.3708 20.1012 27.2924C20.0235 27.2139 19.9311 27.1519 19.8294 27.11C19.7277 27.0681 19.6187 27.0471 19.5089 27.0483C19.4956 27.0483 19.4828 27.0429 19.4734 27.0334C19.464 27.0239 19.4587 27.0111 19.4587 26.9976C19.4587 26.9842 19.464 26.9713 19.4734 26.9619C19.4828 26.9524 19.4956 26.947 19.5089 26.947H25.6801V30.3157C25.6815 30.762 25.8577 31.1895 26.1702 31.5051C26.4828 31.8207 26.9063 31.9986 27.3482 32H29.683V18.5276H25.6844V23.5795Z"
		fill="#09334B" />
	<path
		d="M32.6897 18.5276V30.3157C32.6908 30.7619 32.8668 31.1894 33.1791 31.505C33.4915 31.8206 33.9149 31.9986 34.3568 32H36.6926V18.5276H32.6897Z"
		fill="#09334B" />
	<path
		d="M32.2769 0C27.504 0 22.7374 1.88033 22.5422 2.60079C22.5017 2.75049 22.7129 2.87757 23.0382 2.87757C23.9608 2.87757 25.9777 1.69832 30.4061 1.69832C32.4902 1.69832 34.6618 2.0634 34.6618 2.61803C34.6618 3.10265 33.1227 3.43219 33.1227 4.04065C33.1227 4.33358 33.5333 4.57912 34.6789 4.57912C38.5932 4.57912 43.7736 6.10513 43.7736 7.70223C43.7781 7.74959 43.7724 7.79737 43.7571 7.84234C43.7417 7.88731 43.7169 7.92843 43.6845 7.96293C43.652 7.99743 43.6126 8.0245 43.569 8.04232C43.5253 8.06014 43.4783 8.06829 43.4312 8.06623C42.6622 8.06623 40.1312 6.66083 35.5385 6.66083C27.1285 6.66083 22.1199 12.3826 22.1199 14.376C22.1199 14.88 22.4281 15.1923 22.8889 15.1923C24.5079 15.1923 25.5884 13.5015 29.122 13.5015C31.8236 13.5015 32.5852 14.5504 34.2778 14.5504C34.9988 14.5504 35.7433 14.2737 35.7433 13.6307C35.7433 12.6432 34.5306 12.0153 32.5137 11.5512C30.8072 11.1516 29.8472 10.8749 29.8472 10.2158C29.8472 9.01824 32.598 8.03177 35.4532 8.03177C45.0258 8.03177 49.146 14.6366 49.7273 14.6366C49.8627 14.6366 49.9321 14.5289 49.9321 14.2726C49.9321 12.3341 47.6922 8.60362 45.2817 6.55745C41.6916 3.52373 38.958 2.86464 38.958 2.4651C38.958 2.37787 39.0774 2.34341 39.1969 2.34341C40.0256 2.34341 43.4814 3.82742 46.3249 6.40022C50.2531 9.9541 52.4503 15.4992 52.4503 19.8942C52.4503 20.773 52.3532 21.2888 52.0311 21.2888C51.3986 21.2888 50.5987 18.0451 47.881 14.8445C45.5932 12.1521 41.7439 9.50394 38.1751 9.50394C37.2856 9.50394 36.7054 9.66009 36.7054 10.1975C36.7054 11.6815 41.9188 13.0449 41.9188 18.3488V18.3649C41.8954 18.8431 41.8911 19.2039 41.7823 19.5776C41.3557 21.0562 42.643 22.7901 43.459 22.6285C44.9255 22.3388 44.6663 18.1399 44.6909 18.6514V18.5911C44.5522 16.9574 44.1757 16.3802 44.1757 15.5197C44.1757 14.9306 44.4157 14.6581 44.7751 14.6581C45.3393 14.6581 46.695 15.5434 48.1882 17.7102C49.6814 19.877 50.8045 23.1024 50.8045 26.638C50.8045 29.032 50.9272 30.3243 51.4903 30.3243C52.4812 30.3243 54 26.4559 54 22.0814C53.9904 9.8604 44.4317 0 32.2769 0Z"
		fill="url(#paint0_radial_47220_99215)" />
	<defs>
		<radialGradient id="paint0_radial_47220_99215" cx="0" cy="0" r="1" gradientUnits="userSpaceOnUse"
			gradientTransform="translate(19.3307 -2.71064) scale(43.8024 44.2275)">
			<stop offset="0.25" stop-color="#004164" />
			<stop offset="0.5" stop-color="#0098DB" />
			<stop offset="1" stop-color="#61C250" />
		</radialGradient>
	</defs>
</svg>